<svg width="514" height="262" viewBox="0 0 514 262" fill="none" xmlns="http://www.w3.org/2000/svg">
<path d="M0.564514 204.498V159.338L71.2335 4.72852H124.838V165.716H147.418V204.498H124.838V255H79.6793V204.498H0.564514ZM33.3135 165.716H79.6793V62.2979L33.3135 165.716ZM186.021 193.294V66.4346C186.021 46.7852 192.743 30.8128 206.187 18.5176C219.746 6.22233 236.523 0.074707 256.517 0.074707C277.775 0.074707 294.667 6.04997 307.192 18.0005C319.832 29.8361 326.152 45.9808 326.152 66.4346V193.294C326.152 213.863 319.832 230.295 307.192 242.59C294.552 254.885 277.66 261.033 256.517 261.033C236.638 261.033 219.919 254.713 206.359 242.073C192.8 229.318 186.021 213.058 186.021 193.294ZM231.18 197.431C231.18 204.785 233.65 210.76 238.591 215.356C243.532 219.953 249.508 222.251 256.517 222.251C263.067 222.251 268.755 219.78 273.581 214.839C278.522 209.783 280.993 203.521 280.993 196.052V61.9531C280.993 54.7139 278.58 49.0833 273.753 45.0615C269.042 41.0397 263.297 39.0288 256.517 39.0288C249.508 39.0288 243.532 41.1546 238.591 45.4062C233.65 49.543 231.18 55.1735 231.18 62.2979V197.431ZM366.995 204.498V159.338L437.664 4.72852H491.269V165.716H513.849V204.498H491.269V255H446.11V204.498H366.995ZM399.744 165.716H446.11V62.2979L399.744 165.716Z" fill="url(#paint0_linear_609_6065)"/>
<defs>
<linearGradient id="paint0_linear_609_6065" x1="256" y1="-16" x2="256" y2="263" gradientUnits="userSpaceOnUse">
<stop stop-color="#F2F2F2"/>
<stop offset="0.472746" stop-color="#F2F2F2" stop-opacity="0.11"/>
<stop offset="1" stop-color="#F2F2F2"/>
</linearGradient>
</defs>
</svg>
