<svg width="214" height="116" viewBox="0 0 214 116" fill="none" xmlns="http://www.w3.org/2000/svg">
<path d="M0 26.7332V0.0488281H28.1957V4.76319H6.4649V10.5875H19.1211V15.1785H6.4649V21.7413H28.53V26.7332H0Z" fill="white"/>
<path d="M35.0569 26.7312V0.046875H41.5213V21.7394H62.1298V26.7312H35.0569Z" fill="white"/>
<path d="M67.4207 26.7312V0.046875H73.8851V10.1847H93.8872V0.046875H100.29V26.7312H93.8872V15.4839H73.8851V26.7312H67.4207Z" fill="white"/>
<path d="M104.922 26.7312L120.523 0.046875H126.684L142.527 26.7312H135.334L132.026 20.8766H114.635L111.326 26.7312H104.922ZM117.366 16.0085H129.416L123.285 4.88501L117.366 16.0085Z" fill="white"/>
<path d="M167.449 16.7755H171.058C173.225 16.7755 174.789 16.6925 175.76 15.8914C176.731 15.0893 177.202 14.1109 177.202 12.2996V6.01786C177.202 4.18797 176.731 2.44786 175.76 1.63629C174.789 0.825173 173.225 0 171.058 0H147.309V26.7501H153.65V4.9873H168.335C169.447 4.9873 170.47 5.37042 170.885 5.70049C171.299 6.03056 171.766 6.80994 171.766 7.59294V10.6678C171.766 11.4508 171.299 11.941 170.885 12.271C170.47 12.6011 169.447 12.695 168.335 12.695H159.085V17.4216L170.756 26.7501H179.953L167.449 16.7755Z" fill="white"/>
<path d="M201.283 4.77602V26.7501H194.879V4.77602H182.193V0H214V4.77602H201.283Z" fill="white"/>
<path d="M29.9431 69.16C29.1111 69.16 28.4071 68.9627 27.8311 68.568C27.2551 68.1627 26.8338 67.6347 26.5671 66.984C26.3111 66.3227 26.2365 65.608 26.3431 64.84C26.4285 64.2533 26.6045 63.6987 26.8711 63.176C27.1485 62.6533 27.5005 62.1947 27.9271 61.8C28.3645 61.3947 28.8551 61.08 29.3991 60.856C29.9538 60.6213 30.5405 60.504 31.1591 60.504C31.9911 60.504 32.6951 60.7067 33.2711 61.112C33.8471 61.5067 34.2685 62.0347 34.5351 62.696C34.8018 63.3467 34.8818 64.0613 34.7751 64.84C34.7005 65.416 34.5245 65.9653 34.2471 66.488C33.9805 67.0107 33.6338 67.4747 33.2071 67.88C32.7805 68.2747 32.2898 68.5893 31.7351 68.824C31.1805 69.048 30.5831 69.16 29.9431 69.16ZM30.1031 68.008C30.4871 68.008 30.8551 67.928 31.2071 67.768C31.5698 67.5973 31.8951 67.3627 32.1831 67.064C32.4818 66.7653 32.7271 66.424 32.9191 66.04C33.1218 65.656 33.2551 65.2507 33.3191 64.824C33.4045 64.2373 33.3565 63.704 33.1751 63.224C32.9938 62.744 32.7165 62.3653 32.3431 62.088C31.9698 61.8 31.5218 61.656 30.9991 61.656C30.6151 61.656 30.2471 61.7413 29.8951 61.912C29.5431 62.072 29.2178 62.296 28.9191 62.584C28.6205 62.872 28.3751 63.2133 28.1831 63.608C27.9911 63.992 27.8631 64.408 27.7991 64.856C27.7245 65.4427 27.7778 65.976 27.9591 66.456C28.1405 66.936 28.4178 67.3147 28.7911 67.592C29.1645 67.8693 29.6018 68.008 30.1031 68.008ZM37.3248 60.648H38.6048L38.2208 62.44C38.6474 61.8427 39.1594 61.3733 39.7568 61.032C40.3541 60.68 40.9621 60.504 41.5808 60.504C41.9968 60.504 42.3434 60.584 42.6208 60.744C42.9088 60.904 43.1274 61.1333 43.2768 61.432C43.4261 61.7307 43.5061 62.0987 43.5168 62.536C43.8474 62.088 44.1941 61.7147 44.5568 61.416C44.9194 61.1173 45.3034 60.8933 45.7088 60.744C46.1141 60.584 46.5248 60.504 46.9408 60.504C47.3994 60.504 47.7621 60.5893 48.0288 60.76C48.2954 60.9307 48.4874 61.1707 48.6048 61.48C48.7328 61.7787 48.7968 62.1307 48.7968 62.536C48.7968 62.76 48.7808 62.9947 48.7488 63.24C48.7168 63.4853 48.6741 63.7413 48.6208 64.008L47.5488 69H46.1408L47.1328 64.328C47.2288 63.88 47.2768 63.4907 47.2768 63.16C47.2768 62.6907 47.1754 62.344 46.9728 62.12C46.7808 61.8853 46.4981 61.768 46.1248 61.768C45.7728 61.768 45.4208 61.864 45.0688 62.056C44.7168 62.2373 44.3861 62.4933 44.0768 62.824C43.7781 63.1547 43.5221 63.5387 43.3088 63.976L42.2528 69H40.8448L41.8368 64.328C41.8901 64.0933 41.9274 63.88 41.9488 63.688C41.9701 63.496 41.9808 63.3147 41.9808 63.144C41.9808 62.6747 41.8848 62.328 41.6928 62.104C41.5008 61.88 41.2181 61.768 40.8448 61.768C40.3221 61.768 39.7994 61.9707 39.2768 62.376C38.7648 62.7707 38.3488 63.2987 38.0288 63.96L36.9568 69H35.5488L37.3248 60.648ZM56.8749 69.16C56.2562 69.16 55.7229 69.0053 55.2749 68.696C54.8269 68.376 54.4855 67.9547 54.2509 67.432C54.0162 66.8987 53.8989 66.3173 53.8989 65.688C53.8989 65.016 54.0215 64.3707 54.2669 63.752C54.5229 63.1333 54.8642 62.584 55.2909 62.104C55.7282 61.6133 56.2242 61.224 56.7789 60.936C57.3335 60.648 57.9149 60.504 58.5229 60.504C59.1629 60.504 59.6962 60.68 60.1229 61.032C60.5495 61.384 60.8482 61.8107 61.0189 62.312L61.3869 60.648H62.7949L61.3869 67.272C61.3762 67.3147 61.3655 67.352 61.3549 67.384C61.3549 67.416 61.3549 67.448 61.3549 67.48C61.3549 67.672 61.4722 67.7733 61.7069 67.784L61.4509 69C61.3335 69.0107 61.2269 69.0213 61.1309 69.032C61.0455 69.0533 60.9655 69.064 60.8909 69.064C60.5922 69.064 60.3629 68.9947 60.2029 68.856C60.0535 68.7173 59.9789 68.5467 59.9789 68.344C59.9789 68.28 59.9842 68.2053 59.9949 68.12C60.0055 68.0347 60.0215 67.9333 60.0429 67.816C60.0642 67.6987 60.0909 67.5707 60.1229 67.432C59.7069 67.9653 59.2002 68.3867 58.6029 68.696C58.0162 69.0053 57.4402 69.16 56.8749 69.16ZM57.4829 67.944C57.7175 67.944 57.9682 67.896 58.2349 67.8C58.5122 67.704 58.7789 67.5707 59.0349 67.4C59.3015 67.2293 59.5415 67.032 59.7549 66.808C59.9682 66.5733 60.1282 66.328 60.2349 66.072L60.7309 63.672C60.6882 63.3093 60.5655 62.984 60.3629 62.696C60.1602 62.3973 59.9095 62.1627 59.6109 61.992C59.3229 61.8107 59.0135 61.72 58.6829 61.72C58.2349 61.72 57.8135 61.832 57.4189 62.056C57.0242 62.2693 56.6722 62.5573 56.3629 62.92C56.0642 63.2827 55.8242 63.688 55.6429 64.136C55.4722 64.5733 55.3869 65.016 55.3869 65.464C55.3869 65.9227 55.4722 66.3387 55.6429 66.712C55.8135 67.0853 56.0535 67.384 56.3629 67.608C56.6829 67.832 57.0562 67.944 57.4829 67.944ZM63.458 69L65.218 60.648H66.626L65.874 64.168H70.242L70.978 60.648H72.386L70.626 69H69.218L70.002 65.272H65.65L64.866 69H63.458ZM76.0978 69.16C75.4151 69.16 74.8498 69.064 74.4018 68.872C73.9644 68.68 73.6444 68.408 73.4418 68.056C73.2391 67.704 73.1538 67.2933 73.1858 66.824C73.2391 66.1947 73.5111 65.6987 74.0018 65.336C74.4924 64.9627 75.2711 64.6053 76.3378 64.264C76.8178 64.104 77.1911 63.9547 77.4578 63.816C77.7351 63.6773 77.9378 63.5227 78.0658 63.352C78.1938 63.1707 78.2684 62.9627 78.2898 62.728C78.3218 62.344 78.2151 62.0507 77.9698 61.848C77.7244 61.6453 77.3724 61.544 76.9138 61.544C76.4871 61.544 76.0818 61.6347 75.6978 61.816C75.3138 61.9867 75.0044 62.232 74.7698 62.552L73.7618 61.928C74.1031 61.4693 74.5618 61.1173 75.1378 60.872C75.7244 60.616 76.3911 60.488 77.1378 60.488C78.0338 60.488 78.7004 60.6907 79.1378 61.096C79.5751 61.4907 79.7778 62.0347 79.7458 62.728C79.7031 63.3573 79.4524 63.8587 78.9938 64.232C78.5351 64.5947 77.8364 64.9253 76.8978 65.224C76.3431 65.4053 75.9058 65.5707 75.5858 65.72C75.2658 65.8693 75.0364 66.0347 74.8978 66.216C74.7591 66.3867 74.6738 66.5947 74.6418 66.84C74.5991 67.2347 74.7271 67.5387 75.0258 67.752C75.3244 67.9547 75.7724 68.056 76.3698 68.056C76.8178 68.056 77.2444 67.9653 77.6498 67.784C78.0551 67.6027 78.4018 67.3467 78.6898 67.016L79.5858 67.784C79.1911 68.2107 78.7058 68.5467 78.1298 68.792C77.5644 69.0373 76.8871 69.16 76.0978 69.16ZM80.1651 69C80.6345 67.6027 81.2851 66.2 82.1171 64.792C82.9491 63.3733 83.9945 61.992 85.2531 60.648H86.6931L87.8931 69H86.4211L85.6051 61.944C85.1038 62.5307 84.6505 63.1173 84.2451 63.704C83.8398 64.2907 83.4718 64.8827 83.1411 65.48C82.8211 66.0667 82.5278 66.6533 82.2611 67.24C81.9945 67.8267 81.7545 68.4133 81.5411 69H80.1651ZM89.125 69L89.509 67.208H90.693L90.309 69H89.125ZM99.8813 57.32L99.1933 59.16H99.6573L99.2733 60.984H97.9293L98.3133 59.16L99.1773 57.32H99.8813ZM101.977 57.32L101.289 59.16H101.753L101.369 60.984H100.025L100.409 59.16L101.273 57.32H101.977ZM105.164 69.16C104.47 69.16 103.878 69.0053 103.388 68.696C102.897 68.376 102.524 67.9493 102.268 67.416C102.012 66.8827 101.884 66.2853 101.884 65.624C101.884 64.952 102.006 64.312 102.252 63.704C102.508 63.0853 102.865 62.536 103.324 62.056C103.782 61.576 104.316 61.1973 104.924 60.92C105.542 60.6427 106.214 60.504 106.94 60.504C107.484 60.504 107.964 60.5893 108.38 60.76C108.806 60.9307 109.137 61.1813 109.372 61.512C109.606 61.8427 109.724 62.2587 109.724 62.76C109.724 63.6027 109.35 64.2427 108.604 64.68C107.857 65.1173 106.71 65.336 105.164 65.336C104.876 65.336 104.545 65.3307 104.172 65.32C103.798 65.2987 103.366 65.2667 102.876 65.224L103.068 64.264C103.537 64.2853 103.937 64.3067 104.268 64.328C104.609 64.3493 104.924 64.36 105.212 64.36C106.022 64.36 106.662 64.2907 107.132 64.152C107.601 64.0133 107.937 63.8213 108.14 63.576C108.353 63.3307 108.46 63.0533 108.46 62.744C108.46 62.4667 108.39 62.2427 108.252 62.072C108.124 61.9013 107.937 61.7733 107.692 61.688C107.457 61.6027 107.174 61.56 106.844 61.56C106.31 61.56 105.825 61.672 105.388 61.896C104.961 62.12 104.588 62.424 104.268 62.808C103.958 63.192 103.718 63.6293 103.548 64.12C103.388 64.6 103.308 65.1013 103.308 65.624C103.308 66.0613 103.382 66.472 103.532 66.856C103.681 67.2293 103.91 67.5333 104.22 67.768C104.529 67.992 104.918 68.104 105.388 68.104C105.878 68.104 106.358 67.9813 106.828 67.736C107.297 67.48 107.665 67.1387 107.932 66.712L109.068 67.048C108.812 67.4533 108.476 67.816 108.06 68.136C107.644 68.456 107.185 68.7067 106.684 68.888C106.193 69.0693 105.686 69.16 105.164 69.16ZM111.933 69.112C111.495 69.112 111.154 69.0053 110.909 68.792C110.663 68.568 110.541 68.2587 110.541 67.864C110.541 67.7787 110.546 67.6933 110.557 67.608C110.578 67.5227 110.594 67.4373 110.605 67.352L112.733 57.32H114.125L112.109 66.84C112.098 66.8933 112.087 66.9467 112.077 67C112.077 67.0427 112.077 67.0907 112.077 67.144C112.077 67.6027 112.317 67.832 112.797 67.832C112.914 67.832 113.053 67.816 113.213 67.784C113.383 67.7413 113.538 67.6933 113.677 67.64L113.629 68.776C113.394 68.872 113.111 68.952 112.781 69.016C112.461 69.08 112.178 69.112 111.933 69.112ZM118.211 69.16C117.517 69.16 116.925 69.0053 116.435 68.696C115.944 68.376 115.571 67.9493 115.315 67.416C115.059 66.8827 114.931 66.2853 114.931 65.624C114.931 64.952 115.053 64.312 115.299 63.704C115.555 63.0853 115.912 62.536 116.371 62.056C116.829 61.576 117.363 61.1973 117.971 60.92C118.589 60.6427 119.261 60.504 119.987 60.504C120.531 60.504 121.011 60.5893 121.427 60.76C121.853 60.9307 122.184 61.1813 122.419 61.512C122.653 61.8427 122.771 62.2587 122.771 62.76C122.771 63.6027 122.397 64.2427 121.651 64.68C120.904 65.1173 119.757 65.336 118.211 65.336C117.923 65.336 117.592 65.3307 117.219 65.32C116.845 65.2987 116.413 65.2667 115.923 65.224L116.115 64.264C116.584 64.2853 116.984 64.3067 117.315 64.328C117.656 64.3493 117.971 64.36 118.259 64.36C119.069 64.36 119.709 64.2907 120.179 64.152C120.648 64.0133 120.984 63.8213 121.187 63.576C121.4 63.3307 121.507 63.0533 121.507 62.744C121.507 62.4667 121.437 62.2427 121.299 62.072C121.171 61.9013 120.984 61.7733 120.739 61.688C120.504 61.6027 120.221 61.56 119.891 61.56C119.357 61.56 118.872 61.672 118.435 61.896C118.008 62.12 117.635 62.424 117.315 62.808C117.005 63.192 116.765 63.6293 116.595 64.12C116.435 64.6 116.355 65.1013 116.355 65.624C116.355 66.0613 116.429 66.472 116.579 66.856C116.728 67.2293 116.957 67.5333 117.267 67.768C117.576 67.992 117.965 68.104 118.435 68.104C118.925 68.104 119.405 67.9813 119.875 67.736C120.344 67.48 120.712 67.1387 120.979 66.712L122.115 67.048C121.859 67.4533 121.523 67.816 121.107 68.136C120.691 68.456 120.232 68.7067 119.731 68.888C119.24 69.0693 118.733 69.16 118.211 69.16ZM126.82 69.16C126.116 69.16 125.518 69 125.028 68.68C124.548 68.36 124.18 67.9333 123.924 67.4C123.668 66.8667 123.54 66.2747 123.54 65.624C123.54 64.952 123.668 64.312 123.924 63.704C124.18 63.0853 124.532 62.536 124.98 62.056C125.438 61.576 125.972 61.1973 126.58 60.92C127.198 60.6427 127.865 60.504 128.58 60.504C129.401 60.504 130.057 60.6907 130.548 61.064C131.049 61.4267 131.38 61.9173 131.54 62.536L130.084 62.968C129.956 62.5627 129.742 62.2533 129.444 62.04C129.145 61.8267 128.777 61.72 128.34 61.72C127.913 61.72 127.497 61.816 127.092 62.008C126.697 62.2 126.34 62.472 126.02 62.824C125.71 63.1653 125.46 63.56 125.268 64.008C125.086 64.456 124.996 64.936 124.996 65.448C124.996 65.928 125.081 66.3547 125.252 66.728C125.422 67.1013 125.657 67.4 125.956 67.624C126.265 67.8373 126.617 67.944 127.012 67.944C127.321 67.944 127.63 67.8853 127.94 67.768C128.249 67.6507 128.526 67.496 128.772 67.304C129.028 67.1013 129.22 66.8827 129.348 66.648L130.644 67.064C130.398 67.4693 130.073 67.832 129.668 68.152C129.273 68.4613 128.83 68.7067 128.34 68.888C127.849 69.0693 127.342 69.16 126.82 69.16ZM132.456 67.832C132.456 67.7573 132.461 67.6827 132.472 67.608C132.482 67.5227 132.493 67.4427 132.504 67.368L133.704 61.752H132.616L132.856 60.648H133.928L134.52 57.864H135.928L135.336 60.648H137.112L136.872 61.752H135.112L134.008 66.936C133.997 66.9787 133.986 67.0213 133.976 67.064C133.976 67.096 133.976 67.1333 133.976 67.176C133.976 67.4 134.045 67.5653 134.184 67.672C134.322 67.768 134.493 67.816 134.696 67.816C134.877 67.816 135.048 67.7947 135.208 67.752C135.378 67.6987 135.528 67.6453 135.656 67.592C135.784 67.5387 135.88 67.496 135.944 67.464L136.024 68.584C135.896 68.6693 135.725 68.7547 135.512 68.84C135.298 68.9253 135.058 68.9893 134.792 69.032C134.525 69.0853 134.248 69.112 133.96 69.112C133.533 69.112 133.176 69.0107 132.888 68.808C132.6 68.5947 132.456 68.2693 132.456 67.832ZM138.95 60.648H140.262L139.846 62.584C140.251 62.008 140.71 61.5387 141.222 61.176C141.744 60.8133 142.262 60.632 142.774 60.632C142.87 60.632 142.95 60.6373 143.014 60.648C143.088 60.648 143.147 60.6533 143.19 60.664L142.934 61.88C142.272 61.8907 141.648 62.072 141.062 62.424C140.475 62.7653 140.011 63.24 139.67 63.848L138.582 69H137.174L138.95 60.648ZM146.258 69.16C145.511 69.16 144.892 69 144.402 68.68C143.911 68.36 143.543 67.9333 143.298 67.4C143.063 66.8667 142.946 66.28 142.946 65.64C142.946 64.936 143.074 64.2747 143.33 63.656C143.586 63.0373 143.938 62.4933 144.386 62.024C144.844 61.544 145.372 61.1707 145.97 60.904C146.567 60.6373 147.202 60.504 147.874 60.504C148.62 60.504 149.239 60.664 149.73 60.984C150.231 61.304 150.604 61.7307 150.85 62.264C151.095 62.7973 151.218 63.3893 151.218 64.04C151.218 64.7333 151.09 65.3893 150.834 66.008C150.578 66.6267 150.22 67.176 149.762 67.656C149.303 68.1253 148.775 68.4933 148.178 68.76C147.58 69.0267 146.94 69.16 146.258 69.16ZM146.498 67.944C146.914 67.944 147.314 67.8533 147.698 67.672C148.092 67.4907 148.439 67.2347 148.738 66.904C149.047 66.5627 149.292 66.168 149.474 65.72C149.655 65.272 149.746 64.7813 149.746 64.248C149.746 63.7573 149.666 63.3253 149.506 62.952C149.346 62.568 149.111 62.2693 148.802 62.056C148.492 61.832 148.108 61.72 147.65 61.72C147.234 61.72 146.834 61.816 146.45 62.008C146.066 62.1893 145.719 62.4507 145.41 62.792C145.1 63.1227 144.855 63.5173 144.674 63.976C144.492 64.424 144.402 64.9147 144.402 65.448C144.402 65.928 144.482 66.36 144.642 66.744C144.802 67.1173 145.036 67.4107 145.346 67.624C145.666 67.8373 146.05 67.944 146.498 67.944ZM153.7 60.648H154.98L154.596 62.44C154.884 62.0453 155.225 61.704 155.62 61.416C156.025 61.128 156.457 60.904 156.916 60.744C157.374 60.584 157.833 60.504 158.292 60.504C158.74 60.504 159.097 60.5893 159.364 60.76C159.63 60.92 159.822 61.1493 159.94 61.448C160.057 61.736 160.116 62.0773 160.116 62.472C160.116 62.7067 160.094 62.952 160.052 63.208C160.02 63.464 159.977 63.7307 159.924 64.008L158.868 69H157.46L158.452 64.328C158.505 64.0933 158.542 63.88 158.564 63.688C158.585 63.4853 158.596 63.2987 158.596 63.128C158.596 62.6587 158.5 62.3173 158.308 62.104C158.116 61.88 157.833 61.768 157.46 61.768C157.108 61.768 156.734 61.864 156.34 62.056C155.945 62.248 155.577 62.5093 155.236 62.84C154.894 63.16 154.617 63.5333 154.404 63.96L153.332 69H151.924L153.7 60.648ZM162.778 60.648H164.186L162.41 69H161.002L162.778 60.648ZM163.482 57.32H164.89L164.522 59.08H163.114L163.482 57.32ZM168.163 69.16C167.459 69.16 166.862 69 166.371 68.68C165.891 68.36 165.523 67.9333 165.267 67.4C165.011 66.8667 164.883 66.2747 164.883 65.624C164.883 64.952 165.011 64.312 165.267 63.704C165.523 63.0853 165.875 62.536 166.323 62.056C166.782 61.576 167.315 61.1973 167.923 60.92C168.542 60.6427 169.209 60.504 169.923 60.504C170.745 60.504 171.401 60.6907 171.891 61.064C172.393 61.4267 172.723 61.9173 172.883 62.536L171.427 62.968C171.299 62.5627 171.086 62.2533 170.787 62.04C170.489 61.8267 170.121 61.72 169.683 61.72C169.257 61.72 168.841 61.816 168.435 62.008C168.041 62.2 167.683 62.472 167.363 62.824C167.054 63.1653 166.803 63.56 166.611 64.008C166.43 64.456 166.339 64.936 166.339 65.448C166.339 65.928 166.425 66.3547 166.595 66.728C166.766 67.1013 167.001 67.4 167.299 67.624C167.609 67.8373 167.961 67.944 168.355 67.944C168.665 67.944 168.974 67.8853 169.283 67.768C169.593 67.6507 169.87 67.496 170.115 67.304C170.371 67.1013 170.563 66.8827 170.691 66.648L171.987 67.064C171.742 67.4693 171.417 67.832 171.011 68.152C170.617 68.4613 170.174 68.7067 169.683 68.888C169.193 69.0693 168.686 69.16 168.163 69.16ZM176.7 60.984L177.388 59.144H176.924L177.308 57.32H178.652L178.268 59.144L177.404 60.984H176.7ZM174.604 60.984L175.292 59.144H174.828L175.212 57.32H176.556L176.172 59.144L175.308 60.984H174.604ZM182.565 65.272L182.837 63.992H187.333L187.061 65.272H182.565ZM48.8284 90.144C48.2951 90.144 47.7991 90.064 47.3404 89.904C46.8924 89.744 46.5031 89.5147 46.1724 89.216C45.8418 88.9173 45.6018 88.5547 45.4524 88.128L46.6684 87.6C46.8498 88.08 47.1431 88.4373 47.5484 88.672C47.9538 88.896 48.4178 89.008 48.9404 89.008C49.3458 89.008 49.7351 88.928 50.1084 88.768C50.4924 88.5973 50.8391 88.368 51.1484 88.08C51.4684 87.7813 51.7298 87.44 51.9324 87.056C52.1458 86.6613 52.2898 86.2453 52.3644 85.808C52.4604 85.168 52.4178 84.6133 52.2364 84.144C52.0551 83.6747 51.7671 83.312 51.3724 83.056C50.9778 82.7893 50.5031 82.656 49.9484 82.656C49.4791 82.656 49.0204 82.7573 48.5724 82.96C48.1244 83.1627 47.7244 83.504 47.3724 83.984L46.3804 83.424C46.7858 82.848 47.3084 82.384 47.9484 82.032C48.5884 81.68 49.3138 81.504 50.1244 81.504C50.8071 81.504 51.3938 81.6267 51.8844 81.872C52.3751 82.1067 52.7644 82.432 53.0524 82.848C53.3511 83.2533 53.5538 83.712 53.6604 84.224C53.7671 84.736 53.7778 85.2587 53.6924 85.792C53.5964 86.3467 53.4151 86.8853 53.1484 87.408C52.8818 87.92 52.5404 88.384 52.1244 88.8C51.7084 89.2053 51.2231 89.5307 50.6684 89.776C50.1138 90.0213 49.5004 90.144 48.8284 90.144ZM48.5244 86.272L48.7644 85.184H52.9884L52.7644 86.272H48.5244ZM54.0792 90C54.5485 88.6027 55.1992 87.2 56.0312 85.792C56.8632 84.3733 57.9085 82.992 59.1672 81.648H60.6072L61.8072 90H60.3352L59.5192 82.944C59.0179 83.5307 58.5645 84.1173 58.1592 84.704C57.7539 85.2907 57.3859 85.8827 57.0552 86.48C56.7352 87.0667 56.4419 87.6533 56.1752 88.24C55.9085 88.8267 55.6685 89.4133 55.4552 90H54.0792ZM67.1191 90.16C66.2764 90.16 65.5777 89.9627 65.0231 89.568C64.4791 89.1627 64.0897 88.6293 63.8551 87.968C63.6311 87.3067 63.5724 86.5867 63.6791 85.808C63.7644 85.2213 63.9404 84.672 64.2071 84.16C64.4844 83.6373 64.8364 83.1787 65.2631 82.784C65.6897 82.3787 66.1751 82.064 66.7191 81.84C67.2737 81.616 67.8657 81.504 68.4951 81.504C69.0071 81.504 69.4817 81.5893 69.9191 81.76C70.3564 81.92 70.7084 82.1707 70.9751 82.512C71.2417 82.8427 71.3751 83.2587 71.3751 83.76C71.3751 84.6027 71.0177 85.2533 70.3031 85.712C69.5991 86.16 68.4684 86.384 66.9111 86.384C66.5164 86.384 66.1004 86.3787 65.6631 86.368C65.2257 86.3467 64.7511 86.3147 64.2391 86.272L64.5111 85.232C64.9591 85.264 65.3697 85.2907 65.7431 85.312C66.1271 85.3227 66.5057 85.328 66.8791 85.328C67.6684 85.328 68.2817 85.264 68.7191 85.136C69.1671 85.008 69.4817 84.832 69.6631 84.608C69.8444 84.3733 69.9244 84.1013 69.9031 83.792C69.8924 83.5467 69.8124 83.3387 69.6631 83.168C69.5244 82.9973 69.3324 82.8693 69.0871 82.784C68.8524 82.6987 68.5857 82.656 68.2871 82.656C67.8924 82.656 67.5137 82.736 67.1511 82.896C66.7884 83.0453 66.4577 83.264 66.1591 83.552C65.8711 83.84 65.6257 84.176 65.4231 84.56C65.2311 84.944 65.1031 85.36 65.0391 85.808C64.9537 86.4267 64.9857 86.9813 65.1351 87.472C65.2844 87.952 65.5457 88.3307 65.9191 88.608C66.2924 88.8747 66.7617 89.008 67.3271 89.008C67.7217 89.008 68.0631 88.9547 68.3511 88.848C68.6391 88.7307 68.8737 88.5973 69.0551 88.448C69.2471 88.288 69.3857 88.1547 69.4711 88.048C69.5671 87.9307 69.6151 87.872 69.6151 87.872L70.8311 88.272C70.8311 88.272 70.7617 88.368 70.6231 88.56C70.4844 88.752 70.2657 88.9707 69.9671 89.216C69.6684 89.4613 69.2844 89.68 68.8151 89.872C68.3457 90.064 67.7804 90.16 67.1191 90.16ZM72.1533 90L73.9133 81.648H75.3213L74.5693 85.184H75.6893C76.276 84.8213 76.82 84.336 77.3213 83.728C77.8226 83.1093 78.3026 82.416 78.7613 81.648H80.2333C79.6786 82.5653 79.1133 83.3653 78.5373 84.048C77.972 84.7307 77.3853 85.2907 76.7773 85.728L79.0013 90H77.4653L75.5613 86.288H74.3293L73.5453 90H72.1533ZM81.9263 81.648H83.2063L82.8223 83.44C83.249 82.8427 83.761 82.3733 84.3583 82.032C84.9556 81.68 85.5636 81.504 86.1823 81.504C86.5983 81.504 86.945 81.584 87.2223 81.744C87.5103 81.904 87.729 82.1333 87.8783 82.432C88.0276 82.7307 88.1076 83.0987 88.1183 83.536C88.449 83.088 88.7956 82.7147 89.1583 82.416C89.521 82.1173 89.905 81.8933 90.3103 81.744C90.7156 81.584 91.1263 81.504 91.5423 81.504C92.001 81.504 92.3636 81.5893 92.6303 81.76C92.897 81.9307 93.089 82.1707 93.2063 82.48C93.3343 82.7787 93.3983 83.1307 93.3983 83.536C93.3983 83.76 93.3823 83.9947 93.3503 84.24C93.3183 84.4853 93.2756 84.7413 93.2223 85.008L92.1503 90H90.7423L91.7343 85.328C91.8303 84.88 91.8783 84.4907 91.8783 84.16C91.8783 83.6907 91.777 83.344 91.5743 83.12C91.3823 82.8853 91.0996 82.768 90.7263 82.768C90.3743 82.768 90.0223 82.864 89.6703 83.056C89.3183 83.2373 88.9876 83.4933 88.6783 83.824C88.3796 84.1547 88.1236 84.5387 87.9103 84.976L86.8543 90H85.4463L86.4383 85.328C86.4916 85.0933 86.529 84.88 86.5503 84.688C86.5716 84.496 86.5823 84.3147 86.5823 84.144C86.5823 83.6747 86.4863 83.328 86.2943 83.104C86.1023 82.88 85.8196 82.768 85.4463 82.768C84.9236 82.768 84.401 82.9707 83.8783 83.376C83.3663 83.7707 82.9503 84.2987 82.6303 84.96L81.5583 90H80.1503L81.9263 81.648ZM96.0513 81.648H97.2993L96.9633 83.216C97.39 82.704 97.886 82.2933 98.4513 81.984C99.0273 81.664 99.614 81.504 100.211 81.504C100.83 81.504 101.358 81.664 101.795 81.984C102.233 82.304 102.569 82.7307 102.803 83.264C103.038 83.7867 103.155 84.3627 103.155 84.992C103.155 85.6533 103.033 86.2933 102.787 86.912C102.542 87.5307 102.206 88.0853 101.779 88.576C101.353 89.0667 100.862 89.456 100.307 89.744C99.7633 90.0213 99.182 90.16 98.5633 90.16C97.9126 90.16 97.374 89.9893 96.9473 89.648C96.5206 89.3067 96.2166 88.8747 96.0353 88.352L94.9633 93.408H93.5553L96.0513 81.648ZM98.3873 88.944C98.8353 88.944 99.2566 88.8373 99.6513 88.624C100.046 88.4 100.393 88.112 100.691 87.76C101.001 87.3973 101.241 86.9973 101.411 86.56C101.593 86.112 101.683 85.664 101.683 85.216C101.683 84.7573 101.598 84.3413 101.427 83.968C101.257 83.584 101.011 83.28 100.691 83.056C100.382 82.832 100.014 82.72 99.5873 82.72C99.3526 82.72 99.0966 82.768 98.8193 82.864C98.5526 82.96 98.286 83.0987 98.0193 83.28C97.7526 83.4507 97.5126 83.648 97.2993 83.872C97.0966 84.096 96.942 84.336 96.8353 84.592L96.3233 86.976C96.398 87.3387 96.526 87.6693 96.7073 87.968C96.8993 88.2667 97.1393 88.5067 97.4273 88.688C97.7153 88.8587 98.0353 88.944 98.3873 88.944ZM106.269 90.16C104.968 90.16 104.317 89.456 104.317 88.048C104.317 87.8453 104.333 87.632 104.365 87.408C104.397 87.1733 104.44 86.9227 104.493 86.656L105.565 81.648H106.957L105.949 86.384C105.853 86.8107 105.805 87.1787 105.805 87.488C105.805 88.4587 106.221 88.944 107.053 88.944C107.416 88.944 107.778 88.864 108.141 88.704C108.504 88.5333 108.85 88.2933 109.181 87.984C109.522 87.6747 109.816 87.3067 110.061 86.88L111.165 81.648H112.573L111.165 88.272C111.154 88.3147 111.144 88.352 111.133 88.384C111.133 88.416 111.133 88.448 111.133 88.48C111.133 88.672 111.25 88.7733 111.485 88.784L111.229 90C111.112 90.0107 111.005 90.0213 110.909 90.032C110.824 90.0533 110.744 90.064 110.669 90.064C110.381 90.064 110.162 90 110.013 89.872C109.864 89.744 109.789 89.5733 109.789 89.36C109.789 89.296 109.794 89.2213 109.805 89.136C109.816 89.04 109.832 88.9173 109.853 88.768C109.885 88.6187 109.922 88.432 109.965 88.208C109.485 88.8267 108.92 89.3067 108.269 89.648C107.618 89.9893 106.952 90.16 106.269 90.16ZM118.015 90L118.751 86.656C118.389 86.816 118.021 86.9333 117.647 87.008C117.285 87.0827 116.89 87.12 116.463 87.12C115.557 87.12 114.895 86.8853 114.479 86.416C114.063 85.936 113.957 85.2213 114.159 84.272L114.735 81.648H116.159L115.615 84.08C115.477 84.7627 115.535 85.2587 115.791 85.568C116.047 85.8773 116.469 86.032 117.055 86.032C117.397 86.032 117.743 85.9947 118.095 85.92C118.447 85.8347 118.741 85.728 118.975 85.6L119.823 81.648H121.231L119.455 90H118.015ZM125.525 90.16C124.683 90.16 123.984 89.9627 123.429 89.568C122.885 89.1627 122.496 88.6293 122.261 87.968C122.037 87.3067 121.979 86.5867 122.085 85.808C122.171 85.2213 122.347 84.672 122.613 84.16C122.891 83.6373 123.243 83.1787 123.669 82.784C124.096 82.3787 124.581 82.064 125.125 81.84C125.68 81.616 126.272 81.504 126.901 81.504C127.413 81.504 127.888 81.5893 128.325 81.76C128.763 81.92 129.115 82.1707 129.381 82.512C129.648 82.8427 129.781 83.2587 129.781 83.76C129.781 84.6027 129.424 85.2533 128.709 85.712C128.005 86.16 126.875 86.384 125.317 86.384C124.923 86.384 124.507 86.3787 124.069 86.368C123.632 86.3467 123.157 86.3147 122.645 86.272L122.917 85.232C123.365 85.264 123.776 85.2907 124.149 85.312C124.533 85.3227 124.912 85.328 125.285 85.328C126.075 85.328 126.688 85.264 127.125 85.136C127.573 85.008 127.888 84.832 128.069 84.608C128.251 84.3733 128.331 84.1013 128.309 83.792C128.299 83.5467 128.219 83.3387 128.069 83.168C127.931 82.9973 127.739 82.8693 127.493 82.784C127.259 82.6987 126.992 82.656 126.693 82.656C126.299 82.656 125.92 82.736 125.557 82.896C125.195 83.0453 124.864 83.264 124.565 83.552C124.277 83.84 124.032 84.176 123.829 84.56C123.637 84.944 123.509 85.36 123.445 85.808C123.36 86.4267 123.392 86.9813 123.541 87.472C123.691 87.952 123.952 88.3307 124.325 88.608C124.699 88.8747 125.168 89.008 125.733 89.008C126.128 89.008 126.469 88.9547 126.757 88.848C127.045 88.7307 127.28 88.5973 127.461 88.448C127.653 88.288 127.792 88.1547 127.877 88.048C127.973 87.9307 128.021 87.872 128.021 87.872L129.237 88.272C129.237 88.272 129.168 88.368 129.029 88.56C128.891 88.752 128.672 88.9707 128.373 89.216C128.075 89.4613 127.691 89.68 127.221 89.872C126.752 90.064 126.187 90.16 125.525 90.16ZM133.984 90.16C133.28 90.16 132.682 90 132.192 89.68C131.712 89.36 131.344 88.9333 131.088 88.4C130.832 87.8667 130.704 87.2747 130.704 86.624C130.704 85.952 130.832 85.312 131.088 84.704C131.344 84.0853 131.696 83.536 132.144 83.056C132.602 82.576 133.136 82.1973 133.744 81.92C134.362 81.6427 135.029 81.504 135.744 81.504C136.565 81.504 137.221 81.6907 137.712 82.064C138.213 82.4267 138.544 82.9173 138.704 83.536L137.248 83.968C137.12 83.5627 136.906 83.2533 136.608 83.04C136.309 82.8267 135.941 82.72 135.504 82.72C135.077 82.72 134.661 82.816 134.256 83.008C133.861 83.2 133.504 83.472 133.184 83.824C132.874 84.1653 132.624 84.56 132.432 85.008C132.25 85.456 132.16 85.936 132.16 86.448C132.16 86.928 132.245 87.3547 132.416 87.728C132.586 88.1013 132.821 88.4 133.12 88.624C133.429 88.8373 133.781 88.944 134.176 88.944C134.485 88.944 134.794 88.8853 135.104 88.768C135.413 88.6507 135.69 88.496 135.936 88.304C136.192 88.1013 136.384 87.8827 136.512 87.648L137.808 88.064C137.562 88.4693 137.237 88.832 136.832 89.152C136.437 89.4613 135.994 89.7067 135.504 89.888C135.013 90.0693 134.506 90.16 133.984 90.16ZM139.06 90L140.82 81.648H142.228L141.476 85.184H142.596C143.182 84.8213 143.726 84.336 144.228 83.728C144.729 83.1093 145.209 82.416 145.668 81.648H147.14C146.585 82.5653 146.02 83.3653 145.444 84.048C144.878 84.7307 144.292 85.2907 143.684 85.728L145.908 90H144.372L142.468 86.288H141.236L140.452 90H139.06ZM151.092 90.16C150.26 90.16 149.556 89.9627 148.98 89.568C148.404 89.1627 147.982 88.6347 147.716 87.984C147.46 87.3227 147.385 86.608 147.492 85.84C147.577 85.2533 147.753 84.6987 148.02 84.176C148.297 83.6533 148.649 83.1947 149.076 82.8C149.513 82.3947 150.004 82.08 150.548 81.856C151.102 81.6213 151.689 81.504 152.308 81.504C153.14 81.504 153.844 81.7067 154.42 82.112C154.996 82.5067 155.417 83.0347 155.684 83.696C155.95 84.3467 156.03 85.0613 155.924 85.84C155.849 86.416 155.673 86.9653 155.396 87.488C155.129 88.0107 154.782 88.4747 154.356 88.88C153.929 89.2747 153.438 89.5893 152.884 89.824C152.329 90.048 151.732 90.16 151.092 90.16ZM151.252 89.008C151.636 89.008 152.004 88.928 152.356 88.768C152.718 88.5973 153.044 88.3627 153.332 88.064C153.63 87.7653 153.876 87.424 154.068 87.04C154.27 86.656 154.404 86.2507 154.468 85.824C154.553 85.2373 154.505 84.704 154.324 84.224C154.142 83.744 153.865 83.3653 153.492 83.088C153.118 82.8 152.67 82.656 152.148 82.656C151.764 82.656 151.396 82.7413 151.044 82.912C150.692 83.072 150.366 83.296 150.068 83.584C149.769 83.872 149.524 84.2133 149.332 84.608C149.14 84.992 149.012 85.408 148.948 85.856C148.873 86.4427 148.926 86.976 149.108 87.456C149.289 87.936 149.566 88.3147 149.94 88.592C150.313 88.8693 150.75 89.008 151.252 89.008ZM160.697 90.16C159.855 90.16 159.156 89.9627 158.601 89.568C158.057 89.1627 157.668 88.6293 157.433 87.968C157.209 87.3067 157.151 86.5867 157.257 85.808C157.343 85.2213 157.519 84.672 157.785 84.16C158.063 83.6373 158.415 83.1787 158.841 82.784C159.268 82.3787 159.753 82.064 160.297 81.84C160.852 81.616 161.444 81.504 162.073 81.504C162.585 81.504 163.06 81.5893 163.497 81.76C163.935 81.92 164.287 82.1707 164.553 82.512C164.82 82.8427 164.953 83.2587 164.953 83.76C164.953 84.6027 164.596 85.2533 163.881 85.712C163.177 86.16 162.047 86.384 160.489 86.384C160.095 86.384 159.679 86.3787 159.241 86.368C158.804 86.3467 158.329 86.3147 157.817 86.272L158.089 85.232C158.537 85.264 158.948 85.2907 159.321 85.312C159.705 85.3227 160.084 85.328 160.457 85.328C161.247 85.328 161.86 85.264 162.297 85.136C162.745 85.008 163.06 84.832 163.241 84.608C163.423 84.3733 163.503 84.1013 163.481 83.792C163.471 83.5467 163.391 83.3387 163.241 83.168C163.103 82.9973 162.911 82.8693 162.665 82.784C162.431 82.6987 162.164 82.656 161.865 82.656C161.471 82.656 161.092 82.736 160.729 82.896C160.367 83.0453 160.036 83.264 159.737 83.552C159.449 83.84 159.204 84.176 159.001 84.56C158.809 84.944 158.681 85.36 158.617 85.808C158.532 86.4267 158.564 86.9813 158.713 87.472C158.863 87.952 159.124 88.3307 159.497 88.608C159.871 88.8747 160.34 89.008 160.905 89.008C161.3 89.008 161.641 88.9547 161.929 88.848C162.217 88.7307 162.452 88.5973 162.633 88.448C162.825 88.288 162.964 88.1547 163.049 88.048C163.145 87.9307 163.193 87.872 163.193 87.872L164.409 88.272C164.409 88.272 164.34 88.368 164.201 88.56C164.063 88.752 163.844 88.9707 163.545 89.216C163.247 89.4613 162.863 89.68 162.393 89.872C161.924 90.064 161.359 90.16 160.697 90.16ZM165.411 91.296L166.035 89.872H165.555L165.907 88.208H167.219L166.867 89.872L166.099 91.296H165.411ZM51.3344 99.32L50.6464 101.16H51.1104L50.7264 102.984H49.3824L49.7664 101.16L50.6304 99.32H51.3344ZM53.4304 99.32L52.7424 101.16H53.2064L52.8224 102.984H51.4784L51.8624 101.16L52.7264 99.32H53.4304ZM55.685 99.32H57.093L56.005 104.44C56.4423 103.843 56.965 103.373 57.573 103.032C58.1917 102.68 58.8157 102.504 59.445 102.504C59.9143 102.504 60.2877 102.595 60.565 102.776C60.853 102.947 61.0557 103.187 61.173 103.496C61.301 103.805 61.365 104.168 61.365 104.584C61.365 104.797 61.349 105.027 61.317 105.272C61.2957 105.507 61.2583 105.752 61.205 106.008L60.149 111H58.741L59.733 106.328C59.7757 106.115 59.8077 105.923 59.829 105.752C59.8503 105.571 59.861 105.4 59.861 105.24C59.861 104.749 59.7543 104.381 59.541 104.136C59.3383 103.891 59.0343 103.768 58.629 103.768C58.2983 103.768 57.941 103.864 57.557 104.056C57.1837 104.248 56.8263 104.509 56.485 104.84C56.1543 105.16 55.8877 105.533 55.685 105.96L54.613 111H53.205L55.685 99.32ZM65.8511 111.16C65.1578 111.16 64.5658 111.005 64.0751 110.696C63.5845 110.376 63.2111 109.949 62.9551 109.416C62.6991 108.883 62.5711 108.285 62.5711 107.624C62.5711 106.952 62.6938 106.312 62.9391 105.704C63.1951 105.085 63.5525 104.536 64.0111 104.056C64.4698 103.576 65.0031 103.197 65.6111 102.92C66.2298 102.643 66.9018 102.504 67.6271 102.504C68.1711 102.504 68.6511 102.589 69.0671 102.76C69.4938 102.931 69.8245 103.181 70.0591 103.512C70.2938 103.843 70.4111 104.259 70.4111 104.76C70.4111 105.603 70.0378 106.243 69.2911 106.68C68.5445 107.117 67.3978 107.336 65.8511 107.336C65.5631 107.336 65.2325 107.331 64.8591 107.32C64.4858 107.299 64.0538 107.267 63.5631 107.224L63.7551 106.264C64.2245 106.285 64.6245 106.307 64.9551 106.328C65.2965 106.349 65.6111 106.36 65.8991 106.36C66.7098 106.36 67.3498 106.291 67.8191 106.152C68.2885 106.013 68.6245 105.821 68.8271 105.576C69.0405 105.331 69.1471 105.053 69.1471 104.744C69.1471 104.467 69.0778 104.243 68.9391 104.072C68.8111 103.901 68.6245 103.773 68.3791 103.688C68.1445 103.603 67.8618 103.56 67.5311 103.56C66.9978 103.56 66.5125 103.672 66.0751 103.896C65.6485 104.12 65.2751 104.424 64.9551 104.808C64.6458 105.192 64.4058 105.629 64.2351 106.12C64.0751 106.6 63.9951 107.101 63.9951 107.624C63.9951 108.061 64.0698 108.472 64.2191 108.856C64.3685 109.229 64.5978 109.533 64.9071 109.768C65.2165 109.992 65.6058 110.104 66.0751 110.104C66.5658 110.104 67.0458 109.981 67.5151 109.736C67.9845 109.48 68.3525 109.139 68.6191 108.712L69.7551 109.048C69.4991 109.453 69.1631 109.816 68.7471 110.136C68.3311 110.456 67.8725 110.707 67.3711 110.888C66.8805 111.069 66.3738 111.16 65.8511 111.16ZM74.1561 111.16C73.5375 111.16 73.0041 111.005 72.5561 110.696C72.1081 110.376 71.7668 109.955 71.5321 109.432C71.2975 108.899 71.1801 108.317 71.1801 107.688C71.1801 107.016 71.3028 106.371 71.5481 105.752C71.8041 105.133 72.1455 104.584 72.5721 104.104C73.0095 103.613 73.5055 103.224 74.0601 102.936C74.6148 102.648 75.1961 102.504 75.8041 102.504C76.4441 102.504 76.9775 102.68 77.4041 103.032C77.8308 103.384 78.1295 103.811 78.3001 104.312L78.6681 102.648H80.0761L78.6681 109.272C78.6575 109.315 78.6468 109.352 78.6361 109.384C78.6361 109.416 78.6361 109.448 78.6361 109.48C78.6361 109.672 78.7535 109.773 78.9881 109.784L78.7321 111C78.6148 111.011 78.5081 111.021 78.4121 111.032C78.3268 111.053 78.2468 111.064 78.1721 111.064C77.8735 111.064 77.6441 110.995 77.4841 110.856C77.3348 110.717 77.2601 110.547 77.2601 110.344C77.2601 110.28 77.2655 110.205 77.2761 110.12C77.2868 110.035 77.3028 109.933 77.3241 109.816C77.3455 109.699 77.3721 109.571 77.4041 109.432C76.9881 109.965 76.4815 110.387 75.8841 110.696C75.2975 111.005 74.7215 111.16 74.1561 111.16ZM74.7641 109.944C74.9988 109.944 75.2495 109.896 75.5161 109.8C75.7935 109.704 76.0601 109.571 76.3161 109.4C76.5828 109.229 76.8228 109.032 77.0361 108.808C77.2495 108.573 77.4095 108.328 77.5161 108.072L78.0121 105.672C77.9695 105.309 77.8468 104.984 77.6441 104.696C77.4415 104.397 77.1908 104.163 76.8921 103.992C76.6041 103.811 76.2948 103.72 75.9641 103.72C75.5161 103.72 75.0948 103.832 74.7001 104.056C74.3055 104.269 73.9535 104.557 73.6441 104.92C73.3455 105.283 73.1055 105.688 72.9241 106.136C72.7535 106.573 72.6681 107.016 72.6681 107.464C72.6681 107.923 72.7535 108.339 72.9241 108.712C73.0948 109.085 73.3348 109.384 73.6441 109.608C73.9641 109.832 74.3375 109.944 74.7641 109.944ZM82.3873 102.648H83.6993L83.2833 104.584C83.6886 104.008 84.1473 103.539 84.6593 103.176C85.1819 102.813 85.6993 102.632 86.2113 102.632C86.3073 102.632 86.3873 102.637 86.4513 102.648C86.5259 102.648 86.5846 102.653 86.6273 102.664L86.3713 103.88C85.7099 103.891 85.0859 104.072 84.4993 104.424C83.9126 104.765 83.4486 105.24 83.1073 105.848L82.0193 111H80.6113L82.3873 102.648ZM86.9555 109.832C86.9555 109.757 86.9608 109.683 86.9715 109.608C86.9822 109.523 86.9928 109.443 87.0035 109.368L88.2035 103.752H87.1155L87.3555 102.648H88.4275L89.0195 99.864H90.4275L89.8355 102.648H91.6115L91.3715 103.752H89.6115L88.5075 108.936C88.4968 108.979 88.4862 109.021 88.4755 109.064C88.4755 109.096 88.4755 109.133 88.4755 109.176C88.4755 109.4 88.5448 109.565 88.6835 109.672C88.8222 109.768 88.9928 109.816 89.1955 109.816C89.3768 109.816 89.5475 109.795 89.7075 109.752C89.8782 109.699 90.0275 109.645 90.1555 109.592C90.2835 109.539 90.3795 109.496 90.4435 109.464L90.5235 110.584C90.3955 110.669 90.2248 110.755 90.0115 110.84C89.7982 110.925 89.5582 110.989 89.2915 111.032C89.0248 111.085 88.7475 111.112 88.4595 111.112C88.0328 111.112 87.6755 111.011 87.3875 110.808C87.0995 110.595 86.9555 110.269 86.9555 109.832ZM95.4658 102.984L96.1538 101.144H95.6898L96.0738 99.32H97.4178L97.0338 101.144L96.1698 102.984H95.4658ZM93.3698 102.984L94.0578 101.144H93.5938L93.9778 99.32H95.3218L94.9378 101.144L94.0738 102.984H93.3698ZM101.331 107.272L101.603 105.992H106.099L105.827 107.272H101.331ZM114.648 111.16C113.944 111.16 113.346 111 112.856 110.68C112.376 110.36 112.008 109.933 111.752 109.4C111.496 108.867 111.368 108.275 111.368 107.624C111.368 106.952 111.496 106.312 111.752 105.704C112.008 105.085 112.36 104.536 112.808 104.056C113.266 103.576 113.8 103.197 114.408 102.92C115.026 102.643 115.693 102.504 116.408 102.504C117.229 102.504 117.885 102.691 118.376 103.064C118.877 103.427 119.208 103.917 119.368 104.536L117.912 104.968C117.784 104.563 117.57 104.253 117.272 104.04C116.973 103.827 116.605 103.72 116.168 103.72C115.741 103.72 115.325 103.816 114.92 104.008C114.525 104.2 114.168 104.472 113.848 104.824C113.538 105.165 113.288 105.56 113.096 106.008C112.914 106.456 112.824 106.936 112.824 107.448C112.824 107.928 112.909 108.355 113.08 108.728C113.25 109.101 113.485 109.4 113.784 109.624C114.093 109.837 114.445 109.944 114.84 109.944C115.149 109.944 115.458 109.885 115.768 109.768C116.077 109.651 116.354 109.496 116.6 109.304C116.856 109.101 117.048 108.883 117.176 108.648L118.472 109.064C118.226 109.469 117.901 109.832 117.496 110.152C117.101 110.461 116.658 110.707 116.168 110.888C115.677 111.069 115.17 111.16 114.648 111.16ZM123.596 111.16C122.753 111.16 122.054 110.963 121.5 110.568C120.956 110.163 120.566 109.629 120.332 108.968C120.108 108.307 120.049 107.587 120.156 106.808C120.241 106.221 120.417 105.672 120.684 105.16C120.961 104.637 121.313 104.179 121.74 103.784C122.166 103.379 122.652 103.064 123.196 102.84C123.75 102.616 124.342 102.504 124.972 102.504C125.484 102.504 125.958 102.589 126.396 102.76C126.833 102.92 127.185 103.171 127.452 103.512C127.718 103.843 127.852 104.259 127.852 104.76C127.852 105.603 127.494 106.253 126.78 106.712C126.076 107.16 124.945 107.384 123.388 107.384C122.993 107.384 122.577 107.379 122.14 107.368C121.702 107.347 121.228 107.315 120.716 107.272L120.988 106.232C121.436 106.264 121.846 106.291 122.22 106.312C122.604 106.323 122.982 106.328 123.356 106.328C124.145 106.328 124.758 106.264 125.196 106.136C125.644 106.008 125.958 105.832 126.14 105.608C126.321 105.373 126.401 105.101 126.38 104.792C126.369 104.547 126.289 104.339 126.14 104.168C126.001 103.997 125.809 103.869 125.564 103.784C125.329 103.699 125.062 103.656 124.764 103.656C124.369 103.656 123.99 103.736 123.628 103.896C123.265 104.045 122.934 104.264 122.636 104.552C122.348 104.84 122.102 105.176 121.9 105.56C121.708 105.944 121.58 106.36 121.516 106.808C121.43 107.427 121.462 107.981 121.612 108.472C121.761 108.952 122.022 109.331 122.396 109.608C122.769 109.875 123.238 110.008 123.804 110.008C124.198 110.008 124.54 109.955 124.828 109.848C125.116 109.731 125.35 109.597 125.532 109.448C125.724 109.288 125.862 109.155 125.948 109.048C126.044 108.931 126.092 108.872 126.092 108.872L127.308 109.272C127.308 109.272 127.238 109.368 127.1 109.56C126.961 109.752 126.742 109.971 126.444 110.216C126.145 110.461 125.761 110.68 125.292 110.872C124.822 111.064 124.257 111.16 123.596 111.16ZM130.278 102.648H131.526L131.19 104.216C131.617 103.704 132.113 103.293 132.678 102.984C133.254 102.664 133.841 102.504 134.438 102.504C135.057 102.504 135.585 102.664 136.022 102.984C136.459 103.304 136.795 103.731 137.03 104.264C137.265 104.787 137.382 105.363 137.382 105.992C137.382 106.653 137.259 107.293 137.014 107.912C136.769 108.531 136.433 109.085 136.006 109.576C135.579 110.067 135.089 110.456 134.534 110.744C133.99 111.021 133.409 111.16 132.79 111.16C132.139 111.16 131.601 110.989 131.174 110.648C130.747 110.307 130.443 109.875 130.262 109.352L129.19 114.408H127.782L130.278 102.648ZM132.614 109.944C133.062 109.944 133.483 109.837 133.878 109.624C134.273 109.4 134.619 109.112 134.918 108.76C135.227 108.397 135.467 107.997 135.638 107.56C135.819 107.112 135.91 106.664 135.91 106.216C135.91 105.757 135.825 105.341 135.654 104.968C135.483 104.584 135.238 104.28 134.918 104.056C134.609 103.832 134.241 103.72 133.814 103.72C133.579 103.72 133.323 103.768 133.046 103.864C132.779 103.96 132.513 104.099 132.246 104.28C131.979 104.451 131.739 104.648 131.526 104.872C131.323 105.096 131.169 105.336 131.062 105.592L130.55 107.976C130.625 108.339 130.753 108.669 130.934 108.968C131.126 109.267 131.366 109.507 131.654 109.688C131.942 109.859 132.262 109.944 132.614 109.944ZM142.096 111.16C141.274 111.16 140.586 110.963 140.032 110.568C139.477 110.173 139.077 109.656 138.832 109.016C138.586 108.365 138.517 107.667 138.624 106.92C138.709 106.344 138.874 105.811 139.12 105.32C139.376 104.819 139.696 104.381 140.08 104.008C140.474 103.635 140.922 103.347 141.424 103.144C141.925 102.931 142.464 102.824 143.04 102.824C143.552 102.824 144.01 102.92 144.416 103.112C144.832 103.293 145.178 103.544 145.456 103.864C145.733 104.184 145.92 104.552 146.016 104.968C146.165 103.923 146.138 103.085 145.936 102.456C145.744 101.816 145.365 101.347 144.8 101.048C144.384 100.824 143.861 100.685 143.232 100.632C142.613 100.579 141.893 100.595 141.072 100.68V99.496C141.957 99.4 142.768 99.3947 143.504 99.48C144.24 99.5653 144.885 99.7627 145.44 100.072C146.037 100.403 146.501 100.861 146.832 101.448C147.173 102.024 147.344 102.749 147.344 103.624C147.344 104.317 147.28 105.021 147.152 105.736C147.024 106.451 146.805 107.181 146.496 107.928C146.261 108.504 145.941 109.037 145.536 109.528C145.141 110.019 144.661 110.413 144.096 110.712C143.53 111.011 142.864 111.16 142.096 111.16ZM142.288 110.024C142.661 110.024 143.018 109.949 143.36 109.8C143.712 109.64 144.032 109.427 144.32 109.16C144.608 108.883 144.842 108.557 145.024 108.184C145.216 107.811 145.344 107.411 145.408 106.984C145.493 106.408 145.445 105.891 145.264 105.432C145.093 104.973 144.821 104.611 144.448 104.344C144.085 104.077 143.648 103.944 143.136 103.944C142.624 103.944 142.144 104.072 141.696 104.328C141.258 104.584 140.89 104.941 140.592 105.4C140.293 105.859 140.101 106.392 140.016 107C139.941 107.565 139.989 108.077 140.16 108.536C140.341 108.995 140.613 109.357 140.976 109.624C141.349 109.891 141.786 110.024 142.288 110.024ZM154.263 112.968L154.695 111C154.439 111 154.236 110.931 154.087 110.792C153.937 110.643 153.847 110.435 153.815 110.168C153.783 109.901 153.82 109.581 153.927 109.208C153.479 109.795 152.951 110.269 152.343 110.632C151.735 110.984 151.089 111.16 150.407 111.16C149.66 111.16 149.116 110.952 148.775 110.536C148.444 110.12 148.279 109.576 148.279 108.904C148.279 108.712 148.289 108.515 148.311 108.312C148.343 108.099 148.38 107.88 148.423 107.656L149.495 102.648H150.887L149.799 107.688C149.756 107.859 149.724 108.024 149.703 108.184C149.681 108.344 149.671 108.499 149.671 108.648C149.671 109.075 149.772 109.4 149.975 109.624C150.188 109.837 150.524 109.944 150.983 109.944C151.345 109.944 151.708 109.864 152.071 109.704C152.444 109.533 152.796 109.293 153.127 108.984C153.468 108.675 153.761 108.307 154.007 107.88L155.111 102.648H156.519L155.223 108.744C155.159 109.064 155.127 109.309 155.127 109.48C155.127 109.64 155.18 109.752 155.287 109.816C155.393 109.88 155.564 109.912 155.799 109.912H156.183L155.543 112.968H154.263ZM161.439 111.16C160.597 111.16 159.898 110.963 159.343 110.568C158.799 110.163 158.41 109.629 158.175 108.968C157.951 108.307 157.893 107.587 157.999 106.808C158.085 106.221 158.261 105.672 158.527 105.16C158.805 104.637 159.157 104.179 159.583 103.784C160.01 103.379 160.495 103.064 161.039 102.84C161.594 102.616 162.186 102.504 162.815 102.504C163.327 102.504 163.802 102.589 164.239 102.76C164.677 102.92 165.029 103.171 165.295 103.512C165.562 103.843 165.695 104.259 165.695 104.76C165.695 105.603 165.338 106.253 164.623 106.712C163.919 107.16 162.789 107.384 161.231 107.384C160.837 107.384 160.421 107.379 159.983 107.368C159.546 107.347 159.071 107.315 158.559 107.272L158.831 106.232C159.279 106.264 159.69 106.291 160.063 106.312C160.447 106.323 160.826 106.328 161.199 106.328C161.989 106.328 162.602 106.264 163.039 106.136C163.487 106.008 163.802 105.832 163.983 105.608C164.165 105.373 164.245 105.101 164.223 104.792C164.213 104.547 164.133 104.339 163.983 104.168C163.845 103.997 163.653 103.869 163.407 103.784C163.173 103.699 162.906 103.656 162.607 103.656C162.213 103.656 161.834 103.736 161.471 103.896C161.109 104.045 160.778 104.264 160.479 104.552C160.191 104.84 159.946 105.176 159.743 105.56C159.551 105.944 159.423 106.36 159.359 106.808C159.274 107.427 159.306 107.981 159.455 108.472C159.605 108.952 159.866 109.331 160.239 109.608C160.613 109.875 161.082 110.008 161.647 110.008C162.042 110.008 162.383 109.955 162.671 109.848C162.959 109.731 163.194 109.597 163.375 109.448C163.567 109.288 163.706 109.155 163.791 109.048C163.887 108.931 163.935 108.872 163.935 108.872L165.151 109.272C165.151 109.272 165.082 109.368 164.943 109.56C164.805 109.752 164.586 109.971 164.287 110.216C163.989 110.461 163.605 110.68 163.135 110.872C162.666 111.064 162.101 111.16 161.439 111.16Z" fill="white"/>
</svg>
