<svg width="18" height="19" viewBox="0 0 18 19" fill="none" xmlns="http://www.w3.org/2000/svg">
<path d="M6.25 8.58398H4.41667V10.4173H6.25V8.58398ZM9.91667 8.58398H8.08333V10.4173H9.91667V8.58398ZM13.5833 8.58398H11.75V10.4173H13.5833V8.58398ZM15.4167 2.16732H14.5V0.333984H12.6667V2.16732H5.33333V0.333984H3.5V2.16732H2.58333C1.56583 2.16732 0.759167 2.99232 0.759167 4.00065L0.75 16.834C0.75 17.3202 0.943154 17.7865 1.28697 18.1303C1.63079 18.4742 2.0971 18.6673 2.58333 18.6673H15.4167C16.425 18.6673 17.25 17.8423 17.25 16.834V4.00065C17.25 2.99232 16.425 2.16732 15.4167 2.16732ZM15.4167 16.834H2.58333V6.75065H15.4167V16.834Z" fill="#141414" fill-opacity="0.7"/>
</svg>
