<svg width="32" height="35" viewBox="0 0 32 35" fill="none" xmlns="http://www.w3.org/2000/svg">
<path d="M20.0441 29.3722H25.4405V23.9758H20.0441V29.3722ZM29.2181 0H2.38987C1.0793 0 0 1.07929 0 2.38986V32.6101C0 33.9207 1.0793 35 2.38987 35H29.2181C30.5286 35 31.6079 33.9207 31.6079 32.6101V2.38986C31.6079 1.07929 30.5286 0 29.2181 0ZM26.2115 3.0066H27.3678V16.4978H26.2115V3.0066ZM23.0507 3.0066H24.207V16.4978H23.0507V3.0066ZM2.62115 10.022C3.23789 7.55507 4.93392 5.47356 7.16961 4.31717C8.48018 5.0881 9.4053 6.32158 9.79076 7.86343C10.2533 7.70925 10.7159 7.63215 11.1784 7.63215C11.5639 7.63215 11.9493 7.70925 12.3348 7.78634C12.0264 6.0903 11.2555 4.62555 10.1762 3.46916C10.5617 3.39207 10.8701 3.39207 11.2555 3.39207C13.5683 3.39207 15.6498 4.31718 17.1916 5.78194C16.9604 7.32379 16.1894 8.63436 14.8789 9.55947C15.4185 10.2533 15.6498 11.1013 15.7269 11.9493C17.2687 11.1013 18.4251 9.79075 19.0419 8.2489C19.6586 9.40529 19.967 10.7159 19.967 12.1806C19.967 13.5683 19.6586 14.8018 19.1189 15.9581C17.5 16.3436 15.9582 15.9582 14.7247 15.033C14.185 15.7269 13.4141 16.1894 12.5661 16.4978C13.8767 17.7313 15.4956 18.4251 17.2687 18.5793C15.7269 20.044 13.6454 20.9692 11.3326 20.9692C10.793 20.9692 10.2533 20.8921 9.79076 20.815C9.01983 19.4273 8.94273 17.8084 9.48238 16.2665C8.71146 15.8811 8.01762 15.2643 7.55507 14.5705C6.70705 16.1894 6.47577 17.9626 6.78414 19.6586C4.54846 18.2709 3.00661 15.9581 2.69824 13.2599C3.85463 12.1806 5.31938 11.7952 6.93833 11.8722C7.01542 10.9471 7.3238 10.1762 7.86345 9.48237C5.85904 9.09691 4.163 9.2511 2.62115 10.022ZM13.4141 31.9934H3.31498V29.6806H13.4141V31.9934ZM13.4141 26.9053H3.31498V24.5925H13.4141V26.9053ZM28.8326 25.9802H27.0595V27.1366H28.8326V28.6784H27.0595V30.837H24.978V32.4559H23.4361V30.837H22.2797V32.4559H20.7379V30.837H18.6564V28.6784H16.8833V27.1366H18.6564V25.9802H16.8833V24.4383H18.6564V22.4339H20.7379V20.5066H22.2797V22.4339H23.4361V20.5066H24.978V22.4339H27.0595V24.4383H28.8326V25.9802ZM11.1013 14.8788C12.6432 14.8788 13.9538 13.6454 13.9538 12.0264C13.9538 10.4075 12.7203 9.17401 11.1013 9.17401C9.48239 9.17401 8.24891 10.4075 8.24891 12.0264C8.24891 13.6454 9.55948 14.8788 11.1013 14.8788Z" fill="white"/>
</svg>
