<svg width="37" height="31" viewBox="0 0 37 31" fill="none" xmlns="http://www.w3.org/2000/svg">
<path d="M22.2676 8.13075H25.1755V7.38831L29.3208 7.01709V5.77968L25.1755 5.40845V4.66602H22.2676V8.13075Z" fill="white"/>
<path d="M7.97574 18.1542H5.1297V17.4736L0.984375 17.0405V15.865L5.1297 15.4319V14.6895H7.97574V18.1542Z" fill="white"/>
<path d="M7.97574 13.1425H5.1297V12.4619L0.984375 12.0288V10.8533L5.1297 10.4202V9.67773H7.97574V13.1425Z" fill="white"/>
<path d="M7.97574 8.13075H5.1297V7.38831L0.984375 7.01709V5.77968L5.1297 5.40845V4.66602H7.97574V8.13075Z" fill="white"/>
<path d="M31.6718 19.5782L31.4243 19.207L25.856 22.6099C25.2373 22.3624 24.4329 22.4243 23.8761 22.9193C23.0099 23.5998 22.8243 24.8991 23.5049 25.7653C24.1855 26.6315 25.4847 26.8171 26.3509 26.1365C26.9696 25.7034 27.2171 24.961 27.0934 24.2804L31.6718 19.5782Z" fill="white"/>
<path d="M25.3625 12.5234C19.4229 12.5234 14.5352 17.04 14.5352 22.5465C14.5352 24.1551 14.9064 25.64 15.7107 27.063L16.1438 27.8673H19.4848L20.5985 29.476L20.9697 29.6616C22.4546 30.2803 23.7539 30.5896 25.3006 30.5896C26.7855 30.5896 28.0848 30.3421 29.6316 29.6616L30.0028 29.476L31.1165 27.8673H34.4575L34.8906 27.063C35.6949 25.64 36.0661 24.0932 36.0661 22.5465C36.128 17.04 31.3021 12.5234 25.3625 12.5234ZM32.9726 25.3925H29.879L28.456 27.4342C27.4042 27.8673 26.4762 28.0529 25.4244 28.0529C24.3726 28.0529 23.4445 27.8673 22.3308 27.4342L20.9078 25.3925H17.8143C17.3812 24.4645 17.1956 23.5364 17.1956 22.5465C17.1956 18.463 20.9078 15.122 25.4244 15.122C29.9409 15.122 33.6531 18.463 33.6531 22.5465C33.5913 23.5364 33.3438 24.4645 32.9726 25.3925Z" fill="white"/>
<path d="M28.0844 20.1335L30.4973 18.6486C29.1362 17.2256 27.3419 16.3594 25.3002 16.3594C22.9491 16.3594 20.8455 17.5349 19.4844 19.391L19.7319 19.6385C20.7837 18.5867 22.2067 17.968 23.6916 17.968C25.4858 18.0299 27.0326 18.8342 28.0844 20.1335Z" fill="white"/>
<path d="M16.2663 21.6806H16.5756C16.5138 21.3712 16.4519 21.1237 16.4519 20.8144C16.3281 21.1237 16.2663 21.4331 16.2663 21.6806ZM6.92383 0.458984V21.6806H13.4202C13.4821 20.8144 13.6677 20.0101 13.9771 19.2058H9.46052V2.9338H21.3397V12.2144C22.144 11.9669 22.9483 11.7813 23.8145 11.6575V0.458984H6.92383Z" fill="white"/>
</svg>
