<svg width="29" height="31" viewBox="0 0 29 31" fill="none" xmlns="http://www.w3.org/2000/svg">
<path d="M2.66043 0C1.17554 0 0 1.17553 0 2.66042C0 4.14532 1.17554 5.32086 2.66043 5.32086C4.14533 5.32086 5.32087 4.14532 5.32087 2.66042C5.32087 1.2374 4.14533 0 2.66043 0ZM2.66043 3.95971C1.97986 3.95971 1.42302 3.40287 1.42302 2.7223C1.42302 2.04172 1.97986 1.48489 2.66043 1.48489C3.34101 1.48489 3.89784 2.04172 3.89784 2.7223C3.89784 3.40287 3.34101 3.95971 2.66043 3.95971Z" fill="white"/>
<path d="M2.66043 5.69141C1.17554 5.69141 0 6.86695 0 8.35184C0 9.83673 1.17554 11.0123 2.66043 11.0123C4.14533 11.0123 5.32087 9.83673 5.32087 8.35184C5.32087 6.92882 4.14533 5.69141 2.66043 5.69141ZM2.66043 9.65111C1.97986 9.65111 1.42302 9.09428 1.42302 8.4137C1.42302 7.73313 1.97986 7.17629 2.66043 7.17629C3.34101 7.17629 3.89784 7.73313 3.89784 8.4137C3.89784 9.09428 3.34101 9.65111 2.66043 9.65111Z" fill="white"/>
<path d="M2.66043 19.8594C1.17554 19.8594 0 21.0349 0 22.5198C0 24.0047 1.17554 25.1802 2.66043 25.1802C4.14533 25.1802 5.32087 24.0047 5.32087 22.5198C5.32087 21.0349 4.14533 19.8594 2.66043 19.8594ZM2.66043 23.8191C1.97986 23.8191 1.42302 23.2622 1.42302 22.5817C1.42302 21.9011 1.97986 21.3443 2.66043 21.3443C3.34101 21.3443 3.89784 21.9011 3.89784 22.5817C3.89784 23.2622 3.34101 23.8191 2.66043 23.8191Z" fill="white"/>
<path d="M2.66043 25.4902C1.17554 25.4902 0 26.6658 0 28.1507C0 29.6356 1.17554 30.8111 2.66043 30.8111C4.14533 30.8111 5.32087 29.6356 5.32087 28.1507C5.32087 26.6658 4.14533 25.4902 2.66043 25.4902ZM2.66043 29.45C1.97986 29.45 1.42302 28.8931 1.42302 28.2126C1.42302 27.532 1.97986 26.9751 2.66043 26.9751C3.34101 26.9751 3.89784 27.532 3.89784 28.2126C3.89784 28.8313 3.34101 29.45 2.66043 29.45Z" fill="white"/>
<path d="M24.0057 1.42188H18.5611L14.3539 5.69095H12.374L8.16682 1.42188H4.02148C4.33084 1.7931 4.51645 2.2262 4.51645 2.72116C4.51645 3.15425 4.33084 3.58734 4.08336 3.8967H7.11501L11.3222 8.16577H15.3438L19.551 3.8967H23.8819C23.6344 3.58734 23.4488 3.15425 23.4488 2.72116C23.5726 2.2262 23.7582 1.7931 24.0057 1.42188Z" fill="white"/>
<path d="M25.553 0C24.0681 0 22.8926 1.17553 22.8926 2.66042C22.8926 4.14532 24.0681 5.32086 25.553 5.32086C27.0379 5.32086 28.2134 4.14532 28.2134 2.66042C28.2134 1.2374 27.0379 0 25.553 0ZM25.553 3.95971C24.8724 3.95971 24.3156 3.40287 24.3156 2.7223C24.3156 2.04172 24.8724 1.48489 25.553 1.48489C26.2336 1.48489 26.7904 2.04172 26.7904 2.7223C26.7904 3.40287 26.2336 3.95971 25.553 3.95971Z" fill="white"/>
<path d="M25.553 17.1367C24.0681 17.1367 22.8926 18.3123 22.8926 19.7972C22.8926 21.282 24.0681 22.4576 25.553 22.4576C27.0379 22.4576 28.2134 21.282 28.2134 19.7972C28.2134 18.3741 27.0379 17.1367 25.553 17.1367ZM25.553 21.0964C24.8724 21.0964 24.3156 20.5396 24.3156 19.859C24.3156 19.1785 24.8724 18.6216 25.553 18.6216C26.2336 18.6216 26.7904 19.1785 26.7904 19.859C26.7904 20.5396 26.2336 21.0964 25.553 21.0964Z" fill="white"/>
<path d="M25.553 5.75391C24.0681 5.75391 22.8926 6.92945 22.8926 8.41434C22.8926 9.89923 24.0681 11.0748 25.553 11.0748C27.0379 11.0748 28.2134 9.89923 28.2134 8.41434C28.2134 6.92945 27.0379 5.75391 25.553 5.75391ZM25.553 9.71362C24.8724 9.71362 24.3156 9.15679 24.3156 8.47621C24.3156 7.79564 24.8724 7.2388 25.553 7.2388C26.2336 7.2388 26.7904 7.79564 26.7904 8.47621C26.7904 9.15679 26.2336 9.71362 25.553 9.71362Z" fill="white"/>
<path d="M25.553 11.4453C24.0681 11.4453 22.8926 12.6208 22.8926 14.1057C22.8926 15.5906 24.0681 16.7662 25.553 16.7662C27.0379 16.7662 28.2134 15.5906 28.2134 14.1057C28.2134 12.6208 27.0379 11.4453 25.553 11.4453ZM25.553 15.405C24.8724 15.405 24.3156 14.8482 24.3156 14.1676C24.3156 13.487 24.8724 12.9302 25.553 12.9302C26.2336 12.9302 26.7904 13.487 26.7904 14.1676C26.7904 14.8482 26.2336 15.405 25.553 15.405Z" fill="white"/>
<path d="M24.0681 7.11523H19.9847L15.9631 11.3843H10.8279L6.68254 7.11523H4.08398C4.39334 7.48646 4.57895 7.91955 4.57895 8.41451C4.57895 8.8476 4.39334 9.2807 4.14586 9.59005H5.63075L9.77607 13.8591H17.0149L21.0365 9.59005H23.9444C23.6969 9.2807 23.5732 8.8476 23.5732 8.41451C23.5732 7.91955 23.7588 7.48646 24.0681 7.11523Z" fill="white"/>
<path d="M24.0681 12.8066H21.3459L17.6336 17.0757H9.89981L6.37319 21.2829H4.08398C4.39334 21.6541 4.57895 22.0872 4.57895 22.5822C4.57895 23.0153 4.39334 23.4484 4.14586 23.7577H7.48686L11.0135 19.5505H18.7473L22.4595 15.2815H23.9444C23.6969 14.9721 23.5732 14.539 23.5732 14.1059C23.5732 13.611 23.7588 13.1779 24.0681 12.8066Z" fill="white"/>
<path d="M23.5719 19.8601C23.5719 19.7982 23.5719 19.7982 23.5719 19.7363L21.097 22.4586H12.497L8.97042 26.9752H4.26827C4.51575 27.2845 4.63949 27.7176 4.63949 28.1507C4.63949 28.6457 4.45388 29.1407 4.14453 29.45H10.2078L13.7345 24.9334H22.2726L25.1186 21.778C24.1906 21.5306 23.5719 20.7881 23.5719 19.8601Z" fill="white"/>
</svg>
