<svg width="41" height="29" viewBox="0 0 41 29" fill="none" xmlns="http://www.w3.org/2000/svg">
<path d="M18.2852 19.9852L20.4821 23.4578L21.2617 23.0326L21.7578 28.3478L23.1043 27.7808L23.5295 21.9695L24.3091 21.6152L22.0412 18.1426L18.2852 19.9852Z" fill="white"/>
<path d="M23.7402 17.3621L26.0081 20.8347L26.7876 20.4095L27.2837 25.7247L28.5594 25.0869L28.9846 19.3465L29.7641 18.9921L27.5672 15.5195L23.7402 17.3621Z" fill="white"/>
<path d="M29.2715 14.741L31.4684 18.1428L32.248 17.7884L32.815 23.1036L34.0906 22.4658L34.5158 16.7254L35.2954 16.371L33.0276 12.8984L29.2715 14.741Z" fill="white"/>
<path d="M34.7266 12.0471L36.9944 15.5197L37.7739 15.1654L38.27 20.4806L39.5457 19.8428L39.9709 14.1023L40.7505 13.6771L38.5535 10.2754L34.7266 12.0471Z" fill="white"/>
<path d="M39.8998 7.93906C36.5689 4.60819 28.0646 0.99385 24.1668 0.356025L23.9542 0.285156L0.708984 11.6243V13.7504C0.708984 14.6008 1.13421 15.4512 1.8429 15.9473C2.90594 16.7269 5.17376 18.2151 7.93767 19.4908L8.15028 19.5616C10.7016 20.7664 12.8277 21.7586 16.5837 22.8216L16.8672 22.8925L38.695 12.2621C39.5454 11.8369 40.1833 10.9156 40.1833 9.9234V8.15166L39.8998 7.93906ZM16.442 18.2151C14.1742 17.5064 11.8355 16.5143 9.63854 15.4512C7.37072 14.3882 5.45724 13.2543 3.96898 12.1204L24.3794 2.19863C27.852 2.90732 34.372 6.02558 36.9233 8.22253L16.442 18.2151Z" fill="white"/>
<path d="M0 9.77998L3.75608 10.9848L7.58303 9.14216L3.82696 7.93738L0 9.77998ZM20.2687 0L16.4417 1.8426L20.2687 3.11826L24.0956 1.27565L20.2687 0ZM5.45695 7.15781L9.21303 8.3626L13.04 6.51999L9.21303 5.24434L5.45695 7.15781ZM10.9848 4.46478L14.8117 5.74043L18.6387 3.89782L14.8117 2.62217L10.9848 4.46478Z" fill="white"/>
</svg>
