<svg display="none" xmlns="http://www.w3.org/2000/svg">

	<!-- btn-donwload -->
	<symbol id="ic_btn-donwload" viewBox="0 0 20 20">
		<g>
			<g clip-path="url(#clip0_726_10591)">
				<path d="M9.99977 15.7143L16.4283 9.28574L14.2855 7.1429L11.4284 10V0H8.57126V10L5.71413 7.1429L3.57129 9.28574L9.99977 15.7143Z"/>
				<path d="M0 17.1426H20V19.9997H0V17.1426Z"/>
			</g>
			<defs>
				<clipPath id="clip0_726_10591">
					<rect width="20" height="20"/>
				</clipPath>
			</defs>
		</g>
	</symbol>

	<!-- show-filter -->
	<symbol id="ic_show-filter" viewBox="0 0 19 20">
		<g>
			<path d="M17.5 0.5H1.5C1.23478 0.5 0.98043 0.605357 0.792893 0.792893C0.605357 0.98043 0.5 1.23478 0.5 1.5V4.09C0.5 4.613 0.713 5.127 1.083 5.497L6.5 10.914V18.5C6.5002 18.6704 6.54387 18.8379 6.6269 18.9867C6.70992 19.1354 6.82955 19.2605 6.97444 19.3502C7.11934 19.4398 7.28471 19.4909 7.4549 19.4988C7.6251 19.5066 7.79447 19.4709 7.947 19.395L11.947 17.395C12.286 17.225 12.5 16.879 12.5 16.5V10.914L17.917 5.497C18.287 5.127 18.5 4.613 18.5 4.09V1.5C18.5 1.23478 18.3946 0.98043 18.2071 0.792893C18.0196 0.605357 17.7652 0.5 17.5 0.5ZM10.793 9.793C10.7 9.88571 10.6262 9.9959 10.5759 10.1172C10.5256 10.2386 10.4998 10.3687 10.5 10.5V15.882L8.5 16.882V10.5C8.50019 10.3687 8.4744 10.2386 8.42412 10.1172C8.37383 9.9959 8.30004 9.88571 8.207 9.793L2.5 4.09V2.5H16.501L16.503 4.083L10.793 9.793Z"/>
		</g>
	</symbol>


	<!-- arrow-to-bot -->
	<symbol id="ic_arrow-to" viewBox="0 0 15 3">
		<g>
			<path fill-rule="evenodd" clip-rule="evenodd" d="M-2.74886e-08 2.70128L2.01463 0L7.5 4.60677L12.9854 0L15 2.70128L7.5 9L-2.74886e-08 2.70128Z"/>
		</g>
	</symbol>

	<!-- search-ic -->
	<symbol id="ic_search" viewBox="0 0 23 23">
		<g>
			<path d="M9.75 18.5C14.5825 18.5 18.5 14.5825 18.5 9.75C18.5 4.91751 14.5825 1 9.75 1C4.91751 1 1 4.91751 1 9.75C1 14.5825 4.91751 18.5 9.75 18.5Z" stroke-width="2" stroke-miterlimit="5"/>
			<path d="M22.0003 22.0003L15.9365 15.9365" stroke-width="2" stroke-miterlimit="5"/>
		</g>
	</symbol>

	<!-- lang-earth-ic -->
	<symbol id="ic_lang" viewBox="0 0 23 23">
		<g>
			<path d="M20.25 5.88672C17.5901 7.42228 14.5713 8.22679 11.5 8.21859C8.4287 8.22679 5.40989 7.42228 2.75 5.88672" stroke="#032019" stroke-width="1.6" stroke-miterlimit="5"/>
			<path d="M2.75 17.1352C5.40617 15.6058 8.41746 14.8008 11.4825 14.8008C14.5475 14.8008 17.5588 15.6058 20.215 17.1352" stroke="#032019" stroke-width="1.6" stroke-miterlimit="5"/>
			<path d="M10.1875 22C7.91561 18.9708 6.6875 15.2865 6.6875 11.5C6.6875 7.71352 7.91561 4.02918 10.1875 1" stroke="#032019" stroke-width="1.6" stroke-miterlimit="5"/>
			<path d="M12.8125 1C15.0844 4.02918 16.3125 7.71352 16.3125 11.5C16.3125 15.2865 15.0844 18.9708 12.8125 22" stroke="#032019" stroke-width="1.6" stroke-miterlimit="5"/>
			<path d="M11.5 22C17.299 22 22 17.299 22 11.5C22 5.70101 17.299 1 11.5 1C5.70101 1 1 5.70101 1 11.5C1 17.299 5.70101 22 11.5 22Z" stroke="#032019" stroke-width="1.6" stroke-miterlimit="5"/>
		</g>
	</symbol>

	<!-- picture-link -->
	<symbol id="ic_picture-link" viewBox="0 0 16 16">
		<g>
			<path d="M14.1526 15L14.1526 1.91892L1.59473 1.91892" stroke-width="2" stroke-linecap="square"/>
			<path d="M13.4868 2.51325L2.18945 13.8105" stroke-width="2" stroke-linecap="square" stroke-linejoin="round"/>
		</g>
	</symbol>

	<!-- close-ic-X -->
	<symbol id="ic_close" viewBox="0 0 11 11">
		<g>
			<path d="M6.75908 5.49959L10.2845 1.9742C10.4518 1.80718 10.5459 1.58054 10.5461 1.34413C10.5463 1.10772 10.4526 0.88091 10.2856 0.713596C10.1186 0.546281 9.89192 0.452168 9.65552 0.451959C9.41911 0.45175 9.1923 0.545463 9.02498 0.712483L5.49959 4.23787L1.9742 0.712483C1.80689 0.545168 1.57996 0.451172 1.34334 0.451172C1.10672 0.451172 0.879797 0.545168 0.712483 0.712483C0.545168 0.879797 0.451172 1.10672 0.451172 1.34334C0.451172 1.57996 0.545168 1.80689 0.712483 1.9742L4.23787 5.49959L0.712483 9.02498C0.545168 9.1923 0.451172 9.41922 0.451172 9.65584C0.451172 9.89246 0.545168 10.1194 0.712483 10.2867C0.879797 10.454 1.10672 10.548 1.34334 10.548C1.57996 10.548 1.80689 10.454 1.9742 10.2867L5.49959 6.76131L9.02498 10.2867C9.1923 10.454 9.41922 10.548 9.65584 10.548C9.89246 10.548 10.1194 10.454 10.2867 10.2867C10.454 10.1194 10.548 9.89246 10.548 9.65584C10.548 9.41922 10.454 9.1923 10.2867 9.02498L6.75908 5.49959Z"/>
		</g>
	</symbol>

	<!-- printer -->
	<symbol id="ic_printer" viewBox="0 0 23 23" >
		<g>

			<path d="M20.3047 7.14258H18.0137V0H4.98633V7.14258H2.69531C1.20903 7.14258 0 8.35161 0 9.83789V17.1152C0 18.6015 1.20903 19.8105 2.69531 19.8105H4.98633V23H18.0137V19.8105H20.3047C21.791 19.8105 23 18.6015 23 17.1152V9.83789C23 8.35161 21.791 7.14258 20.3047 7.14258ZM6.7832 1.79688H16.2168V7.14258H6.7832V1.79688ZM6.7832 21.2031V15.2285H16.2168V21.2031H6.7832ZM21.2031 17.1152C21.2031 17.6106 20.8001 18.0137 20.3047 18.0137H18.0137V15.2285H19.4062V13.4316H3.59375V15.2285H4.98633V18.0137H2.69531C2.19994 18.0137 1.79688 17.6106 1.79688 17.1152V9.83789C1.79688 9.34252 2.19994 8.93945 2.69531 8.93945H20.3047C20.8001 8.93945 21.2031 9.34252 21.2031 9.83789V17.1152ZM14.4199 3.59375V5.39062H8.58008V3.59375H14.4199Z" fill="#A9AEB2"/>

		</g>
	</symbol>

	<!-- link-share -->
	<symbol id="ic_link-share" viewBox="0 0 23 23" >
		<g>

			<g clip-path="url(#clip0_739_7309)">
				<path d="M21.3082 3.83327C21.3082 5.55347 19.9138 6.94798 18.1936 6.94798C16.4734 6.94798 15.0791 5.55347 15.0791 3.83327C15.0791 2.11326 16.4734 0.71875 18.1936 0.71875C19.9138 0.71875 21.3082 2.11326 21.3082 3.83327Z" fill="#A9AEB2"/>
				<path d="M18.1936 7.66673C16.0795 7.66673 14.3604 5.94741 14.3604 3.83327C14.3604 1.71931 16.0795 0 18.1936 0C20.3078 0 22.0269 1.71931 22.0269 3.83327C22.0269 5.94741 20.3078 7.66673 18.1936 7.66673ZM18.1936 1.4375C16.8721 1.4375 15.7979 2.51282 15.7979 3.83327C15.7979 5.15391 16.8721 6.22923 18.1936 6.22923C19.5151 6.22923 20.5894 5.15391 20.5894 3.83327C20.5894 2.51282 19.5151 1.4375 18.1936 1.4375Z" fill="#A9AEB2"/>
				<path d="M21.3082 19.1674C21.3082 20.8875 19.9138 22.282 18.1936 22.282C16.4734 22.282 15.0791 20.8875 15.0791 19.1674C15.0791 17.4472 16.4734 16.0527 18.1936 16.0527C19.9138 16.0527 21.3082 17.4472 21.3082 19.1674Z" fill="#A9AEB2"/>
				<path d="M18.1936 23.0007C16.0795 23.0007 14.3604 21.2814 14.3604 19.1674C14.3604 17.0533 16.0795 15.334 18.1936 15.334C20.3078 15.334 22.0269 17.0533 22.0269 19.1674C22.0269 21.2814 20.3078 23.0007 18.1936 23.0007ZM18.1936 16.7715C16.8721 16.7715 15.7979 17.8468 15.7979 19.1674C15.7979 20.4879 16.8721 21.5632 18.1936 21.5632C19.5151 21.5632 20.5894 20.4879 20.5894 19.1674C20.5894 17.8468 19.5151 16.7715 18.1936 16.7715Z" fill="#A9AEB2"/>
				<path d="M7.89133 11.4993C7.89133 13.2195 6.49683 14.6138 4.77663 14.6138C3.05662 14.6138 1.66211 13.2195 1.66211 11.4993C1.66211 9.7791 3.05662 8.38477 4.77663 8.38477C6.49683 8.38477 7.89133 9.7791 7.89133 11.4993Z" fill="#A9AEB2"/>
				<path d="M4.77663 15.3326C2.66267 15.3326 0.943359 13.6134 0.943359 11.4993C0.943359 9.38515 2.66267 7.66602 4.77663 7.66602C6.89077 7.66602 8.61008 9.38515 8.61008 11.4993C8.61008 13.6134 6.89077 15.3326 4.77663 15.3326ZM4.77663 9.10352C3.45512 9.10352 2.38086 10.1787 2.38086 11.4993C2.38086 12.8199 3.45512 13.8951 4.77663 13.8951C6.09832 13.8951 7.17258 12.8199 7.17258 11.4993C7.17258 10.1787 6.09832 9.10352 4.77663 9.10352Z" fill="#A9AEB2"/>
				<path d="M7.03937 11.0402C6.70579 11.0402 6.38186 10.8667 6.20551 10.5562C5.94387 10.0972 6.10496 9.51163 6.564 9.24894L15.4563 4.17944C15.9153 3.91587 16.5009 4.07696 16.7636 4.53776C17.0252 4.99681 16.8641 5.58237 16.4051 5.84506L7.51263 10.9146C7.36312 10.9998 7.20028 11.0402 7.03937 11.0402Z" fill="#A9AEB2"/>
				<path d="M15.9307 18.9463C15.7696 18.9463 15.6068 18.9059 15.4573 18.8206L6.56485 13.7511C6.1058 13.4895 5.94489 12.9039 6.20652 12.4438C6.46711 11.9839 7.05355 11.8219 7.51364 12.0855L16.4061 17.155C16.8651 17.4167 17.026 18.0022 16.7644 18.4623C16.5871 18.7727 16.2632 18.9463 15.9307 18.9463Z" fill="#A9AEB2"/>
			</g>
			<defs>
				<clipPath id="clip0_739_7309">
					<rect width="23" height="23" fill="white"/>
				</clipPath>
			</defs>

		</g>
	</symbol>

	<!-- link-to-news -->
	<symbol id="ic_link-to-news" viewBox="0 0 14 14" >
		<g>
			<path d="M11.1678 13.6673H2.00114C1.55911 13.6673 1.13519 13.4917 0.822628 13.1792C0.510067 12.8666 0.334473 12.4427 0.334473 12.0007V2.83398C0.334473 2.39196 0.510067 1.96803 0.822628 1.65547C1.13519 1.34291 1.55911 1.16732 2.00114 1.16732H5.33447V2.83398H2.00114V12.0007H11.1678V8.66732H12.8345V12.0007C12.8345 12.4427 12.6589 12.8666 12.3463 13.1792C12.0338 13.4917 11.6098 13.6673 11.1678 13.6673ZM6.75114 8.42315L5.57614 7.24482L10.8203 2.00065H7.83447V0.333984H13.6678V6.16732H12.0011V3.17982L6.75114 8.42315Z"/>
		</g>
	</symbol>

	<!-- clip -->
	<symbol id="ic_clip" viewBox="0 0 39 38" >
		<g>
			<path d="M35.6944 3.21215C31.42 -1.07154 24.5867 -1.0706 20.3134 3.21427L2.39064 21.5716C-0.850141 24.9692 -0.788206 30.4143 2.52898 33.7337C5.7916 36.9985 11.0022 36.9985 14.2648 33.7337L30.4941 17.1109C32.604 14.9499 32.604 11.4462 30.4941 9.28519C28.3843 7.1242 24.9635 7.1242 22.8537 9.28519L7.32996 25.1852C6.78851 25.7594 6.80405 26.6745 7.36469 27.229C7.9116 27.7701 8.77861 27.7701 9.32552 27.229L24.8491 11.329C25.8786 10.319 27.5125 10.355 28.4986 11.4093C29.4549 12.4319 29.4549 14.0445 28.4986 15.067L12.2694 31.6897C10.0769 33.9034 6.54747 33.8775 4.3862 31.6319C2.24676 29.409 2.24676 25.8384 4.3862 23.6155L22.3089 5.25812C25.5014 1.98704 30.6783 1.98611 33.8719 5.25592C37.0656 8.52573 37.0665 13.8282 33.8741 17.0993L15.9513 35.4566C15.3593 35.9759 15.2904 36.8884 15.7973 37.4947C16.3043 38.101 17.1952 38.1717 17.7872 37.6524C17.8424 37.604 17.8938 37.5513 17.9411 37.4947L35.8639 19.1374C40.1106 14.6918 40.0348 7.56182 35.6944 3.21215Z"/>
		</g>
	</symbol>

	<!-- PDF -->
	<symbol id="ic_PDF" viewBox="0 0 95 55" >
		<g>

			<path d="M24.7829 12.6875H12.3916V20.9484V41.6005H16.522V29.2092H24.7829C29.3265 29.2092 33.0438 25.4917 33.0438 20.9484C33.0438 16.4048 29.3265 12.6875 24.7829 12.6875ZM24.7829 25.0788H16.522V16.8179H24.7829C27.2612 16.8179 28.9133 18.4701 28.9133 20.9484C28.9133 23.4266 27.2612 25.0788 24.7829 25.0788Z" fill="#02906D"/>
			<path d="M82.6087 0.294922H12.3913C5.36946 0.294922 0 5.66438 0 12.6862V41.5993C0 48.6211 5.36946 53.9906 12.3913 53.9906H82.6087C89.6305 53.9906 95 48.6211 95 41.5993V12.6862C95 5.66438 89.6305 0.294922 82.6087 0.294922ZM90.8696 41.5993C90.8696 46.1426 87.1521 49.8601 82.6087 49.8601H12.3913C7.84772 49.8601 4.13043 46.1426 4.13043 41.5993V12.6862C4.13043 8.14264 7.84772 4.42536 12.3913 4.42536H82.6087C87.1521 4.42536 90.8696 8.14264 90.8696 12.6862V41.5993Z" fill="#02906D"/>
			<path d="M49.5651 12.6875H37.1738V41.6005H49.5651C54.1085 41.6005 57.826 37.883 57.826 33.3397V20.9484C57.826 16.4048 54.1085 12.6875 49.5651 12.6875ZM53.6956 33.3397C53.6956 35.8179 52.0434 37.4701 49.5651 37.4701H41.3043V16.8179H49.5651C52.0434 16.8179 53.6956 18.4701 53.6956 20.9484V33.3397Z" fill="#02906D"/>
			<path d="M61.957 41.6005H66.0875V29.2092H78.4788V25.0788H66.0875V16.8179H82.6092V12.6875H61.957V41.6005Z" fill="#02906D"/>

		</g>
	</symbol>

	<!-- 3D -->
	<symbol id="ic_3D" viewBox="0 0 95 55" >
		<g>

			<path d="M82.6087 0.296875H12.3913C5.36946 0.296875 0 5.66633 0 12.6882V41.6012C0 48.6231 5.36946 53.9925 12.3913 53.9925H82.6087C89.6305 53.9925 95 48.6231 95 41.6012V12.6882C95 5.66633 89.6305 0.296875 82.6087 0.296875ZM90.8696 41.6012C90.8696 46.1446 87.1521 49.8621 82.6087 49.8621H12.3913C7.84772 49.8621 4.13043 46.1446 4.13043 41.6012V12.6882C4.13043 8.14459 7.84772 4.42731 12.3913 4.42731H82.6087C87.1521 4.42731 90.8696 8.14459 90.8696 12.6882V41.6012Z" fill="#02906D"/>
			<g clip-path="url(#clip0_739_6935)">
				<path d="M55.9042 12.2815C55.7537 11.9891 55.5226 11.7433 55.2365 11.5715C54.9505 11.3997 54.621 11.3086 54.2848 11.3086H36.1908C35.5051 11.3086 34.879 11.6851 34.5714 12.2815L27.3339 26.3555C27.2081 26.6 27.1426 26.8695 27.1426 27.1428C27.1426 27.4161 27.2081 27.6857 27.3339 27.9301L34.5714 42.0041C34.879 42.5988 35.5051 42.9753 36.1908 42.9753H54.2848C54.9706 42.9753 55.5966 42.5988 55.9042 42.0024L63.1418 27.9283C63.2676 27.6839 63.3331 27.4144 63.3331 27.141C63.3331 26.8677 63.2676 26.5982 63.1418 26.3538L55.9042 12.2815ZM58.5948 25.3827H44.5466L39.1184 14.8271H53.1666L58.5948 25.3827ZM30.9762 27.1419L36.1908 17.0016L41.4055 27.1419L36.1908 37.2823L30.9762 27.1419ZM53.1666 39.4567H39.1184L44.5466 28.9012H58.5948L53.1666 39.4567Z" fill="#02906D"/>
			</g>
			<defs>
				<clipPath id="clip0_739_6935">
					<rect width="38.4524" height="38.4524" fill="white" transform="translate(27.1426 6.78516)"/>
				</clipPath>
			</defs>

		</g>
	</symbol>

	<!-- main house on the mape -->
	<symbol id="ic_mape-main" viewBox="0 0 36 36" >
		<g>

			<circle cx="18" cy="18" r="18" fill="#02906D"/>
			<path fill-rule="evenodd" clip-rule="evenodd" d="M13.3839 13.1392C10.8555 15.0848 8.75666 16.6981 8.71988 16.7242C8.65822 16.768 8.70306 16.8367 9.2997 17.6119L9.94632 18.4521L10.1692 18.2813C10.2918 18.1874 12.1037 16.7947 14.1957 15.1864L17.9992 12.2624L21.8028 15.1864C23.8947 16.7947 25.7066 18.1874 25.8292 18.2813L26.0521 18.4521L26.6987 17.6119C27.2953 16.8368 27.3402 16.768 27.2786 16.7243C27.2418 16.6982 26.6535 16.2473 25.9712 15.7224L24.7307 14.768L24.7125 13.0667L24.6942 11.3655L23.3352 11.3559L21.9761 11.3464V11.9848C21.9761 12.3359 21.9677 12.6231 21.9574 12.6231C21.9471 12.6231 21.0533 11.9424 19.9712 11.1103C18.889 10.2783 17.9985 9.59844 17.9923 9.59961C17.9861 9.60078 15.9123 11.1936 13.3839 13.1392ZM14.7794 16.1125L11.5779 18.5771V21.8883V25.1996H14.1501H16.7222V22.7754V20.3513H18.1087H19.4951V22.7754V25.1996H21.9578H24.4206V21.8883V18.577L21.2121 16.1104C19.4473 14.7538 17.9984 13.6448 17.9923 13.6459C17.9861 13.647 16.5403 14.757 14.7794 16.1125Z" fill="white"/>

		</g>
	</symbol>

	<!-- second house on the mape  -->
	<symbol id="ic_mape-second" viewBox="0 0 36 36" >
		<g>

			<circle cx="18" cy="18" r="18" fill="#02906D"/>
			<g clip-path="url(#clip0_618_9607)">
				<path d="M21.8926 15.059C21.901 14.959 21.9093 14.859 21.9093 14.7507C21.9093 14.6423 21.901 14.5423 21.8926 14.4423L22.5843 13.934C23.001 13.6257 23.126 13.0507 22.8676 12.6007L22.251 11.5007C21.9926 11.034 21.426 10.8507 20.951 11.0757L20.1843 11.434C20.026 11.3257 19.876 11.234 19.7093 11.1507L19.626 10.259C19.576 9.73398 19.1426 9.33398 18.6176 9.33398H17.3843C16.8593 9.33398 16.426 9.73398 16.376 10.259L16.2926 11.1507C16.126 11.234 15.976 11.3257 15.8176 11.434L15.051 11.0757C14.576 10.8507 14.0093 11.0423 13.751 11.5007L13.1343 12.6007C12.876 13.0507 13.001 13.6257 13.4176 13.934L14.1093 14.4423C14.101 14.5423 14.0926 14.6423 14.0926 14.7507C14.0926 14.859 14.101 14.959 14.1093 15.059L13.4176 15.5673C13.001 15.8756 12.876 16.4507 13.1343 16.9007L13.751 18.0006C14.0093 18.459 14.576 18.6507 15.051 18.4256L15.8176 18.0673C15.976 18.1756 16.126 18.2673 16.2926 18.3506L16.376 19.2423C16.426 19.7673 16.8593 20.1673 17.3843 20.1673H18.6176C19.1426 20.1673 19.576 19.7673 19.626 19.2423L19.7093 18.3506C19.876 18.2673 20.026 18.1756 20.1843 18.0673L20.951 18.4256C21.426 18.6507 21.9926 18.4673 22.251 18.0006L22.8676 16.9007C23.126 16.4507 23.001 15.8756 22.5843 15.5673L21.8926 15.059ZM20.0843 14.7507C20.0843 15.9007 19.151 16.834 18.001 16.834C16.851 16.834 15.9176 15.9007 15.9176 14.7507C15.9176 13.6007 16.851 12.6673 18.001 12.6673C19.151 12.6673 20.0843 13.6007 20.0843 14.7507Z" fill="white"/>
				<path d="M25.5 21H10.5C9.12167 21 8 22.1217 8 23.5C8 24.8783 9.12167 26 10.5 26H25.5C26.8783 26 28 24.8783 28 23.5C28 22.1217 26.8783 21 25.5 21ZM11.3333 24.3333C10.8742 24.3333 10.5 23.9592 10.5 23.5C10.5 23.0408 10.8742 22.6667 11.3333 22.6667C11.7925 22.6667 12.1667 23.0408 12.1667 23.5C12.1667 23.9592 11.7925 24.3333 11.3333 24.3333ZM15.5 24.3333C15.0408 24.3333 14.6667 23.9592 14.6667 23.5C14.6667 23.0408 15.0408 22.6667 15.5 22.6667C15.9592 22.6667 16.3333 23.0408 16.3333 23.5C16.3333 23.9592 15.9592 24.3333 15.5 24.3333ZM20.5 24.3333C20.0408 24.3333 19.6667 23.9592 19.6667 23.5C19.6667 23.0408 20.0408 22.6667 20.5 22.6667C20.9592 22.6667 21.3333 23.0408 21.3333 23.5C21.3333 23.9592 20.9592 24.3333 20.5 24.3333ZM24.6667 24.3333C24.2075 24.3333 23.8333 23.9592 23.8333 23.5C23.8333 23.0408 24.2075 22.6667 24.6667 22.6667C25.1258 22.6667 25.5 23.0408 25.5 23.5C25.5 23.9592 25.1258 24.3333 24.6667 24.3333Z" fill="white"/>
			</g>
			<defs>
				<clipPath id="clip0_618_9607">
					<rect width="20" height="20" fill="white" transform="translate(8 6)"/>
				</clipPath>
			</defs>

		</g>
	</symbol>

	<!-- dote on the mape -->
	<symbol id="ic_mape-third" viewBox="0 0 20 20" >
		<g>

			<circle cx="10" cy="10" r="8.5" fill="white" stroke="#02906D" stroke-width="3"/>

		</g>
	</symbol>


	<!-- phone -->
	<symbol id="ic_phone" viewBox="0 0 27 14" >
		<g xmlns="http://www.w3.org/2000/svg">
			<svg width="231" height="133" viewBox="0 0 231 133" fill="none" xmlns="http://www.w3.org/2000/svg">
				<rect width="53" height="53" rx="26.5" fill="#02906D"/>
				<path d="M37.8684 30.7774C36.2029 30.7774 34.5716 30.5173 33.0255 30.0071C32.2709 29.7471 31.414 29.9475 30.9181 30.4534L27.8529 32.7683C24.3357 30.8911 22.0848 28.6415 20.2332 25.15L22.4855 22.1573C23.0525 21.5903 23.2558 20.7604 23.0128 19.9831C22.4983 18.427 22.2369 16.7942 22.2369 15.1316C22.2369 13.9563 21.2805 13 20.1053 13H15.1316C13.9563 13 13 13.9563 13 15.1316C13 28.8433 24.1567 40 37.8684 40C39.0437 40 40 39.0437 40 37.8684V32.909C40 31.7337 39.0437 30.7774 37.8684 30.7774Z" fill="white"/>
				<path opacity="0.8" d="M7.15625 79.6797C7.15625 79.0755 6.9349 78.5964 6.49219 78.2422C6.05469 77.8828 5.4375 77.7031 4.64062 77.7031C3.97396 77.7031 3.41406 77.888 2.96094 78.2578C2.51302 78.6224 2.28906 79.0755 2.28906 79.6172H0.789062C0.789062 79.013 0.953125 78.4714 1.28125 77.9922C1.61458 77.513 2.07812 77.1406 2.67188 76.875C3.26562 76.6042 3.92188 76.4688 4.64062 76.4688C5.91146 76.4688 6.89844 76.7552 7.60156 77.3281C8.30469 77.8958 8.65625 78.6875 8.65625 79.7031C8.65625 80.2292 8.49479 80.7083 8.17188 81.1406C7.84896 81.5729 7.39844 81.9141 6.82031 82.1641C8.15885 82.612 8.82812 83.5 8.82812 84.8281C8.82812 85.849 8.44792 86.6589 7.6875 87.2578C6.92708 87.8568 5.91146 88.1562 4.64062 88.1562C3.88542 88.1562 3.19792 88.0234 2.57812 87.7578C1.96354 87.487 1.48438 87.1042 1.14062 86.6094C0.796875 86.1146 0.625 85.526 0.625 84.8438H2.125C2.125 85.4427 2.36198 85.9427 2.83594 86.3438C3.3099 86.7396 3.91146 86.9375 4.64062 86.9375C5.45833 86.9375 6.10938 86.7474 6.59375 86.3672C7.08333 85.987 7.32812 85.4844 7.32812 84.8594C7.32812 83.526 6.5026 82.8464 4.85156 82.8203H3.44531V81.5859H4.84375C5.60417 81.5703 6.17969 81.3984 6.57031 81.0703C6.96094 80.7422 7.15625 80.2786 7.15625 79.6797ZM10.7266 88V79.5469H14.0234C15.1484 79.5469 16.0104 79.7448 16.6094 80.1406C17.2135 80.5312 17.5156 81.1068 17.5156 81.8672C17.5156 82.2578 17.3984 82.612 17.1641 82.9297C16.9297 83.2422 16.5833 83.4818 16.125 83.6484C16.6354 83.7682 17.0443 84.0026 17.3516 84.3516C17.6641 84.7005 17.8203 85.1172 17.8203 85.6016C17.8203 86.3776 17.5339 86.9714 16.9609 87.3828C16.3932 87.7943 15.5885 88 14.5469 88H10.7266ZM12.1719 84.2891V86.8359H14.5625C15.1667 86.8359 15.6172 86.724 15.9141 86.5C16.2161 86.276 16.3672 85.9609 16.3672 85.5547C16.3672 84.7109 15.7474 84.2891 14.5078 84.2891H12.1719ZM12.1719 83.1328H14.0391C15.3932 83.1328 16.0703 82.737 16.0703 81.9453C16.0703 81.1536 15.4297 80.7448 14.1484 80.7188H12.1719V83.1328ZM19.3516 83.6953C19.3516 82.8672 19.513 82.1224 19.8359 81.4609C20.1641 80.7995 20.6172 80.2891 21.1953 79.9297C21.7786 79.5703 22.4427 79.3906 23.1875 79.3906C24.3385 79.3906 25.2682 79.7891 25.9766 80.5859C26.6901 81.3828 27.0469 82.4427 27.0469 83.7656V83.8672C27.0469 84.6901 26.888 85.4297 26.5703 86.0859C26.2578 86.737 25.8073 87.2448 25.2188 87.6094C24.6354 87.974 23.9635 88.1562 23.2031 88.1562C22.0573 88.1562 21.1276 87.7578 20.4141 86.9609C19.7057 86.1641 19.3516 85.1094 19.3516 83.7969V83.6953ZM20.8047 83.8672C20.8047 84.8047 21.0208 85.5573 21.4531 86.125C21.8906 86.6927 22.474 86.9766 23.2031 86.9766C23.9375 86.9766 24.5208 86.6901 24.9531 86.1172C25.3854 85.5391 25.6016 84.7318 25.6016 83.6953C25.6016 82.7682 25.3802 82.0182 24.9375 81.4453C24.5 80.8672 23.9167 80.5781 23.1875 80.5781C22.474 80.5781 21.8984 80.862 21.4609 81.4297C21.0234 81.9974 20.8047 82.8099 20.8047 83.8672ZM35.7656 88H34.3203V84.3906H30.4375V88H28.9844V79.5469H30.4375V83.2109H34.3203V79.5469H35.7656V88ZM37.7109 83.6953C37.7109 82.8672 37.8724 82.1224 38.1953 81.4609C38.5234 80.7995 38.9766 80.2891 39.5547 79.9297C40.138 79.5703 40.8021 79.3906 41.5469 79.3906C42.6979 79.3906 43.6276 79.7891 44.3359 80.5859C45.0495 81.3828 45.4062 82.4427 45.4062 83.7656V83.8672C45.4062 84.6901 45.2474 85.4297 44.9297 86.0859C44.6172 86.737 44.1667 87.2448 43.5781 87.6094C42.9948 87.974 42.3229 88.1562 41.5625 88.1562C40.4167 88.1562 39.487 87.7578 38.7734 86.9609C38.0651 86.1641 37.7109 85.1094 37.7109 83.7969V83.6953ZM39.1641 83.8672C39.1641 84.8047 39.3802 85.5573 39.8125 86.125C40.25 86.6927 40.8333 86.9766 41.5625 86.9766C42.2969 86.9766 42.8802 86.6901 43.3125 86.1172C43.7448 85.5391 43.9609 84.7318 43.9609 83.6953C43.9609 82.7682 43.7396 82.0182 43.2969 81.4453C42.8594 80.8672 42.276 80.5781 41.5469 80.5781C40.8333 80.5781 40.2578 80.862 39.8203 81.4297C39.3828 81.9974 39.1641 82.8099 39.1641 83.8672ZM49.8516 84.3984H48.7969V88H47.3438V79.5469H48.7969V83.125H49.7422L52.5859 79.5469H54.3359L50.9922 83.6094L54.6172 88H52.7812L49.8516 84.3984ZM66.7422 88H65.2969V80.7422H61.4062V88H59.9531V79.5469H66.7422V88ZM68.6797 83.6953C68.6797 82.8672 68.8411 82.1224 69.1641 81.4609C69.4922 80.7995 69.9453 80.2891 70.5234 79.9297C71.1068 79.5703 71.7708 79.3906 72.5156 79.3906C73.6667 79.3906 74.5964 79.7891 75.3047 80.5859C76.0182 81.3828 76.375 82.4427 76.375 83.7656V83.8672C76.375 84.6901 76.2161 85.4297 75.8984 86.0859C75.5859 86.737 75.1354 87.2448 74.5469 87.6094C73.9635 87.974 73.2917 88.1562 72.5312 88.1562C71.3854 88.1562 70.4557 87.7578 69.7422 86.9609C69.0339 86.1641 68.6797 85.1094 68.6797 83.7969V83.6953ZM70.1328 83.8672C70.1328 84.8047 70.349 85.5573 70.7812 86.125C71.2188 86.6927 71.8021 86.9766 72.5312 86.9766C73.2656 86.9766 73.849 86.6901 74.2812 86.1172C74.7135 85.5391 74.9297 84.7318 74.9297 83.6953C74.9297 82.7682 74.7083 82.0182 74.2656 81.4453C73.8281 80.8672 73.2448 80.5781 72.5156 80.5781C71.8021 80.5781 71.2266 80.862 70.7891 81.4297C70.3516 81.9974 70.1328 82.8099 70.1328 83.8672ZM83.8828 83.5469V88H82.3828V76.625H86.5781C87.8229 76.625 88.7969 76.9427 89.5 77.5781C90.2083 78.2135 90.5625 79.0547 90.5625 80.1016C90.5625 81.2057 90.2161 82.0573 89.5234 82.6562C88.8359 83.25 87.849 83.5469 86.5625 83.5469H83.8828ZM83.8828 82.3203H86.5781C87.3802 82.3203 87.9948 82.1328 88.4219 81.7578C88.849 81.3776 89.0625 80.8307 89.0625 80.1172C89.0625 79.4401 88.849 78.8984 88.4219 78.4922C87.9948 78.0859 87.4089 77.875 86.6641 77.8594H83.8828V82.3203ZM91.7578 83.6953C91.7578 82.8672 91.9193 82.1224 92.2422 81.4609C92.5703 80.7995 93.0234 80.2891 93.6016 79.9297C94.1849 79.5703 94.849 79.3906 95.5938 79.3906C96.7448 79.3906 97.6745 79.7891 98.3828 80.5859C99.0964 81.3828 99.4531 82.4427 99.4531 83.7656V83.8672C99.4531 84.6901 99.2943 85.4297 98.9766 86.0859C98.6641 86.737 98.2135 87.2448 97.625 87.6094C97.0417 87.974 96.3698 88.1562 95.6094 88.1562C94.4635 88.1562 93.5339 87.7578 92.8203 86.9609C92.112 86.1641 91.7578 85.1094 91.7578 83.7969V83.6953ZM93.2109 83.8672C93.2109 84.8047 93.4271 85.5573 93.8594 86.125C94.2969 86.6927 94.8802 86.9766 95.6094 86.9766C96.3438 86.9766 96.9271 86.6901 97.3594 86.1172C97.7917 85.5391 98.0078 84.7318 98.0078 83.6953C98.0078 82.7682 97.7865 82.0182 97.3438 81.4453C96.9062 80.8672 96.3229 80.5781 95.5938 80.5781C94.8802 80.5781 94.3047 80.862 93.8672 81.4297C93.4297 81.9974 93.2109 82.8099 93.2109 83.8672ZM104.656 86.9766C105.172 86.9766 105.622 86.8203 106.008 86.5078C106.393 86.1953 106.607 85.8047 106.648 85.3359H108.016C107.99 85.8203 107.823 86.2812 107.516 86.7188C107.208 87.1562 106.797 87.5052 106.281 87.7656C105.771 88.026 105.229 88.1562 104.656 88.1562C103.505 88.1562 102.589 87.7734 101.906 87.0078C101.229 86.237 100.891 85.1849 100.891 83.8516V83.6094C100.891 82.7865 101.042 82.0547 101.344 81.4141C101.646 80.7734 102.078 80.276 102.641 79.9219C103.208 79.5677 103.878 79.3906 104.648 79.3906C105.596 79.3906 106.383 79.6745 107.008 80.2422C107.638 80.8099 107.974 81.5469 108.016 82.4531H106.648C106.607 81.9062 106.398 81.4583 106.023 81.1094C105.654 80.7552 105.195 80.5781 104.648 80.5781C103.914 80.5781 103.344 80.8438 102.938 81.375C102.536 81.901 102.336 82.6641 102.336 83.6641V83.9375C102.336 84.9115 102.536 85.6615 102.938 86.1875C103.339 86.7135 103.911 86.9766 104.656 86.9766ZM113.031 86.9766C113.547 86.9766 113.997 86.8203 114.383 86.5078C114.768 86.1953 114.982 85.8047 115.023 85.3359H116.391C116.365 85.8203 116.198 86.2812 115.891 86.7188C115.583 87.1562 115.172 87.5052 114.656 87.7656C114.146 88.026 113.604 88.1562 113.031 88.1562C111.88 88.1562 110.964 87.7734 110.281 87.0078C109.604 86.237 109.266 85.1849 109.266 83.8516V83.6094C109.266 82.7865 109.417 82.0547 109.719 81.4141C110.021 80.7734 110.453 80.276 111.016 79.9219C111.583 79.5677 112.253 79.3906 113.023 79.3906C113.971 79.3906 114.758 79.6745 115.383 80.2422C116.013 80.8099 116.349 81.5469 116.391 82.4531H115.023C114.982 81.9062 114.773 81.4583 114.398 81.1094C114.029 80.7552 113.57 80.5781 113.023 80.5781C112.289 80.5781 111.719 80.8438 111.312 81.375C110.911 81.901 110.711 82.6641 110.711 83.6641V83.9375C110.711 84.9115 110.911 85.6615 111.312 86.1875C111.714 86.7135 112.286 86.9766 113.031 86.9766ZM123.484 79.5469H124.93V88H123.484V81.8359L119.586 88H118.141V79.5469H119.586V85.7188L123.484 79.5469ZM132.719 79.5469H134.164V88H132.719V81.8359L128.82 88H127.375V79.5469H128.82V85.7188L132.719 79.5469ZM144.164 80.0312C145.227 80.0312 146.076 80.388 146.711 81.1016C147.352 81.8099 147.672 82.7448 147.672 83.9062V84.0391C147.672 84.8359 147.518 85.5495 147.211 86.1797C146.904 86.8047 146.461 87.2917 145.883 87.6406C145.31 87.9844 144.648 88.1562 143.898 88.1562C142.763 88.1562 141.849 87.7786 141.156 87.0234C140.464 86.263 140.117 85.2448 140.117 83.9688V83.2656C140.117 81.4896 140.445 80.0781 141.102 79.0312C141.763 77.9844 142.737 77.3464 144.023 77.1172C144.753 76.987 145.245 76.8281 145.5 76.6406C145.755 76.4531 145.883 76.1953 145.883 75.8672H147.07C147.07 76.5182 146.922 77.026 146.625 77.3906C146.333 77.7552 145.865 78.013 145.219 78.1641L144.141 78.4062C143.281 78.6094 142.635 78.9531 142.203 79.4375C141.776 79.9167 141.497 80.5573 141.367 81.3594C142.133 80.474 143.065 80.0312 144.164 80.0312ZM143.883 81.2188C143.174 81.2188 142.612 81.4583 142.195 81.9375C141.779 82.4115 141.57 83.0703 141.57 83.9141V84.0391C141.57 84.9453 141.779 85.6641 142.195 86.1953C142.617 86.7214 143.185 86.9844 143.898 86.9844C144.617 86.9844 145.185 86.7188 145.602 86.1875C146.018 85.6562 146.227 84.8802 146.227 83.8594C146.227 83.0625 146.016 82.4245 145.594 81.9453C145.177 81.4609 144.607 81.2188 143.883 81.2188ZM152.805 88.1562C151.659 88.1562 150.727 87.7812 150.008 87.0312C149.289 86.276 148.93 85.2682 148.93 84.0078V83.7422C148.93 82.9036 149.089 82.1562 149.406 81.5C149.729 80.8385 150.177 80.3229 150.75 79.9531C151.328 79.5781 151.953 79.3906 152.625 79.3906C153.724 79.3906 154.578 79.7526 155.188 80.4766C155.797 81.2005 156.102 82.237 156.102 83.5859V84.1875H150.375C150.396 85.0208 150.638 85.6953 151.102 86.2109C151.57 86.7214 152.164 86.9766 152.883 86.9766C153.393 86.9766 153.826 86.8724 154.18 86.6641C154.534 86.4557 154.844 86.1797 155.109 85.8359L155.992 86.5234C155.284 87.612 154.221 88.1562 152.805 88.1562ZM152.625 80.5781C152.042 80.5781 151.552 80.7917 151.156 81.2188C150.76 81.6406 150.516 82.2344 150.422 83H154.656V82.8906C154.615 82.1562 154.417 81.5885 154.062 81.1875C153.708 80.7812 153.229 80.5781 152.625 80.5781ZM161.172 86.9766C161.688 86.9766 162.138 86.8203 162.523 86.5078C162.909 86.1953 163.122 85.8047 163.164 85.3359H164.531C164.505 85.8203 164.339 86.2812 164.031 86.7188C163.724 87.1562 163.312 87.5052 162.797 87.7656C162.286 88.026 161.745 88.1562 161.172 88.1562C160.021 88.1562 159.104 87.7734 158.422 87.0078C157.745 86.237 157.406 85.1849 157.406 83.8516V83.6094C157.406 82.7865 157.557 82.0547 157.859 81.4141C158.161 80.7734 158.594 80.276 159.156 79.9219C159.724 79.5677 160.393 79.3906 161.164 79.3906C162.112 79.3906 162.898 79.6745 163.523 80.2422C164.154 80.8099 164.49 81.5469 164.531 82.4531H163.164C163.122 81.9062 162.914 81.4583 162.539 81.1094C162.169 80.7552 161.711 80.5781 161.164 80.5781C160.43 80.5781 159.859 80.8438 159.453 81.375C159.052 81.901 158.852 82.6641 158.852 83.6641V83.9375C158.852 84.9115 159.052 85.6615 159.453 86.1875C159.854 86.7135 160.427 86.9766 161.172 86.9766ZM173.07 88H171.625V80.7422H167.734V88H166.281V79.5469H173.07V88ZM182.32 79.5469V88H180.867V80.7422H177.992L177.82 83.9062C177.727 85.3594 177.482 86.3984 177.086 87.0234C176.695 87.6484 176.073 87.974 175.219 88H174.641V86.7266L175.055 86.6953C175.523 86.6432 175.859 86.3724 176.062 85.8828C176.266 85.3932 176.396 84.487 176.453 83.1641L176.609 79.5469H182.32ZM189.859 88C189.776 87.8333 189.708 87.5365 189.656 87.1094C188.984 87.8073 188.182 88.1562 187.25 88.1562C186.417 88.1562 185.732 87.9219 185.195 87.4531C184.664 86.9792 184.398 86.3802 184.398 85.6562C184.398 84.776 184.732 84.0938 185.398 83.6094C186.07 83.1198 187.013 82.875 188.227 82.875H189.633V82.2109C189.633 81.7057 189.482 81.3047 189.18 81.0078C188.878 80.7057 188.432 80.5547 187.844 80.5547C187.328 80.5547 186.896 80.6849 186.547 80.9453C186.198 81.2057 186.023 81.5208 186.023 81.8906H184.57C184.57 81.4688 184.719 81.0625 185.016 80.6719C185.318 80.276 185.724 79.9635 186.234 79.7344C186.75 79.5052 187.315 79.3906 187.93 79.3906C188.904 79.3906 189.667 79.6354 190.219 80.125C190.771 80.6094 191.057 81.2786 191.078 82.1328V86.0234C191.078 86.7995 191.177 87.4167 191.375 87.875V88H189.859ZM187.461 86.8984C187.914 86.8984 188.344 86.7812 188.75 86.5469C189.156 86.3125 189.451 86.0078 189.633 85.6328V83.8984H188.5C186.729 83.8984 185.844 84.4167 185.844 85.4531C185.844 85.9062 185.995 86.2604 186.297 86.5156C186.599 86.7708 186.987 86.8984 187.461 86.8984ZM199.5 80.7188H196.664V88H195.219V80.7188H192.438V79.5469H199.5V80.7188ZM207.812 88H206.367V84.3906H202.484V88H201.031V79.5469H202.484V83.2109H206.367V79.5469H207.812V88ZM211.719 82.4609H213.914C214.872 82.4714 215.63 82.7214 216.188 83.2109C216.745 83.7005 217.023 84.3646 217.023 85.2031C217.023 86.0469 216.737 86.724 216.164 87.2344C215.591 87.7448 214.82 88 213.852 88H210.273V79.5469H211.719V82.4609ZM220.039 88H218.586V79.5469H220.039V88ZM211.719 83.6406V86.8203H213.867C214.409 86.8203 214.828 86.6823 215.125 86.4062C215.422 86.125 215.57 85.7422 215.57 85.2578C215.57 84.7891 215.424 84.4062 215.133 84.1094C214.846 83.8073 214.443 83.651 213.922 83.6406H211.719ZM228.031 79.5469H229.477V88H228.031V81.8359L224.133 88H222.688V79.5469H224.133V85.7188L228.031 79.5469ZM228.422 76.4688C228.422 77.099 228.206 77.6068 227.773 77.9922C227.346 78.3724 226.784 78.5625 226.086 78.5625C225.388 78.5625 224.823 78.3698 224.391 77.9844C223.958 77.599 223.742 77.0938 223.742 76.4688H224.922C224.922 76.8333 225.021 77.1198 225.219 77.3281C225.417 77.5312 225.706 77.6328 226.086 77.6328C226.451 77.6328 226.734 77.5312 226.938 77.3281C227.146 77.125 227.25 76.8385 227.25 76.4688H228.422Z" fill="#141414" fill-opacity="0.7"/>
				<path d="M1.54492 120.312C1.54492 118.034 2.44727 116.375 4.25195 115.336C2.68424 114.479 1.90039 112.939 1.90039 110.715C1.90039 109.074 2.37435 107.844 3.32227 107.023C4.2793 106.194 5.53255 105.779 7.08203 105.779C8.63151 105.779 9.88021 106.194 10.8281 107.023C11.7852 107.844 12.2637 109.074 12.2637 110.715C12.2637 113.003 11.5163 114.543 10.0215 115.336C10.9238 115.746 11.5846 116.343 12.0039 117.127C12.4232 117.911 12.6328 118.973 12.6328 120.312C12.6328 122.473 12.1862 124.04 11.293 125.016C10.4089 125.991 8.99609 126.479 7.05469 126.479C5.15885 126.479 3.76432 125.991 2.87109 125.016C1.98698 124.031 1.54492 122.464 1.54492 120.312ZM5.12695 120.682C5.12695 121.602 5.29557 122.299 5.63281 122.773C5.97005 123.247 6.45312 123.484 7.08203 123.484C7.71094 123.484 8.19401 123.243 8.53125 122.76C8.8776 122.277 9.05078 121.575 9.05078 120.654V119.561C9.05078 117.783 8.39453 116.895 7.08203 116.895C5.77865 116.895 5.12695 117.801 5.12695 119.615V120.682ZM5.3457 111.467C5.3457 113.208 5.92448 114.078 7.08203 114.078C8.23958 114.078 8.81836 113.208 8.81836 111.467C8.81836 110.51 8.6862 109.822 8.42188 109.402C8.15755 108.983 7.71094 108.773 7.08203 108.773C6.47135 108.773 6.0293 108.983 5.75586 109.402C5.48242 109.822 5.3457 110.51 5.3457 111.467ZM15.1484 120.066V117.605H22.2852V120.066H15.1484ZM24.8145 120.312C24.8145 118.034 25.7168 116.375 27.5215 115.336C25.9538 114.479 25.1699 112.939 25.1699 110.715C25.1699 109.074 25.6439 107.844 26.5918 107.023C27.5488 106.194 28.8021 105.779 30.3516 105.779C31.901 105.779 33.1497 106.194 34.0977 107.023C35.0547 107.844 35.5332 109.074 35.5332 110.715C35.5332 113.003 34.7858 114.543 33.291 115.336C34.1934 115.746 34.8542 116.343 35.2734 117.127C35.6927 117.911 35.9023 118.973 35.9023 120.312C35.9023 122.473 35.4557 124.04 34.5625 125.016C33.6784 125.991 32.2656 126.479 30.3242 126.479C28.4284 126.479 27.0339 125.991 26.1406 125.016C25.2565 124.031 24.8145 122.464 24.8145 120.312ZM28.3965 120.682C28.3965 121.602 28.5651 122.299 28.9023 122.773C29.2396 123.247 29.7227 123.484 30.3516 123.484C30.9805 123.484 31.4635 123.243 31.8008 122.76C32.1471 122.277 32.3203 121.575 32.3203 120.654V119.561C32.3203 117.783 31.6641 116.895 30.3516 116.895C29.0482 116.895 28.3965 117.801 28.3965 119.615V120.682ZM28.6152 111.467C28.6152 113.208 29.194 114.078 30.3516 114.078C31.5091 114.078 32.0879 113.208 32.0879 111.467C32.0879 110.51 31.9557 109.822 31.6914 109.402C31.4271 108.983 30.9805 108.773 30.3516 108.773C29.7409 108.773 29.2988 108.983 29.0254 109.402C28.752 109.822 28.6152 110.51 28.6152 111.467ZM38.9785 121.105V111.043C38.9785 109.484 39.5117 108.217 40.5781 107.242C41.6536 106.267 42.9844 105.779 44.5703 105.779C46.2565 105.779 47.5964 106.253 48.5898 107.201C49.5924 108.14 50.0938 109.421 50.0938 111.043V121.105C50.0938 122.737 49.5924 124.04 48.5898 125.016C47.5872 125.991 46.2474 126.479 44.5703 126.479C42.9935 126.479 41.6673 125.977 40.5918 124.975C39.5163 123.963 38.9785 122.673 38.9785 121.105ZM42.5605 121.434C42.5605 122.017 42.7565 122.491 43.1484 122.855C43.5404 123.22 44.0143 123.402 44.5703 123.402C45.0898 123.402 45.541 123.206 45.9238 122.814C46.3158 122.413 46.5117 121.917 46.5117 121.324V110.688C46.5117 110.113 46.3203 109.667 45.9375 109.348C45.5638 109.029 45.1081 108.869 44.5703 108.869C44.0143 108.869 43.5404 109.038 43.1484 109.375C42.7565 109.703 42.5605 110.15 42.5605 110.715V121.434ZM53.1699 121.105V111.043C53.1699 109.484 53.7031 108.217 54.7695 107.242C55.8451 106.267 57.1758 105.779 58.7617 105.779C60.4479 105.779 61.7878 106.253 62.7812 107.201C63.7839 108.14 64.2852 109.421 64.2852 111.043V121.105C64.2852 122.737 63.7839 124.04 62.7812 125.016C61.7786 125.991 60.4388 126.479 58.7617 126.479C57.1849 126.479 55.8587 125.977 54.7832 124.975C53.7077 123.963 53.1699 122.673 53.1699 121.105ZM56.752 121.434C56.752 122.017 56.9479 122.491 57.3398 122.855C57.7318 123.22 58.2057 123.402 58.7617 123.402C59.2812 123.402 59.7324 123.206 60.1152 122.814C60.5072 122.413 60.7031 121.917 60.7031 121.324V110.688C60.7031 110.113 60.5117 109.667 60.1289 109.348C59.7552 109.029 59.2995 108.869 58.7617 108.869C58.2057 108.869 57.7318 109.038 57.3398 109.375C56.9479 109.703 56.752 110.15 56.752 110.715V121.434ZM66.8008 120.066V117.605H73.9375V120.066H66.8008ZM75.6465 112.342V109.621H76.125C77.5469 109.621 78.6862 109.298 79.543 108.65C80.3997 108.003 80.9512 107.169 81.1973 106.148H83.7949V126H80.2129V112.342H75.6465ZM89.7285 121.105V111.043C89.7285 109.484 90.2617 108.217 91.3281 107.242C92.4036 106.267 93.7344 105.779 95.3203 105.779C97.0065 105.779 98.3464 106.253 99.3398 107.201C100.342 108.14 100.844 109.421 100.844 111.043V121.105C100.844 122.737 100.342 124.04 99.3398 125.016C98.3372 125.991 96.9974 126.479 95.3203 126.479C93.7435 126.479 92.4173 125.977 91.3418 124.975C90.2663 123.963 89.7285 122.673 89.7285 121.105ZM93.3105 121.434C93.3105 122.017 93.5065 122.491 93.8984 122.855C94.2904 123.22 94.7643 123.402 95.3203 123.402C95.8398 123.402 96.291 123.206 96.6738 122.814C97.0658 122.413 97.2617 121.917 97.2617 121.324V110.688C97.2617 110.113 97.0703 109.667 96.6875 109.348C96.3138 109.029 95.8581 108.869 95.3203 108.869C94.7643 108.869 94.2904 109.038 93.8984 109.375C93.5065 109.703 93.3105 110.15 93.3105 110.715V121.434ZM103.92 121.105V111.043C103.92 109.484 104.453 108.217 105.52 107.242C106.595 106.267 107.926 105.779 109.512 105.779C111.198 105.779 112.538 106.253 113.531 107.201C114.534 108.14 115.035 109.421 115.035 111.043V121.105C115.035 122.737 114.534 124.04 113.531 125.016C112.529 125.991 111.189 126.479 109.512 126.479C107.935 126.479 106.609 125.977 105.533 124.975C104.458 123.963 103.92 122.673 103.92 121.105ZM107.502 121.434C107.502 122.017 107.698 122.491 108.09 122.855C108.482 123.22 108.956 123.402 109.512 123.402C110.031 123.402 110.482 123.206 110.865 122.814C111.257 122.413 111.453 121.917 111.453 121.324V110.688C111.453 110.113 111.262 109.667 110.879 109.348C110.505 109.029 110.049 108.869 109.512 108.869C108.956 108.869 108.482 109.038 108.09 109.375C107.698 109.703 107.502 110.15 107.502 110.715V121.434ZM117.551 120.066V117.605H124.688V120.066H117.551ZM126.82 121.994V118.412L132.426 106.148H136.678V118.918H138.469V121.994H136.678V126H133.096V121.994H126.82ZM129.418 118.918H133.096V110.715L129.418 118.918ZM140.574 121.994V118.412L146.18 106.148H150.432V118.918H152.223V121.994H150.432V126H146.85V121.994H140.574ZM143.172 118.918H146.85V110.715L143.172 118.918ZM154.164 120.066V117.605H161.301V120.066H154.164ZM163.83 121.105V111.043C163.83 109.484 164.363 108.217 165.43 107.242C166.505 106.267 167.836 105.779 169.422 105.779C171.108 105.779 172.448 106.253 173.441 107.201C174.444 108.14 174.945 109.421 174.945 111.043V121.105C174.945 122.737 174.444 124.04 173.441 125.016C172.439 125.991 171.099 126.479 169.422 126.479C167.845 126.479 166.519 125.977 165.443 124.975C164.368 123.963 163.83 122.673 163.83 121.105ZM167.412 121.434C167.412 122.017 167.608 122.491 168 122.855C168.392 123.22 168.866 123.402 169.422 123.402C169.941 123.402 170.393 123.206 170.775 122.814C171.167 122.413 171.363 121.917 171.363 121.324V110.688C171.363 110.113 171.172 109.667 170.789 109.348C170.415 109.029 169.96 108.869 169.422 108.869C168.866 108.869 168.392 109.038 168 109.375C167.608 109.703 167.412 110.15 167.412 110.715V121.434ZM177.406 109.225V106.148H188.85V109.006C188.257 110.154 187.729 111.289 187.264 112.41C186.799 113.522 186.334 114.789 185.869 116.211C185.404 117.633 185.017 119.178 184.707 120.846C184.397 122.505 184.183 124.223 184.064 126H180.086C180.414 122.992 181.048 119.966 181.986 116.922C182.925 113.868 183.992 111.303 185.186 109.225H177.406Z" fill="#02906D"/>
			</svg>
		</g>
	</symbol>

	<!-- message -->
	<symbol id="ic_message" viewBox="0 0 27 14">
		<g>
			<svg width="54" height="54" viewBox="0 0 54 54" fill="none" xmlns="http://www.w3.org/2000/svg">
				<rect width="54" height="54" rx="27" fill="#02906D"/>
				<path d="M40 17H14L27 27.708L40.147 17.03C40.0989 17.0159 40.0497 17.0059 40 17Z" fill="white"/>
				<path d="M27.631 29.7756C27.2625 30.0773 26.7324 30.0773 26.364 29.7756L13 18.7656V35.9996C13 36.5519 13.4477 36.9996 14 36.9996H40C40.5523 36.9996 41 36.5519 41 35.9996V18.9136L27.631 29.7756Z" fill="white"/>
			</svg>
		</g>
	</symbol>



</svg>