<svg display="none" xmlns="http://www.w3.org/2000/svg">

	<!-- btn-donwload -->
	<symbol id="ic_btn-donwload" viewBox="0 0 20 20">
		<g>
			<g clip-path="url(#clip0_726_10591)">
				<path d="M9.99977 15.7143L16.4283 9.28574L14.2855 7.1429L11.4284 10V0H8.57126V10L5.71413 7.1429L3.57129 9.28574L9.99977 15.7143Z"/>
				<path d="M0 17.1426H20V19.9997H0V17.1426Z"/>
			</g>
			<defs>
				<clipPath id="clip0_726_10591">
					<rect width="20" height="20"/>
				</clipPath>
			</defs>
		</g>
	</symbol>

	<!-- show-filter -->
	<symbol id="ic_show-filter" viewBox="0 0 19 20">
		<g>
			<path d="M17.5 0.5H1.5C1.23478 0.5 0.98043 0.605357 0.792893 0.792893C0.605357 0.98043 0.5 1.23478 0.5 1.5V4.09C0.5 4.613 0.713 5.127 1.083 5.497L6.5 10.914V18.5C6.5002 18.6704 6.54387 18.8379 6.6269 18.9867C6.70992 19.1354 6.82955 19.2605 6.97444 19.3502C7.11934 19.4398 7.28471 19.4909 7.4549 19.4988C7.6251 19.5066 7.79447 19.4709 7.947 19.395L11.947 17.395C12.286 17.225 12.5 16.879 12.5 16.5V10.914L17.917 5.497C18.287 5.127 18.5 4.613 18.5 4.09V1.5C18.5 1.23478 18.3946 0.98043 18.2071 0.792893C18.0196 0.605357 17.7652 0.5 17.5 0.5ZM10.793 9.793C10.7 9.88571 10.6262 9.9959 10.5759 10.1172C10.5256 10.2386 10.4998 10.3687 10.5 10.5V15.882L8.5 16.882V10.5C8.50019 10.3687 8.4744 10.2386 8.42412 10.1172C8.37383 9.9959 8.30004 9.88571 8.207 9.793L2.5 4.09V2.5H16.501L16.503 4.083L10.793 9.793Z"/>
		</g>
	</symbol>


	<!-- arrow-to-bot -->
	<symbol id="ic_arrow-to" viewBox="0 0 15 3">
		<g>
			<path fill-rule="evenodd" clip-rule="evenodd" d="M-2.74886e-08 2.70128L2.01463 0L7.5 4.60677L12.9854 0L15 2.70128L7.5 9L-2.74886e-08 2.70128Z"/>
		</g>
	</symbol>

	<!-- search-ic -->
	<symbol id="ic_search" viewBox="0 0 23 23">
		<g>
			<path d="M9.75 18.5C14.5825 18.5 18.5 14.5825 18.5 9.75C18.5 4.91751 14.5825 1 9.75 1C4.91751 1 1 4.91751 1 9.75C1 14.5825 4.91751 18.5 9.75 18.5Z" stroke-width="2" stroke-miterlimit="5"/>
			<path d="M22.0003 22.0003L15.9365 15.9365" stroke-width="2" stroke-miterlimit="5"/>
		</g>
	</symbol>

	<!-- lang-earth-ic -->
	<symbol id="ic_lang" viewBox="0 0 23 23">
		<g>
			<path d="M20.25 5.88672C17.5901 7.42228 14.5713 8.22679 11.5 8.21859C8.4287 8.22679 5.40989 7.42228 2.75 5.88672" stroke="#032019" stroke-width="1.6" stroke-miterlimit="5"/>
			<path d="M2.75 17.1352C5.40617 15.6058 8.41746 14.8008 11.4825 14.8008C14.5475 14.8008 17.5588 15.6058 20.215 17.1352" stroke="#032019" stroke-width="1.6" stroke-miterlimit="5"/>
			<path d="M10.1875 22C7.91561 18.9708 6.6875 15.2865 6.6875 11.5C6.6875 7.71352 7.91561 4.02918 10.1875 1" stroke="#032019" stroke-width="1.6" stroke-miterlimit="5"/>
			<path d="M12.8125 1C15.0844 4.02918 16.3125 7.71352 16.3125 11.5C16.3125 15.2865 15.0844 18.9708 12.8125 22" stroke="#032019" stroke-width="1.6" stroke-miterlimit="5"/>
			<path d="M11.5 22C17.299 22 22 17.299 22 11.5C22 5.70101 17.299 1 11.5 1C5.70101 1 1 5.70101 1 11.5C1 17.299 5.70101 22 11.5 22Z" stroke="#032019" stroke-width="1.6" stroke-miterlimit="5"/>
		</g>
	</symbol>

	<!-- picture-link -->
	<symbol id="ic_picture-link" viewBox="0 0 16 16">
		<g>
			<path d="M14.1526 15L14.1526 1.91892L1.59473 1.91892" stroke-width="2" stroke-linecap="square"/>
			<path d="M13.4868 2.51325L2.18945 13.8105" stroke-width="2" stroke-linecap="square" stroke-linejoin="round"/>
		</g>
	</symbol>

	<!-- close-ic-X -->
	<symbol id="ic_close" viewBox="0 0 11 11">
		<g>
			<path d="M6.75908 5.49959L10.2845 1.9742C10.4518 1.80718 10.5459 1.58054 10.5461 1.34413C10.5463 1.10772 10.4526 0.88091 10.2856 0.713596C10.1186 0.546281 9.89192 0.452168 9.65552 0.451959C9.41911 0.45175 9.1923 0.545463 9.02498 0.712483L5.49959 4.23787L1.9742 0.712483C1.80689 0.545168 1.57996 0.451172 1.34334 0.451172C1.10672 0.451172 0.879797 0.545168 0.712483 0.712483C0.545168 0.879797 0.451172 1.10672 0.451172 1.34334C0.451172 1.57996 0.545168 1.80689 0.712483 1.9742L4.23787 5.49959L0.712483 9.02498C0.545168 9.1923 0.451172 9.41922 0.451172 9.65584C0.451172 9.89246 0.545168 10.1194 0.712483 10.2867C0.879797 10.454 1.10672 10.548 1.34334 10.548C1.57996 10.548 1.80689 10.454 1.9742 10.2867L5.49959 6.76131L9.02498 10.2867C9.1923 10.454 9.41922 10.548 9.65584 10.548C9.89246 10.548 10.1194 10.454 10.2867 10.2867C10.454 10.1194 10.548 9.89246 10.548 9.65584C10.548 9.41922 10.454 9.1923 10.2867 9.02498L6.75908 5.49959Z"/>
		</g>
	</symbol>

	<!-- printer -->
	<symbol id="ic_printer" viewBox="0 0 23 23" >
		<g>

			<path d="M20.3047 7.14258H18.0137V0H4.98633V7.14258H2.69531C1.20903 7.14258 0 8.35161 0 9.83789V17.1152C0 18.6015 1.20903 19.8105 2.69531 19.8105H4.98633V23H18.0137V19.8105H20.3047C21.791 19.8105 23 18.6015 23 17.1152V9.83789C23 8.35161 21.791 7.14258 20.3047 7.14258ZM6.7832 1.79688H16.2168V7.14258H6.7832V1.79688ZM6.7832 21.2031V15.2285H16.2168V21.2031H6.7832ZM21.2031 17.1152C21.2031 17.6106 20.8001 18.0137 20.3047 18.0137H18.0137V15.2285H19.4062V13.4316H3.59375V15.2285H4.98633V18.0137H2.69531C2.19994 18.0137 1.79688 17.6106 1.79688 17.1152V9.83789C1.79688 9.34252 2.19994 8.93945 2.69531 8.93945H20.3047C20.8001 8.93945 21.2031 9.34252 21.2031 9.83789V17.1152ZM14.4199 3.59375V5.39062H8.58008V3.59375H14.4199Z" fill="#A9AEB2"/>

		</g>
	</symbol>

	<!-- link-share -->
	<symbol id="ic_link-share" viewBox="0 0 23 23" >
		<g>

			<g clip-path="url(#clip0_739_7309)">
				<path d="M21.3082 3.83327C21.3082 5.55347 19.9138 6.94798 18.1936 6.94798C16.4734 6.94798 15.0791 5.55347 15.0791 3.83327C15.0791 2.11326 16.4734 0.71875 18.1936 0.71875C19.9138 0.71875 21.3082 2.11326 21.3082 3.83327Z" fill="#A9AEB2"/>
				<path d="M18.1936 7.66673C16.0795 7.66673 14.3604 5.94741 14.3604 3.83327C14.3604 1.71931 16.0795 0 18.1936 0C20.3078 0 22.0269 1.71931 22.0269 3.83327C22.0269 5.94741 20.3078 7.66673 18.1936 7.66673ZM18.1936 1.4375C16.8721 1.4375 15.7979 2.51282 15.7979 3.83327C15.7979 5.15391 16.8721 6.22923 18.1936 6.22923C19.5151 6.22923 20.5894 5.15391 20.5894 3.83327C20.5894 2.51282 19.5151 1.4375 18.1936 1.4375Z" fill="#A9AEB2"/>
				<path d="M21.3082 19.1674C21.3082 20.8875 19.9138 22.282 18.1936 22.282C16.4734 22.282 15.0791 20.8875 15.0791 19.1674C15.0791 17.4472 16.4734 16.0527 18.1936 16.0527C19.9138 16.0527 21.3082 17.4472 21.3082 19.1674Z" fill="#A9AEB2"/>
				<path d="M18.1936 23.0007C16.0795 23.0007 14.3604 21.2814 14.3604 19.1674C14.3604 17.0533 16.0795 15.334 18.1936 15.334C20.3078 15.334 22.0269 17.0533 22.0269 19.1674C22.0269 21.2814 20.3078 23.0007 18.1936 23.0007ZM18.1936 16.7715C16.8721 16.7715 15.7979 17.8468 15.7979 19.1674C15.7979 20.4879 16.8721 21.5632 18.1936 21.5632C19.5151 21.5632 20.5894 20.4879 20.5894 19.1674C20.5894 17.8468 19.5151 16.7715 18.1936 16.7715Z" fill="#A9AEB2"/>
				<path d="M7.89133 11.4993C7.89133 13.2195 6.49683 14.6138 4.77663 14.6138C3.05662 14.6138 1.66211 13.2195 1.66211 11.4993C1.66211 9.7791 3.05662 8.38477 4.77663 8.38477C6.49683 8.38477 7.89133 9.7791 7.89133 11.4993Z" fill="#A9AEB2"/>
				<path d="M4.77663 15.3326C2.66267 15.3326 0.943359 13.6134 0.943359 11.4993C0.943359 9.38515 2.66267 7.66602 4.77663 7.66602C6.89077 7.66602 8.61008 9.38515 8.61008 11.4993C8.61008 13.6134 6.89077 15.3326 4.77663 15.3326ZM4.77663 9.10352C3.45512 9.10352 2.38086 10.1787 2.38086 11.4993C2.38086 12.8199 3.45512 13.8951 4.77663 13.8951C6.09832 13.8951 7.17258 12.8199 7.17258 11.4993C7.17258 10.1787 6.09832 9.10352 4.77663 9.10352Z" fill="#A9AEB2"/>
				<path d="M7.03937 11.0402C6.70579 11.0402 6.38186 10.8667 6.20551 10.5562C5.94387 10.0972 6.10496 9.51163 6.564 9.24894L15.4563 4.17944C15.9153 3.91587 16.5009 4.07696 16.7636 4.53776C17.0252 4.99681 16.8641 5.58237 16.4051 5.84506L7.51263 10.9146C7.36312 10.9998 7.20028 11.0402 7.03937 11.0402Z" fill="#A9AEB2"/>
				<path d="M15.9307 18.9463C15.7696 18.9463 15.6068 18.9059 15.4573 18.8206L6.56485 13.7511C6.1058 13.4895 5.94489 12.9039 6.20652 12.4438C6.46711 11.9839 7.05355 11.8219 7.51364 12.0855L16.4061 17.155C16.8651 17.4167 17.026 18.0022 16.7644 18.4623C16.5871 18.7727 16.2632 18.9463 15.9307 18.9463Z" fill="#A9AEB2"/>
			</g>
			<defs>
				<clipPath id="clip0_739_7309">
					<rect width="23" height="23" fill="white"/>
				</clipPath>
			</defs>

		</g>
	</symbol>

	<!-- link-to-news -->
	<symbol id="ic_link-to-news" viewBox="0 0 14 14" >
		<g>
			<path d="M11.1678 13.6673H2.00114C1.55911 13.6673 1.13519 13.4917 0.822628 13.1792C0.510067 12.8666 0.334473 12.4427 0.334473 12.0007V2.83398C0.334473 2.39196 0.510067 1.96803 0.822628 1.65547C1.13519 1.34291 1.55911 1.16732 2.00114 1.16732H5.33447V2.83398H2.00114V12.0007H11.1678V8.66732H12.8345V12.0007C12.8345 12.4427 12.6589 12.8666 12.3463 13.1792C12.0338 13.4917 11.6098 13.6673 11.1678 13.6673ZM6.75114 8.42315L5.57614 7.24482L10.8203 2.00065H7.83447V0.333984H13.6678V6.16732H12.0011V3.17982L6.75114 8.42315Z"/>
		</g>
	</symbol>

	<!-- clip -->
	<symbol id="ic_clip" viewBox="0 0 39 38" >
		<g>
			<path d="M35.6944 3.21215C31.42 -1.07154 24.5867 -1.0706 20.3134 3.21427L2.39064 21.5716C-0.850141 24.9692 -0.788206 30.4143 2.52898 33.7337C5.7916 36.9985 11.0022 36.9985 14.2648 33.7337L30.4941 17.1109C32.604 14.9499 32.604 11.4462 30.4941 9.28519C28.3843 7.1242 24.9635 7.1242 22.8537 9.28519L7.32996 25.1852C6.78851 25.7594 6.80405 26.6745 7.36469 27.229C7.9116 27.7701 8.77861 27.7701 9.32552 27.229L24.8491 11.329C25.8786 10.319 27.5125 10.355 28.4986 11.4093C29.4549 12.4319 29.4549 14.0445 28.4986 15.067L12.2694 31.6897C10.0769 33.9034 6.54747 33.8775 4.3862 31.6319C2.24676 29.409 2.24676 25.8384 4.3862 23.6155L22.3089 5.25812C25.5014 1.98704 30.6783 1.98611 33.8719 5.25592C37.0656 8.52573 37.0665 13.8282 33.8741 17.0993L15.9513 35.4566C15.3593 35.9759 15.2904 36.8884 15.7973 37.4947C16.3043 38.101 17.1952 38.1717 17.7872 37.6524C17.8424 37.604 17.8938 37.5513 17.9411 37.4947L35.8639 19.1374C40.1106 14.6918 40.0348 7.56182 35.6944 3.21215Z"/>
		</g>
	</symbol>

	<!-- PDF -->
	<symbol id="ic_PDF" viewBox="0 0 95 55" >
		<g>

			<path d="M24.7829 12.6875H12.3916V20.9484V41.6005H16.522V29.2092H24.7829C29.3265 29.2092 33.0438 25.4917 33.0438 20.9484C33.0438 16.4048 29.3265 12.6875 24.7829 12.6875ZM24.7829 25.0788H16.522V16.8179H24.7829C27.2612 16.8179 28.9133 18.4701 28.9133 20.9484C28.9133 23.4266 27.2612 25.0788 24.7829 25.0788Z" fill="#02906D"/>
			<path d="M82.6087 0.294922H12.3913C5.36946 0.294922 0 5.66438 0 12.6862V41.5993C0 48.6211 5.36946 53.9906 12.3913 53.9906H82.6087C89.6305 53.9906 95 48.6211 95 41.5993V12.6862C95 5.66438 89.6305 0.294922 82.6087 0.294922ZM90.8696 41.5993C90.8696 46.1426 87.1521 49.8601 82.6087 49.8601H12.3913C7.84772 49.8601 4.13043 46.1426 4.13043 41.5993V12.6862C4.13043 8.14264 7.84772 4.42536 12.3913 4.42536H82.6087C87.1521 4.42536 90.8696 8.14264 90.8696 12.6862V41.5993Z" fill="#02906D"/>
			<path d="M49.5651 12.6875H37.1738V41.6005H49.5651C54.1085 41.6005 57.826 37.883 57.826 33.3397V20.9484C57.826 16.4048 54.1085 12.6875 49.5651 12.6875ZM53.6956 33.3397C53.6956 35.8179 52.0434 37.4701 49.5651 37.4701H41.3043V16.8179H49.5651C52.0434 16.8179 53.6956 18.4701 53.6956 20.9484V33.3397Z" fill="#02906D"/>
			<path d="M61.957 41.6005H66.0875V29.2092H78.4788V25.0788H66.0875V16.8179H82.6092V12.6875H61.957V41.6005Z" fill="#02906D"/>

		</g>
	</symbol>

	<!-- 3D -->
	<symbol id="ic_3D" viewBox="0 0 95 55" >
		<g>

			<path d="M82.6087 0.296875H12.3913C5.36946 0.296875 0 5.66633 0 12.6882V41.6012C0 48.6231 5.36946 53.9925 12.3913 53.9925H82.6087C89.6305 53.9925 95 48.6231 95 41.6012V12.6882C95 5.66633 89.6305 0.296875 82.6087 0.296875ZM90.8696 41.6012C90.8696 46.1446 87.1521 49.8621 82.6087 49.8621H12.3913C7.84772 49.8621 4.13043 46.1446 4.13043 41.6012V12.6882C4.13043 8.14459 7.84772 4.42731 12.3913 4.42731H82.6087C87.1521 4.42731 90.8696 8.14459 90.8696 12.6882V41.6012Z" fill="#02906D"/>
			<g clip-path="url(#clip0_739_6935)">
				<path d="M55.9042 12.2815C55.7537 11.9891 55.5226 11.7433 55.2365 11.5715C54.9505 11.3997 54.621 11.3086 54.2848 11.3086H36.1908C35.5051 11.3086 34.879 11.6851 34.5714 12.2815L27.3339 26.3555C27.2081 26.6 27.1426 26.8695 27.1426 27.1428C27.1426 27.4161 27.2081 27.6857 27.3339 27.9301L34.5714 42.0041C34.879 42.5988 35.5051 42.9753 36.1908 42.9753H54.2848C54.9706 42.9753 55.5966 42.5988 55.9042 42.0024L63.1418 27.9283C63.2676 27.6839 63.3331 27.4144 63.3331 27.141C63.3331 26.8677 63.2676 26.5982 63.1418 26.3538L55.9042 12.2815ZM58.5948 25.3827H44.5466L39.1184 14.8271H53.1666L58.5948 25.3827ZM30.9762 27.1419L36.1908 17.0016L41.4055 27.1419L36.1908 37.2823L30.9762 27.1419ZM53.1666 39.4567H39.1184L44.5466 28.9012H58.5948L53.1666 39.4567Z" fill="#02906D"/>
			</g>
			<defs>
				<clipPath id="clip0_739_6935">
					<rect width="38.4524" height="38.4524" fill="white" transform="translate(27.1426 6.78516)"/>
				</clipPath>
			</defs>

		</g>
	</symbol>


	<!-- phone -->
	<symbol id="ic_phone" viewBox="0 0 53 53">
		<g>
			<rect width="53" height="53" rx="26.5" fill="#02906D"/>
			<path d="M37.8684 30.7774C36.2029 30.7774 34.5716 30.5173 33.0255 30.0071C32.2709 29.7471 31.414 29.9475 30.9181 30.4534L27.8529 32.7683C24.3357 30.8911 22.0848 28.6415 20.2332 25.15L22.4855 22.1573C23.0525 21.5903 23.2558 20.7604 23.0128 19.9831C22.4983 18.427 22.2369 16.7942 22.2369 15.1316C22.2369 13.9563 21.2805 13 20.1053 13H15.1316C13.9563 13 13 13.9563 13 15.1316C13 28.8433 24.1567 40 37.8684 40C39.0437 40 40 39.0437 40 37.8684V32.909C40 31.7337 39.0437 30.7774 37.8684 30.7774Z" fill="white"/>
		</g>
	</symbol>

	<!-- message -->
	<symbol id="ic_message" viewBox="0 0 54 54">
		<g>
			<rect width="54" height="54" rx="27" fill="#02906D"/>
			<path d="M40 17H14L27 27.708L40.147 17.03C40.0989 17.0159 40.0497 17.0059 40 17Z" fill="white"/>
			<path d="M27.631 29.7756C27.2625 30.0773 26.7324 30.0773 26.364 29.7756L13 18.7656V35.9996C13 36.5519 13.4477 36.9996 14 36.9996H40C40.5523 36.9996 41 36.5519 41 35.9996V18.9136L27.631 29.7756Z" fill="white"/>
		</g>
	</symbol>

</svg>