<svg display="none" xmlns="http://www.w3.org/2000/svg">

	<symbol  id="ic_career-1" viewBox="0 0 64 64">
		<g>
			<g clip-path="url(#clip0_497_4174)">
				<path d="M11.4403 7.0332H11.4251C9.11025 7.06708 7.2275 8.97883 7.2275 11.2948V17.3848H0.942C0.42175 17.3848 0 17.8066 0 18.3268C0 18.8471 0.42175 19.2688 0.942 19.2688H7.22763V24.2216H0.942C0.42175 24.2216 0 24.6433 0 25.1636C0 25.6838 0.42175 26.1056 0.942 26.1056H7.22763V31.0582H0.942C0.42175 31.0583 0 31.4801 0 32.0003C0 32.5206 0.42175 32.9423 0.942 32.9423H7.22763V37.895H0.942C0.42175 37.895 0 38.3167 0 38.837C0 39.3572 0.42175 39.779 0.942 39.779H7.22763V44.7317H0.942C0.42175 44.7317 0 45.1535 0 45.6737C0 46.194 0.42175 46.6157 0.942 46.6157H7.22763V49.837C7.22763 50.357 7.64963 50.779 8.16963 50.779C8.68963 50.779 9.11163 50.357 9.11163 49.837V11.295C9.11163 10.0025 10.1616 8.9362 11.4541 8.91608C11.9741 8.90858 12.3899 8.48145 12.3811 7.9602C12.3735 7.4452 11.954 7.0332 11.4403 7.0332Z" fill="white"/>
				<path d="M51.2711 54.6929H11.4906C10.5197 54.6929 9.65559 54.1126 9.28759 53.2145C9.09034 52.7322 8.54147 52.5023 8.05922 52.6995C7.57684 52.8967 7.34709 53.4468 7.54422 53.9278C8.20234 55.5368 9.75109 56.5767 11.4906 56.5767H17.3847V63.057C17.3847 63.5772 17.8065 63.999 18.3267 63.999C18.847 63.999 19.2687 63.5772 19.2687 63.057V56.5767H24.2215V63.057C24.2215 63.5772 24.6432 63.999 25.1635 63.999C25.6837 63.999 26.1055 63.5772 26.1055 63.057V56.5767H31.0581V63.057C31.0581 63.5772 31.4798 63.999 32.0001 63.999C32.5203 63.999 32.9421 63.5772 32.9421 63.057V56.5767H37.8947V63.057C37.8947 63.5772 38.3165 63.999 38.8367 63.999C39.357 63.999 39.7787 63.5772 39.7787 63.057V56.5767H44.7315V63.057C44.7315 63.5772 45.1532 63.999 45.6735 63.999C46.1937 63.999 46.6155 63.5772 46.6155 63.057V56.5767H51.2711C51.7911 56.5767 52.2131 56.1547 52.2131 55.6347C52.2131 55.1137 51.7911 54.6929 51.2711 54.6929Z" fill="white"/>
				<path d="M44.7763 16.0176H19.224C17.5635 16.0176 16.2134 17.3678 16.2134 19.0282V44.5818C16.2134 46.2423 17.5636 47.5925 19.224 47.5925H44.7764C46.4369 47.5925 47.787 46.2422 47.787 44.5818V19.0282C47.787 17.3677 46.4368 16.0176 44.7763 16.0176ZM18.0973 19.0282C18.0973 18.4065 18.6021 17.9016 19.2239 17.9016H38.7095V27.74C37.0065 28.108 35.6613 29.4532 35.2934 31.1563H28.3514V26.3257C30.1311 25.9778 31.4776 24.4065 31.4776 22.5262C31.4776 20.3922 29.7405 18.6552 27.6054 18.6552C25.7251 18.6552 24.154 20.0016 23.8059 21.7801H18.0973V19.0282ZM39.6518 29.5235C41.071 29.5235 42.2254 30.679 42.2254 32.0983C42.2254 33.5177 41.0711 34.672 39.6518 34.672C38.2223 34.672 37.0769 33.5063 37.0769 32.0983C37.077 30.6877 38.2255 29.5235 39.6518 29.5235ZM27.6054 24.5145C26.516 24.5145 25.6171 23.6285 25.6171 22.5262C25.6171 21.431 26.5089 20.5392 27.6054 20.5392C28.7019 20.5392 29.5936 21.431 29.5936 22.5262C29.5936 23.6322 28.6931 24.5145 27.6054 24.5145ZM23.5371 39.9107C22.9908 39.6042 22.6215 39.0177 22.6215 38.3482C22.6215 37.3597 23.4266 36.5558 24.4151 36.5558C25.4036 36.5558 26.2075 37.3597 26.2075 38.3482C26.2074 39.718 24.7259 40.5827 23.5371 39.9107ZM31.1559 45.7085H24.8359V42.0007C26.6659 41.7922 28.0915 40.2335 28.0915 38.3482C28.0915 36.321 26.4424 34.6718 24.4151 34.6718C22.3866 34.6718 20.7375 36.321 20.7375 38.3482C20.7375 39.8555 21.6494 41.1555 22.9519 41.7218V45.7085H19.224C18.6023 45.7085 18.0974 45.2023 18.0974 44.5818V23.6641H23.9039C23.9119 23.6771 24.4181 25.598 26.4674 26.2277V32.0983C26.4674 32.6183 26.8894 33.0403 27.4094 33.0403H31.1559V45.7085ZM45.903 44.5818C45.903 45.2023 45.3981 45.7085 44.7764 45.7085H33.0399V41.6347H45.903V44.5818ZM45.903 39.7507H33.0399V33.0403H35.2934C35.7268 35.0475 37.5165 36.556 39.6518 36.556C42.1098 36.556 44.1094 34.5563 44.1094 32.0983C44.1094 29.9631 42.6009 28.1733 40.5938 27.74C40.5938 27.74 40.5936 27.74 40.5935 27.74V17.9016H44.7763C45.398 17.9016 45.9029 18.4065 45.9029 19.0282V39.7507H45.903Z" fill="white"/>
				<path d="M63.0582 26.1054C63.5785 26.1054 64.0002 25.6836 64.0002 25.1634C64.0002 24.6431 63.5785 24.2214 63.0582 24.2214H56.7726V19.2686H63.0582C63.5785 19.2686 64.0002 18.8469 64.0002 18.3266C64.0002 17.8064 63.5785 17.3846 63.0582 17.3846H56.7726V11.2946C56.7726 8.94463 54.861 7.03175 52.5097 7.03175H46.6156V0.942C46.6156 0.42175 46.1939 0 45.6736 0C45.1534 0 44.7316 0.42175 44.7316 0.942V7.03162H39.7789V0.942C39.7789 0.42175 39.3571 0 38.8369 0C38.3166 0 37.8949 0.42175 37.8949 0.942V7.03162H32.9422V0.942C32.9422 0.42175 32.5205 0 32.0002 0C31.48 0 31.0582 0.42175 31.0582 0.942V7.03162H26.1056V0.942C26.1056 0.42175 25.6839 0 25.1636 0C24.6434 0 24.2216 0.42175 24.2216 0.942V7.03162H19.2689V0.942C19.2689 0.42175 18.8471 0 18.3269 0C17.8066 0 17.3849 0.42175 17.3849 0.942V7.03162H15.2086C14.6874 7.03162 14.2666 7.45363 14.2666 7.97363C14.2666 8.49363 14.6874 8.91562 15.2086 8.91562C20.1432 8.91562 48.5605 8.91562 52.5097 8.91562C53.8222 8.91562 54.8886 9.98325 54.8886 11.2945V52.3148C54.8886 52.9716 54.6274 53.5834 54.1514 54.0368C53.7746 54.396 53.7595 54.9926 54.1187 55.3681C54.3046 55.5628 54.5521 55.6608 54.8007 55.6608C55.0344 55.6608 55.268 55.5741 55.4514 55.4007C56.303 54.5881 56.7727 53.4916 56.7727 52.3148V46.6154H63.0584C63.5786 46.6154 64.0004 46.1936 64.0004 45.6734C64.0004 45.1531 63.5786 44.7314 63.0584 44.7314H56.7727V39.7786H63.0584C63.5786 39.7786 64.0004 39.3569 64.0004 38.8366C64.0004 38.3164 63.5786 37.8946 63.0584 37.8946H56.7727V32.942H63.0584C63.5786 32.942 64.0004 32.5202 64.0004 32C64.0004 31.4797 63.5786 31.058 63.0584 31.058H56.7727V26.1054H63.0582Z" fill="white"/>
			</g>
			<defs>
				<clipPath id="clip0_497_4174">
					<rect width="64" height="64" fill="white"/>
				</clipPath>
			</defs>
		</g>
	</symbol>

	<symbol  id="ic_career-2" viewBox="0 0 35 37">
		<g>
			<path d="M15.0857 27.8608C15.276 27.3186 15.4139 26.8144 15.6279 26.3388C15.8229 25.9013 15.8087 25.5113 15.5851 25.0975C15.4282 24.8026 15.3235 24.4744 15.1951 24.1605C15.0144 23.7182 15.257 23.352 15.7373 23.352C16.9597 23.352 18.1868 23.352 19.4091 23.352C19.8847 23.352 20.1273 23.7277 19.9465 24.1653C19.7468 24.6361 19.5565 25.107 19.3663 25.5826C19.3377 25.6492 19.3187 25.7396 19.3377 25.8014C19.566 26.4768 19.7991 27.1474 20.0512 27.8703C20.094 27.7657 20.1178 27.7086 20.1415 27.6468C20.8692 25.6397 21.5922 23.6278 22.3199 21.6207C22.453 21.2497 22.7479 21.1261 23.1189 21.2735C25.5208 22.2343 27.9226 23.2045 30.3292 24.151C31.1853 24.4887 32.0034 24.8834 32.674 25.5303C33.844 26.6575 34.4956 28.032 34.5147 29.6586C34.5384 31.7656 34.5242 33.8773 34.5242 35.9843C34.5242 36.4552 34.3387 36.6454 33.8631 36.6454C23.0047 36.6454 12.1464 36.6454 1.28811 36.6454C0.822006 36.6454 0.622247 36.4504 0.622247 35.9891C0.622247 33.9297 0.612734 31.8655 0.627002 29.8061C0.641271 27.3519 2.08714 25.2497 4.36059 24.3412C6.90989 23.3234 9.46395 22.3008 12.0133 21.283C12.4128 21.1213 12.6886 21.245 12.8361 21.654C13.559 23.6516 14.2819 25.6492 15.0049 27.6468C15.0191 27.6991 15.0429 27.7514 15.0857 27.8608ZM1.69714 35.5372C12.2939 35.5372 22.8573 35.5372 33.4255 35.5372C33.4303 35.4754 33.435 35.4326 33.435 35.3851C33.435 33.5159 33.4398 31.642 33.4303 29.7728C33.4207 27.8418 32.2602 26.1105 30.4719 25.3876C28.1081 24.4269 25.7348 23.4899 23.3662 22.5434C23.3044 22.5196 23.2378 22.4959 23.1617 22.4721C23.1332 22.5434 23.1141 22.5957 23.0951 22.6528C22.2533 24.9738 21.4162 27.2948 20.5743 29.6158C20.4697 29.9012 20.2985 30.0391 20.0464 30.0391C19.7801 30.0391 19.6041 29.9012 19.5042 29.6111C19.0809 28.3935 18.6624 27.1759 18.2343 25.9631C18.1677 25.7728 18.1725 25.5969 18.2533 25.4114C18.3913 25.0975 18.5102 24.7788 18.6481 24.4459C17.9157 24.4459 17.2165 24.4459 16.484 24.4459C16.5649 24.6504 16.641 24.8359 16.7171 25.0214C17.031 25.8061 17.0262 25.5731 16.7647 26.3341C16.3842 27.4423 15.9989 28.5457 15.6137 29.6491C15.5376 29.8679 15.3901 30.0106 15.1476 30.0344C14.8479 30.0629 14.6672 29.9202 14.5293 29.5445C13.6969 27.2473 12.8694 24.9453 12.037 22.648C12.018 22.591 11.9895 22.5339 11.9609 22.4673C11.8325 22.5149 11.7279 22.5577 11.628 22.6005C9.36883 23.5042 7.11441 24.4126 4.85048 25.3115C2.85289 26.1058 1.70189 27.7942 1.69714 29.944C1.69714 31.7371 1.69714 33.5301 1.69714 35.3232C1.69714 35.385 1.69714 35.4564 1.69714 35.5372Z" fill="white"/>
			<path d="M26.0817 7.02495C26.0579 7.90009 25.92 8.76095 25.6917 9.60755C25.6536 9.75499 25.6727 9.83109 25.8153 9.9167C26.3338 10.2401 26.6572 10.7205 26.7428 11.3103C26.9425 12.7514 26.5906 14.0593 25.6251 15.1627C25.2351 15.6051 24.7167 15.8429 24.1269 15.9095C24.0128 15.9237 23.9509 15.9665 23.8986 16.0712C23.4515 16.9606 22.9426 17.8167 22.4004 18.6538C21.3017 20.3422 19.6894 21.0366 17.7536 21.108C16.4837 21.1555 15.2947 20.8559 14.2103 20.1757C13.5968 19.7905 13.1354 19.253 12.7597 18.6538C12.2317 17.8167 11.7514 16.9511 11.2567 16.0902C11.1901 15.9761 11.1283 15.919 10.9904 15.9C10.3483 15.8286 9.80134 15.5385 9.40182 15.0391C8.55047 13.9737 8.21278 12.7419 8.384 11.3864C8.46961 10.7252 8.82157 10.2068 9.40182 9.85487C9.43987 9.83109 9.47792 9.7645 9.47792 9.7217C9.49695 9.38401 9.51121 9.04632 9.52072 8.70863C9.52072 8.65632 9.51121 8.59924 9.48743 8.55644C8.86913 7.50057 8.81206 6.38763 9.13548 5.23664C9.41133 4.27114 9.85841 3.38649 10.5861 2.67782C11.3043 1.97867 12.1699 1.67903 13.1735 1.79317C13.2353 1.79793 13.3352 1.77415 13.3685 1.72659C13.7632 1.14634 14.3245 0.799137 14.9618 0.556573C15.5991 0.314008 16.2697 0.209373 16.9451 0.157055C18.5527 0.0286389 20.0984 0.256934 21.5586 0.960846C22.7001 1.51256 23.8035 2.13086 24.6215 3.13917C25.1828 3.82881 25.6679 4.56602 25.9152 5.43164C26.0579 5.95482 26.0864 6.48751 26.0817 7.02495ZM14.1199 5.42213C14.0962 5.48396 14.0724 5.54103 14.0486 5.59335C13.8393 6.12128 13.5872 6.62068 13.2163 7.05825C12.5409 7.85252 11.699 8.41375 10.7431 8.81803C10.6289 8.86559 10.5766 8.92266 10.5766 9.05108C10.5813 9.41255 10.5718 9.77402 10.5766 10.1355C10.5813 10.4209 10.4482 10.6349 10.1913 10.7062C9.73 10.8346 9.48743 11.1533 9.43987 11.6004C9.33523 12.5516 9.57304 13.4315 10.1152 14.2115C10.3959 14.6158 10.7954 14.8726 11.3043 14.8346C11.6895 14.806 11.9083 14.9582 12.07 15.3007C12.5028 16.2186 12.9927 17.108 13.5682 17.9451C13.9059 18.4397 14.2579 18.9344 14.7763 19.2578C15.8036 19.8951 16.9261 20.1282 18.1199 20.0045C19.5277 19.8618 20.693 19.2863 21.492 18.0545C22.0817 17.1413 22.624 16.2043 23.0948 15.2246C23.228 14.944 23.423 14.806 23.7417 14.8346C24.203 14.8774 24.593 14.7109 24.8784 14.3637C25.5442 13.5599 25.782 12.6134 25.6822 11.5861C25.6441 11.1818 25.4253 10.8632 25.0068 10.73C24.6406 10.6159 24.5359 10.4637 24.555 10.0737C24.5692 9.74548 24.5597 9.42206 24.4123 9.11767C24.3362 8.9512 24.222 8.83229 24.046 8.77998C23.8035 8.70863 23.5609 8.62302 23.3088 8.57071C21.7203 8.24253 20.1365 7.91436 18.5479 7.60996C17.2733 7.3674 16.1033 6.88702 15.0426 6.14506C14.7335 5.92628 14.4386 5.6742 14.1199 5.42213ZM24.9164 7.97143C24.9354 7.80496 24.9497 7.64325 24.9687 7.4863C25.0924 6.32104 24.8689 5.25091 24.1459 4.29492C23.5514 3.51015 22.8332 2.90136 21.9819 2.40196C20.4789 1.52683 18.8856 1.10353 17.1449 1.23195C16.4314 1.28426 15.7275 1.37939 15.0712 1.6933C14.6384 1.90257 14.2721 2.17367 14.1342 2.67782C14.0581 2.94417 13.7347 3.08209 13.4588 2.98222C12.5647 2.65404 11.7038 2.9727 11.1331 3.67186C10.6194 4.29492 10.2817 5.00834 10.1105 5.80262C9.97256 6.43043 10.0011 7.05349 10.2341 7.65752C10.2817 7.78118 10.334 7.83826 10.4672 7.7574C10.5909 7.68606 10.724 7.63374 10.8477 7.56716C11.5516 7.17715 12.1937 6.7158 12.6265 6.0214C12.9737 5.46018 13.1925 4.84663 13.3399 4.20455C13.3922 3.97625 13.5254 3.8193 13.7585 3.76698C13.9773 3.71942 14.1723 3.78125 14.3102 3.96674C15.2424 5.17481 16.4837 5.92628 17.9249 6.33531C18.8476 6.5969 19.8035 6.73007 20.7453 6.92983C22.1388 7.22947 23.5704 7.37691 24.9164 7.97143Z" fill="white"/>
			<path d="M26.7997 29.4699C27.7652 29.4699 28.7354 29.4699 29.7009 29.4699C30.1813 29.4699 30.3668 29.6554 30.3668 30.1406C30.3668 31.3106 30.3668 32.4806 30.3668 33.6506C30.3668 34.0739 30.167 34.2784 29.7485 34.2784C27.7889 34.2784 25.8294 34.2784 23.8699 34.2784C23.4418 34.2784 23.2373 34.0691 23.2373 33.6411C23.2373 32.4616 23.2373 31.2773 23.2373 30.0978C23.2373 29.6887 23.4323 29.4795 23.8413 29.4747C24.8306 29.4652 25.8151 29.4699 26.7997 29.4699ZM24.3312 33.1797C24.3931 33.1845 24.4406 33.1893 24.4882 33.1893C26.0387 33.1893 27.5844 33.1893 29.1349 33.194C29.2586 33.194 29.2967 33.156 29.2967 33.0323C29.2919 32.2808 29.2871 31.5246 29.3014 30.7731C29.3062 30.5829 29.2396 30.5496 29.0684 30.5496C27.5559 30.5543 26.0434 30.5543 24.531 30.5543C24.4692 30.5543 24.4073 30.5591 24.336 30.5639C24.3312 31.439 24.3312 32.2999 24.3312 33.1797Z" fill="white"/>
		</g>
	</symbol>

	<symbol  id="ic_career-3" viewBox="0 0 37 38">
		<g>
			<g clip-path="url(#clip0_572_5880)">
				<path d="M36.5906 10.7563L25.0938 6.3732C24.815 6.26696 24.503 6.40676 24.3967 6.68525C24.2905 6.96401 24.4303 7.27606 24.7091 7.3823L34.8825 11.2609L27.8398 13.9462L18.9826 9.93585C18.7107 9.81269 18.3909 9.93335 18.268 10.2049C18.1449 10.4767 18.2655 10.7966 18.5371 10.9197L26.4183 14.4882L18.7598 17.4079L2.6372 11.2609L18.7598 5.1139L22.733 6.62894C23.0112 6.7349 23.3236 6.59538 23.4301 6.31661C23.5363 6.03812 23.3965 5.72607 23.1177 5.61983L18.9523 4.03156C18.8284 3.98441 18.6913 3.98413 18.5673 4.03156L0.929099 10.7563C0.719955 10.8362 0.581543 11.037 0.581543 11.2609V13.7268C0.581543 13.9506 0.719955 14.1515 0.929099 14.2313L6.43701 16.3311V18.2023C6.43701 18.5005 6.67861 18.7423 6.97679 18.7423C7.27525 18.7423 7.51684 18.5005 7.51684 18.2023V16.743L18.5673 20.9561C18.6295 20.9797 18.6947 20.9916 18.7598 20.9916C18.825 20.9916 18.8902 20.9797 18.9523 20.9561L27.282 17.7804V26.3259C24.6669 27.6986 21.7344 28.4342 18.7598 28.4342C14.7001 28.4342 10.7181 27.0657 7.51684 24.5751V20.3622C7.51684 20.0641 7.27525 19.8222 6.97679 19.8222C6.67861 19.8222 6.43701 20.0641 6.43701 20.3622V24.8366C6.43701 25.0006 6.51135 25.1556 6.63922 25.258C10.0651 28.0026 14.3698 29.5141 18.7598 29.5141C21.7206 29.5141 24.6419 28.8256 27.282 27.5361V29.7216C26.4119 29.9593 25.7703 30.7562 25.7703 31.7007C25.7703 32.8318 26.6907 33.7524 27.8218 33.7524C28.9532 33.7524 29.8736 32.8318 29.8736 31.7007C29.8736 30.7562 29.232 29.9593 28.3619 29.7216V26.9658C29.242 26.4651 30.0852 25.8954 30.8807 25.258C31.0086 25.1556 31.0832 25.0006 31.0832 24.8366V16.3308L36.5906 14.2311C36.7997 14.1515 36.9381 13.9506 36.9381 13.7265V11.2609C36.9381 11.037 36.7997 10.8362 36.5906 10.7563ZM28.7937 31.7007C28.7937 32.2363 28.3577 32.6723 27.8218 32.6723C27.2862 32.6723 26.8501 32.2363 26.8501 31.7007C26.8501 31.1648 27.2862 30.7287 27.8218 30.7287C28.3577 30.7287 28.7937 31.1648 28.7937 31.7007ZM1.66138 12.0448L18.2198 18.3579V19.6677L1.66138 13.3545V12.0448ZM19.2999 19.6677V18.3579L27.282 15.3145V16.6246L19.2999 19.6677ZM30.0031 24.5748C29.4764 24.9848 28.928 25.3637 28.3619 25.7115V17.3685L30.0031 16.7427V24.5748ZM28.3619 16.2127V14.9029L35.8583 12.0448V13.3545L28.3619 16.2127Z" fill="white"/>
			</g>
			<defs>
				<clipPath id="clip0_572_5880">
					<rect width="36.3566" height="36.3566" fill="white" transform="translate(0.581543 0.658203)"/>
				</clipPath>
			</defs>
		</g>
	</symbol>


</svg>