<svg display="none" xmlns="http://www.w3.org/2000/svg">

	<symbol  id="ic_student-1" viewBox="0 0 55 48">
		<g>
			<path d="M54.9992 5.38305C54.9992 2.41456 52.5853 0 49.6184 0H5.38084C2.414 0 0 2.41532 0 5.38381V35.919C0 38.8997 2.414 41.3257 5.38084 41.3257H21.457V45.13H11.1333C10.4182 45.13 9.83871 45.7098 9.83871 46.4253C9.83871 47.1407 10.4182 47.7205 11.1333 47.7205H43.8667C44.5818 47.7205 45.1613 47.1407 45.1613 46.4253C45.1613 45.7098 44.5818 45.13 43.8667 45.13H33.543V41.3257H49.6192C52.586 41.3257 55 38.9004 55 35.919V5.38305C54.9992 5.38305 54.9992 5.38305 54.9992 5.38305ZM30.9531 45.13H24.0462V41.3257H30.9531V45.13ZM49.6184 38.7351H5.38084C3.84183 38.7351 2.58913 37.4718 2.58913 35.919V5.38305C2.58913 3.84318 3.84106 2.58981 5.38084 2.58981H49.6184C51.1574 2.58981 52.4093 3.84242 52.4101 5.38305V35.919C52.4101 37.4718 51.1574 38.7351 49.6184 38.7351Z" fill="white"/>
			<path d="M44.2922 21.1189V18.4468C44.2922 17.921 43.8657 17.4944 43.3403 17.4944H42.8994V12.2507H43.3403C43.8657 12.2507 44.2922 11.8241 44.2922 11.2983V8.62624C44.2922 8.10051 43.8657 7.67383 43.3403 7.67383H40.5326C40.0072 7.67383 39.5807 8.10051 39.5807 8.62624V9.02169H32.2854V8.62624C32.2854 8.10051 31.859 7.67383 31.3336 7.67383H28.5259C28.0004 7.67383 27.574 8.10051 27.574 8.62624V9.02169H15.1431V8.62624C15.1431 8.10051 14.7167 7.67383 14.1912 7.67383H11.3835C10.8581 7.67383 10.4316 8.10051 10.4316 8.62624V11.2983C10.4316 11.8241 10.8581 12.2507 11.3835 12.2507H11.8237V27.3157H11.3835C10.8581 27.3157 10.4316 27.7423 10.4316 28.2681V30.9402C10.4316 31.4659 10.8581 31.8926 11.3835 31.8926H14.1912C14.7167 31.8926 15.1431 31.4659 15.1431 30.9402V30.5447H27.574V30.9402C27.574 31.4659 28.0004 31.8926 28.5259 31.8926H31.3336C31.859 31.8926 32.2854 31.4659 32.2854 30.9402V28.2681C32.2854 27.7423 31.859 27.3157 31.3336 27.3157H30.8927V12.2507H31.3336C31.859 12.2507 32.2854 11.8241 32.2854 11.2983V10.9258H39.5807V11.2983C39.5807 11.8241 40.0072 12.2507 40.5326 12.2507H40.9956V17.4944H40.5326C40.0072 17.4944 39.5807 17.921 39.5807 18.4468V18.8422H33.6615C33.1361 18.8422 32.7096 19.2689 32.7096 19.7946C32.7096 20.3204 33.1361 20.7471 33.6615 20.7471H39.5807V21.1196C39.5807 21.6454 40.0072 22.0721 40.5326 22.0721H43.3403C43.8657 22.0713 44.2922 21.6446 44.2922 21.1189ZM28.9897 27.3149H28.5266C28.0012 27.3149 27.5748 27.7416 27.5748 28.2673V28.6399H15.1439V28.2673C15.1439 27.7416 14.7174 27.3149 14.192 27.3149H13.729V12.2507H14.192C14.7174 12.2507 15.1439 11.8241 15.1439 11.2983V10.9258H27.5748V11.2983C27.5748 11.8241 28.0012 12.2507 28.5266 12.2507H28.9897V27.3149Z" fill="white"/>
			<path d="M47.0925 34.1611L45.606 31.5644L46.7635 30.8993C46.9569 30.7873 47.0772 30.5511 47.0551 30.324C47.0346 30.1107 46.8823 29.9293 46.6569 29.8516L42.812 28.5083C42.6536 28.4535 42.4793 28.4702 42.3338 28.5541C42.1884 28.6379 42.0871 28.7804 42.0559 28.9449L41.2799 32.942C41.2372 33.1637 41.3286 33.3908 41.5121 33.5218C41.6233 33.6011 41.7474 33.6407 41.8685 33.6407C41.9599 33.6407 42.0498 33.6178 42.1297 33.5714L43.2865 32.907L44.7729 35.5036C44.8498 35.637 44.977 35.7337 45.1308 35.7741C45.1826 35.7878 45.2359 35.7947 45.2877 35.7947C45.389 35.7947 45.488 35.7688 45.5763 35.7177L46.8777 34.9642C47.1534 34.8057 47.2516 34.4377 47.0925 34.1611Z" fill="white"/>
		</g>
	</symbol>

	<symbol  id="ic_student-2" viewBox="0 0 53 53">
		<g>
			<path d="M44.315 28.0352H28.7435C27.6603 28.0352 26.7793 28.9322 26.7793 30.0338V44.909C26.7793 46.0114 27.6603 46.9077 28.7435 46.9077H44.315C45.4168 46.9077 46.3126 46.0106 46.3126 44.909V30.0338C46.3133 28.9322 45.4168 28.0352 44.315 28.0352ZM29.2985 44.3878V30.5557H43.7934V44.3878H29.2985Z" fill="white"/>
			<path d="M41.6965 34.4364C41.6965 33.4571 40.9 32.6602 39.9212 32.6602H33.1757C32.1969 32.6602 31.4004 33.4571 31.4004 34.4364V40.514C31.4004 41.4748 32.1969 42.2569 33.1757 42.2569H39.9212C40.9 42.2569 41.6965 41.4748 41.6965 40.514V34.4364ZM33.4743 40.1811V34.7352H39.6219V40.1811H33.4743Z" fill="white"/>
			<path d="M28.916 23.1531V26.0747C28.916 26.6477 29.3806 27.1125 29.9533 27.1125C30.5261 27.1125 30.9906 26.6477 30.9906 26.0747V23.1531C30.9906 22.58 30.5261 22.1152 29.9533 22.1152C29.3806 22.1152 28.916 22.58 28.916 23.1531Z" fill="white"/>
			<path d="M32.2031 23.1531V26.0747C32.2031 26.6477 32.6677 27.1125 33.2404 27.1125C33.8132 27.1125 34.2777 26.6477 34.2777 26.0747V23.1531C34.2777 22.58 33.8132 22.1152 33.2404 22.1152C32.6677 22.1152 32.2031 22.58 32.2031 23.1531Z" fill="white"/>
			<path d="M37.5004 26.0728V23.1512C37.5004 22.5781 37.0359 22.1133 36.4631 22.1133C35.8904 22.1133 35.4258 22.5781 35.4258 23.1512V26.0728C35.4258 26.6459 35.8904 27.1107 36.4631 27.1107C37.0359 27.1107 37.5004 26.6466 37.5004 26.0728Z" fill="white"/>
			<path d="M40.7543 26.0728V23.1512C40.7543 22.5781 40.2897 22.1133 39.717 22.1133C39.1443 22.1133 38.6797 22.5781 38.6797 23.1512V26.0728C38.6797 26.6459 39.1443 27.1107 39.717 27.1107C40.2897 27.1107 40.7543 26.6466 40.7543 26.0728Z" fill="white"/>
			<path d="M43.9769 26.0728V23.1512C43.9769 22.5781 43.5124 22.1133 42.9396 22.1133C42.3669 22.1133 41.9023 22.5781 41.9023 23.1512V26.0728C41.9023 26.6459 42.3669 27.1107 42.9396 27.1107C43.5124 27.1107 43.9769 26.6466 43.9769 26.0728Z" fill="white"/>
			<path d="M29.9533 48.0039C29.3806 48.0039 28.916 48.4687 28.916 49.0418V51.9627C28.916 52.5358 29.3806 53.0006 29.9533 53.0006C30.5261 53.0006 30.9906 52.5358 30.9906 51.9627V49.0418C30.9906 48.468 30.5261 48.0039 29.9533 48.0039Z" fill="white"/>
			<path d="M33.2404 48.0039C32.6677 48.0039 32.2031 48.4687 32.2031 49.0418V51.9627C32.2031 52.5358 32.6677 53.0006 33.2404 53.0006C33.8132 53.0006 34.2777 52.5358 34.2777 51.9627V49.0418C34.2777 48.468 33.8132 48.0039 33.2404 48.0039Z" fill="white"/>
			<path d="M36.4631 48.0039C35.8904 48.0039 35.4258 48.4687 35.4258 49.0418V51.9627C35.4258 52.5358 35.8904 53.0006 36.4631 53.0006C37.0359 53.0006 37.5004 52.5358 37.5004 51.9627V49.0418C37.5004 48.468 37.0359 48.0039 36.4631 48.0039Z" fill="white"/>
			<path d="M39.717 48.0039C39.1443 48.0039 38.6797 48.4687 38.6797 49.0418V51.9627C38.6797 52.5358 39.1443 53.0006 39.717 53.0006C40.2897 53.0006 40.7543 52.5358 40.7543 51.9627V49.0418C40.7543 48.468 40.2905 48.0039 39.717 48.0039Z" fill="white"/>
			<path d="M42.9396 48.0039C42.3669 48.0039 41.9023 48.4687 41.9023 49.0418V51.9627C41.9023 52.5358 42.3669 53.0006 42.9396 53.0006C43.5124 53.0006 43.9769 52.5358 43.9769 51.9627V49.0418C43.9769 48.468 43.5131 48.0039 42.9396 48.0039Z" fill="white"/>
			<path d="M24.5825 29.8711H21.6291C21.0564 29.8711 20.5918 30.3359 20.5918 30.909C20.5918 31.482 21.0564 31.9469 21.6291 31.9469H24.5825C25.1553 31.9469 25.6198 31.482 25.6198 30.909C25.6198 30.3359 25.1553 29.8711 24.5825 29.8711Z" fill="white"/>
			<path d="M24.5825 33.1289H21.6291C21.0564 33.1289 20.5918 33.5937 20.5918 34.1668C20.5918 34.7399 21.0564 35.2047 21.6291 35.2047H24.5825C25.1553 35.2047 25.6198 34.7399 25.6198 34.1668C25.6198 33.5937 25.1553 33.1289 24.5825 33.1289Z" fill="white"/>
			<path d="M24.5825 36.3848H21.6291C21.0564 36.3848 20.5918 36.8496 20.5918 37.4226C20.5918 37.9957 21.0564 38.4605 21.6291 38.4605H24.5825C25.1553 38.4605 25.6198 37.9957 25.6198 37.4226C25.6198 36.8496 25.1553 36.3848 24.5825 36.3848Z" fill="white"/>
			<path d="M24.5825 39.6094H21.6291C21.0564 39.6094 20.5918 40.0742 20.5918 40.6472C20.5918 41.2203 21.0564 41.6851 21.6291 41.6851H24.5825C25.1553 41.6851 25.6198 41.2203 25.6198 40.6472C25.6198 40.0742 25.1553 39.6094 24.5825 39.6094Z" fill="white"/>
			<path d="M24.5825 42.834H21.6291C21.0564 42.834 20.5918 43.2988 20.5918 43.8719C20.5918 44.445 21.0564 44.9098 21.6291 44.9098H24.5825C25.1553 44.9098 25.6198 44.445 25.6198 43.8719C25.6198 43.2988 25.1553 42.834 24.5825 42.834Z" fill="white"/>
			<path d="M51.395 43H48.4416C47.8689 43 47.4043 43.4648 47.4043 44.0379C47.4043 44.611 47.8689 45.0758 48.4416 45.0758H51.395C51.9677 45.0758 52.4323 44.611 52.4323 44.0379C52.4323 43.4648 51.9677 43 51.395 43Z" fill="white"/>
			<path d="M51.395 39.7422H48.4416C47.8689 39.7422 47.4043 40.207 47.4043 40.78C47.4043 41.3531 47.8689 41.8179 48.4416 41.8179H51.395C51.9677 41.8179 52.4323 41.3531 52.4323 40.78C52.4323 40.207 51.9677 39.7422 51.395 39.7422Z" fill="white"/>
			<path d="M51.395 36.4863H48.4416C47.8689 36.4863 47.4043 36.9512 47.4043 37.5242C47.4043 38.0973 47.8689 38.5621 48.4416 38.5621H51.395C51.9677 38.5621 52.4323 38.0973 52.4323 37.5242C52.4323 36.9512 51.9677 36.4863 51.395 36.4863Z" fill="white"/>
			<path d="M51.395 33.2637H48.4416C47.8689 33.2637 47.4043 33.7285 47.4043 34.3016C47.4043 34.8747 47.8689 35.3395 48.4416 35.3395H51.395C51.9677 35.3395 52.4323 34.8747 52.4323 34.3016C52.4323 33.7285 51.9677 33.2637 51.395 33.2637Z" fill="white"/>
			<path d="M48.4416 32.1168H51.395C51.9677 32.1168 52.4323 31.652 52.4323 31.0789C52.4323 30.5058 51.9677 30.041 51.395 30.041H48.4416C47.8689 30.041 47.4043 30.5058 47.4043 31.0789C47.4043 31.652 47.8689 32.1168 48.4416 32.1168Z" fill="white"/>
			<path d="M46.0106 9.56858L42.0185 5.57419L42.0177 5.57344C40.8826 4.4377 39.0347 4.2761 37.7203 5.1976C37.7122 5.20353 37.7055 5.20946 37.6973 5.21539C37.6892 5.22132 37.681 5.22576 37.6736 5.23169L34.3372 7.80565C33.7311 7.51949 33.0976 7.26076 32.4441 7.0302L31.9069 2.81341C31.9054 2.80303 31.9032 2.7934 31.9017 2.78376C31.9003 2.77413 31.8995 2.7645 31.898 2.75412C31.6165 1.15874 30.2339 0 28.6105 0H22.9394C21.3153 0 19.9327 1.158 19.6518 2.75412C19.6504 2.7645 19.6496 2.77413 19.6481 2.78451C19.6467 2.79414 19.6444 2.80377 19.6429 2.81341L19.1058 7.0302C18.45 7.2615 17.8158 7.52097 17.209 7.80713L13.8384 5.22798C13.831 5.22279 13.8236 5.21835 13.8162 5.21316C13.8088 5.20797 13.8029 5.20204 13.7955 5.19685C12.4707 4.26869 10.6769 4.42658 9.53139 5.57344L5.5385 9.56858L5.53776 9.56932C4.39227 10.7154 4.2337 12.5102 5.1621 13.8358C5.16951 13.8469 5.17766 13.8573 5.18581 13.8677C5.18877 13.8714 5.19025 13.8751 5.19321 13.8788L7.76945 17.2497C7.47826 17.8613 7.21893 18.487 6.99295 19.1208L2.80295 19.6872C2.7948 19.6887 2.78666 19.6902 2.77851 19.6917C2.76962 19.6932 2.76146 19.6932 2.75257 19.6946C1.15733 19.9756 0 21.3597 0 22.984V28.6249C0 30.25 1.15733 31.6333 2.75257 31.9143C2.7622 31.9157 2.77183 31.9165 2.78146 31.918C2.78887 31.9187 2.79554 31.9209 2.80221 31.9217L6.9922 32.4881C7.21819 33.1219 7.47752 33.7476 7.7687 34.3592L5.19247 37.7301C5.18728 37.7375 5.18284 37.745 5.17765 37.7516C5.17247 37.759 5.16654 37.765 5.16135 37.7724C4.23518 39.0957 4.39078 40.8846 5.53034 42.0314C5.53182 42.0329 5.53257 42.0344 5.53405 42.0351L9.52769 46.0644C9.52843 46.0651 9.52917 46.0659 9.52991 46.0666C9.53065 46.0673 9.53065 46.0673 9.53139 46.0681C10.1649 46.7019 11.0044 47.0266 11.855 47.0266C12.527 47.0266 13.2057 46.8235 13.7962 46.4106C13.8022 46.4061 13.8073 46.4017 13.8133 46.3972C13.8214 46.3913 13.8303 46.3861 13.8384 46.3794L17.2104 43.7996C17.3742 43.8759 17.5468 43.9545 17.7298 44.0353C17.8951 44.1079 18.0677 44.1428 18.2374 44.1428C18.7212 44.1428 19.1828 43.8626 19.3903 43.3911C19.6711 42.7543 19.3829 42.0099 18.7464 41.729C18.3204 41.5407 17.9625 41.3702 17.6535 41.2071C17.6446 41.2026 17.635 41.1989 17.6261 41.1944C17.6032 41.1833 17.5802 41.1722 17.5565 41.1618C17.5387 41.1544 17.5217 41.1477 17.5039 41.1411C17.4846 41.1337 17.4646 41.127 17.4453 41.1203C17.4238 41.1136 17.4016 41.1077 17.3794 41.1018C17.3631 41.0973 17.3468 41.0936 17.3305 41.0899C17.306 41.0847 17.2808 41.0803 17.2564 41.0766C17.2416 41.0744 17.2267 41.0721 17.2119 41.0706C17.1867 41.0677 17.1615 41.0655 17.1356 41.064C17.1201 41.0632 17.1045 41.0625 17.0889 41.0625C17.0652 41.0618 17.0415 41.0625 17.0171 41.0632C16.9993 41.064 16.9815 41.0647 16.9637 41.0662C16.9422 41.0677 16.9215 41.0699 16.9007 41.0729C16.88 41.0758 16.86 41.0788 16.84 41.0825C16.8215 41.0862 16.8029 41.0899 16.7852 41.0936C16.7629 41.0988 16.7414 41.104 16.72 41.1107C16.7029 41.1159 16.6859 41.1211 16.6688 41.1263C16.6474 41.1337 16.6259 41.1411 16.6051 41.1492C16.5873 41.1559 16.5703 41.1641 16.5525 41.1715C16.5332 41.1804 16.5147 41.1885 16.4962 41.1982C16.4762 41.2085 16.4569 41.2189 16.4377 41.23C16.4221 41.2389 16.4073 41.2478 16.3917 41.2575C16.3695 41.2716 16.348 41.2864 16.3265 41.302C16.3184 41.3079 16.3102 41.3123 16.3021 41.319L12.3403 44.3504C12.0091 44.5757 11.5801 44.5483 11.3141 44.2837L7.3234 40.2574C7.32266 40.2567 7.32192 40.2559 7.32118 40.2552C7.32044 40.2544 7.32043 40.2544 7.31969 40.2537C7.04777 39.9816 7.00555 39.542 7.21894 39.2254L10.2486 35.2622C10.2545 35.254 10.2597 35.2451 10.2657 35.237C10.2812 35.2162 10.296 35.1947 10.3094 35.1732C10.319 35.1577 10.3286 35.1421 10.3375 35.1258C10.3486 35.1073 10.359 35.088 10.3687 35.0694C10.3783 35.0502 10.3879 35.0302 10.3968 35.0101C10.4042 34.9938 10.4109 34.9775 10.4176 34.9605C10.4264 34.9382 10.4346 34.916 10.442 34.893C10.4472 34.8774 10.4524 34.8619 10.4568 34.8463C10.4635 34.8233 10.4694 34.8003 10.4746 34.7766C10.4783 34.7596 10.482 34.7432 10.485 34.7262C10.4887 34.704 10.4924 34.6825 10.4954 34.6602C10.4976 34.6409 10.4998 34.6217 10.5013 34.6024C10.5028 34.5824 10.5042 34.5631 10.505 34.5431C10.5057 34.5208 10.5057 34.4993 10.5057 34.4771C10.5057 34.4593 10.505 34.4423 10.5042 34.4245C10.5028 34.4008 10.5013 34.3778 10.4983 34.354C10.4961 34.337 10.4939 34.3207 10.4916 34.3044C10.4879 34.2814 10.4842 34.2584 10.4791 34.2354C10.4753 34.2176 10.4709 34.1998 10.4664 34.1821C10.4613 34.1613 10.4553 34.1405 10.4487 34.1205C10.442 34.0998 10.4346 34.079 10.4272 34.0583C10.4213 34.0412 10.4146 34.0249 10.4072 34.0078C10.3968 33.9834 10.3857 33.9596 10.3738 33.9367C10.3694 33.9278 10.3664 33.9189 10.3612 33.91C9.86333 32.964 9.45285 31.9743 9.14092 30.9676C9.13796 30.9587 9.13426 30.9498 9.1313 30.9409C9.12315 30.9157 9.11425 30.8912 9.10461 30.8668C9.09795 30.8497 9.09053 30.8334 9.08312 30.8178C9.07423 30.7978 9.06461 30.7778 9.05424 30.7585C9.0446 30.7392 9.03422 30.7207 9.0231 30.7029C9.01347 30.6873 9.00459 30.6718 8.99422 30.6562C8.98162 30.6362 8.96828 30.6169 8.9542 30.5984C8.94457 30.585 8.9342 30.5717 8.92383 30.5583C8.90901 30.5398 8.89418 30.5213 8.87788 30.5042C8.86603 30.4909 8.85417 30.4783 8.84232 30.4657C8.82676 30.4501 8.81121 30.4345 8.79491 30.419C8.78083 30.4056 8.766 30.393 8.75119 30.3797C8.73637 30.3671 8.72082 30.3545 8.70526 30.3426C8.68822 30.3293 8.66968 30.3167 8.65189 30.3041C8.63708 30.2944 8.62301 30.2841 8.60819 30.2752C8.58819 30.2626 8.56818 30.2507 8.54743 30.2396C8.53261 30.2314 8.5178 30.2233 8.50224 30.2158C8.4815 30.2055 8.46074 30.1958 8.43925 30.1869C8.42221 30.1795 8.40443 30.1721 8.38665 30.1654C8.36739 30.158 8.34812 30.1514 8.32811 30.1447C8.30663 30.138 8.28513 30.1313 8.2629 30.1254C8.2466 30.121 8.22957 30.1165 8.21327 30.1128C8.18659 30.1069 8.15991 30.1024 8.13324 30.098C8.12435 30.0965 8.11547 30.0943 8.10658 30.0928L3.17861 29.4263C2.80147 29.3544 2.51918 29.0104 2.51918 28.6219V22.981C2.51918 22.5918 2.80221 22.2486 3.17861 22.1767L8.10658 21.5102C8.10954 21.5102 8.11175 21.5095 8.11397 21.5087C8.19177 21.4976 8.26809 21.4798 8.34219 21.4546C8.35553 21.4502 8.36887 21.445 8.3822 21.4398C8.40369 21.4316 8.42444 21.4235 8.44519 21.4138C8.46075 21.4072 8.4763 21.3997 8.49112 21.3923C8.50964 21.3834 8.52816 21.3731 8.54669 21.3627C8.56077 21.3545 8.57559 21.3471 8.58893 21.339C8.6193 21.3204 8.64894 21.3011 8.67709 21.2804C8.68376 21.2759 8.68969 21.27 8.69636 21.2656C8.72007 21.2478 8.74377 21.2285 8.766 21.2092C8.77415 21.2018 8.78231 21.1944 8.79046 21.187C8.8112 21.1684 8.83121 21.1484 8.85048 21.1284C8.85715 21.121 8.86456 21.1136 8.87123 21.1062C8.89123 21.0839 8.91048 21.0609 8.929 21.0372C8.93345 21.0313 8.93865 21.0254 8.94384 21.0187C8.96532 20.9898 8.98606 20.9609 9.00458 20.9297C9.00606 20.9275 9.00681 20.926 9.00829 20.9245C9.02829 20.8919 9.04756 20.8578 9.0646 20.823C9.06905 20.8148 9.07202 20.8059 9.07573 20.7978C9.08758 20.7733 9.09869 20.7481 9.10832 20.7221C9.11499 20.7058 9.12018 20.688 9.1261 20.6717C9.13055 20.6591 9.13499 20.6473 9.13944 20.6354C9.45137 19.6287 9.86185 18.6382 10.3598 17.693C10.3642 17.6841 10.3679 17.6752 10.3724 17.6663C10.3842 17.6426 10.3953 17.6189 10.4057 17.5951C10.4131 17.5781 10.419 17.5618 10.4257 17.5447C10.4331 17.524 10.4405 17.5032 10.4472 17.4825C10.4539 17.4617 10.4591 17.4417 10.465 17.4209C10.4694 17.4031 10.4739 17.3853 10.4776 17.3675C10.4828 17.3446 10.4865 17.3216 10.4902 17.2986C10.4924 17.2823 10.4946 17.2652 10.4968 17.2489C10.4998 17.2252 10.5013 17.2022 10.5028 17.1785C10.5035 17.1607 10.5042 17.1437 10.5042 17.1259C10.5042 17.1036 10.5042 17.0821 10.5035 17.0599C10.5028 17.0399 10.5013 17.0206 10.4998 17.0006C10.4983 16.9813 10.4961 16.962 10.4939 16.9428C10.4909 16.9205 10.4872 16.8983 10.4835 16.8768C10.4805 16.8597 10.4768 16.8434 10.4731 16.8264C10.4679 16.8034 10.462 16.7797 10.4553 16.7567C10.4509 16.7411 10.4457 16.7255 10.4405 16.71C10.4331 16.6877 10.425 16.6647 10.4161 16.6425C10.4094 16.6255 10.4027 16.6092 10.3953 16.5928C10.3864 16.5728 10.3775 16.5535 10.3672 16.5335C10.3575 16.5143 10.3472 16.4957 10.3361 16.4772C10.3272 16.4616 10.3175 16.4453 10.3079 16.4298C10.2938 16.4083 10.279 16.3867 10.2642 16.366C10.2582 16.3578 10.2531 16.3489 10.2471 16.3408L7.21745 12.3775C7.00406 12.0617 7.04554 11.6221 7.31821 11.3493L7.31895 11.3486L11.3119 7.35342C11.5838 7.08135 12.0232 7.0391 12.3395 7.25261L16.2821 10.2691C16.285 10.2714 16.288 10.2736 16.291 10.2766L16.3006 10.284C16.3028 10.2862 16.3058 10.2877 16.308 10.2892C16.331 10.3062 16.3539 10.3225 16.3776 10.3381C16.385 10.3425 16.3925 10.3477 16.3999 10.3522C16.4199 10.3648 16.4399 10.3759 16.4599 10.387C16.4695 10.3922 16.4784 10.3974 16.488 10.4026C16.5073 10.413 16.5273 10.4219 16.5473 10.4308C16.5658 10.4389 16.5851 10.4471 16.6044 10.4545C16.6214 10.4612 16.6392 10.4686 16.657 10.4745C16.6725 10.4797 16.6881 10.4841 16.7044 10.4893C16.7185 10.4938 16.7325 10.4975 16.7466 10.5012C16.7622 10.5049 16.7778 10.5086 16.7933 10.5123C16.8089 10.516 16.8244 10.519 16.84 10.5219C16.8541 10.5242 16.8681 10.5271 16.8822 10.5294C16.9022 10.5323 16.9222 10.5346 16.9422 10.5368C16.9526 10.5375 16.9622 10.539 16.9726 10.5397C17.0045 10.542 17.0356 10.5434 17.0675 10.5434C17.1593 10.5434 17.2527 10.5331 17.3446 10.5123C17.346 10.5123 17.3475 10.5116 17.349 10.5116C17.3912 10.5019 17.4327 10.4901 17.4742 10.4752C17.4802 10.473 17.4861 10.4715 17.4913 10.4693C17.5291 10.456 17.5661 10.4404 17.6024 10.4234C17.6113 10.4189 17.6202 10.4144 17.6291 10.41C17.6372 10.4063 17.6454 10.4026 17.6528 10.3981C18.5656 9.91701 19.5666 9.5063 20.6277 9.17714C20.6351 9.17492 20.6425 9.1712 20.6499 9.16898C20.6773 9.16008 20.704 9.15045 20.7307 9.13933C20.7447 9.1334 20.7588 9.12747 20.7729 9.1208C20.7944 9.11116 20.8151 9.10079 20.8359 9.09041C20.8522 9.08152 20.8685 9.07335 20.8848 9.06371C20.9018 9.05408 20.9181 9.0437 20.9344 9.03333C20.9522 9.02221 20.9692 9.01109 20.9863 8.99923C21.0003 8.98885 21.0137 8.97846 21.0278 8.96734C21.0448 8.95399 21.0618 8.94066 21.0781 8.92658C21.0922 8.91471 21.1048 8.90211 21.1182 8.88951C21.133 8.87542 21.1478 8.86207 21.1619 8.84799C21.1841 8.82501 21.2048 8.80054 21.2256 8.77608C21.2293 8.77163 21.2337 8.76717 21.2374 8.76272C21.2626 8.73159 21.2856 8.69898 21.3078 8.66562C21.3086 8.66414 21.3093 8.66339 21.3101 8.66191C21.3308 8.63003 21.35 8.59741 21.3678 8.5633C21.3708 8.55737 21.3738 8.5507 21.3767 8.54477C21.3915 8.51586 21.4049 8.48695 21.4175 8.4573C21.4219 8.44618 21.4256 8.43432 21.4301 8.4232C21.4397 8.39873 21.4486 8.37427 21.4568 8.34832C21.4619 8.33127 21.4664 8.31348 21.4708 8.29569C21.476 8.27567 21.4812 8.25639 21.4857 8.23638C21.4901 8.21414 21.4938 8.19114 21.4975 8.1689C21.499 8.15704 21.5019 8.14518 21.5034 8.13332L22.1355 3.1752C22.2088 2.80008 22.5511 2.51836 22.9386 2.51836H28.6098C28.9973 2.51836 29.3388 2.79933 29.4129 3.17445L30.045 8.13332C30.0464 8.14518 30.0494 8.1563 30.0509 8.16742C30.0546 8.19114 30.0583 8.21414 30.0627 8.23712C30.0672 8.25639 30.0723 8.27567 30.0768 8.2942C30.082 8.31274 30.0864 8.33127 30.0916 8.34906C30.099 8.37353 30.1079 8.39725 30.1176 8.42171C30.122 8.43358 30.1264 8.44618 30.1309 8.45804C30.1427 8.48695 30.1568 8.51512 30.1709 8.54329C30.1746 8.54996 30.1776 8.55737 30.1806 8.56405C30.1983 8.59667 30.2168 8.62855 30.2368 8.65968C30.2383 8.66191 30.2391 8.66414 30.2405 8.66562C30.2628 8.69898 30.2858 8.73159 30.3109 8.76198C30.3161 8.76865 30.3221 8.77384 30.3273 8.78051C30.3465 8.8035 30.3658 8.82649 30.3865 8.84799C30.4006 8.86282 30.4161 8.87689 30.4317 8.89097C30.4443 8.90284 30.4569 8.91544 30.4702 8.9273C30.4865 8.94139 30.5043 8.95473 30.5214 8.96808C30.5347 8.97846 30.5481 8.98959 30.5621 8.99923C30.5792 9.01109 30.597 9.02295 30.6147 9.03407C30.631 9.04445 30.6473 9.05482 30.6636 9.06446C30.6799 9.07409 30.6962 9.083 30.7133 9.09115C30.734 9.10153 30.7548 9.1119 30.7755 9.12154C30.7896 9.12821 30.8037 9.13414 30.8185 9.14008C30.8444 9.15045 30.8711 9.16008 30.8978 9.16898C30.9059 9.1712 30.9126 9.17492 30.9207 9.17714C31.9803 9.50556 32.9805 9.91701 33.8956 10.3981C33.9037 10.4026 33.9127 10.4063 33.9208 10.4107C33.9297 10.4152 33.9393 10.4196 33.9482 10.4241C33.9845 10.4411 34.0208 10.456 34.0578 10.4693C34.0638 10.4715 34.0704 10.4738 34.0764 10.476C34.1171 10.4901 34.1586 10.5019 34.2001 10.5116C34.2024 10.5123 34.2038 10.5123 34.206 10.5131C34.2972 10.5338 34.3891 10.5442 34.481 10.5442C34.5128 10.5442 34.5446 10.5427 34.5765 10.5405C34.5869 10.5397 34.5965 10.5383 34.6069 10.5375C34.6269 10.5353 34.6469 10.5331 34.6669 10.5301C34.681 10.5279 34.6951 10.5256 34.7091 10.5227C34.7247 10.5197 34.741 10.5168 34.7566 10.5131C34.7721 10.5093 34.7877 10.5056 34.8032 10.5019C34.8173 10.4982 34.8314 10.4938 34.8447 10.4901C34.861 10.4856 34.8766 10.4804 34.8929 10.4752C34.9121 10.4686 34.9307 10.4612 34.9492 10.4537C34.9685 10.4463 34.9877 10.4374 35.007 10.4293C35.0255 10.4211 35.0433 10.4122 35.0611 10.4033C35.0714 10.3981 35.0819 10.3922 35.0922 10.3863C35.1122 10.3752 35.1315 10.364 35.1507 10.3522C35.1589 10.347 35.1663 10.3425 35.1745 10.3373C35.1989 10.321 35.2226 10.304 35.2463 10.2862C35.2485 10.2847 35.25 10.2832 35.2522 10.2817L35.2575 10.2781C35.2612 10.2751 35.2649 10.2729 35.2686 10.2699L39.1777 7.25335C39.4948 7.03984 39.9668 7.08431 40.2373 7.35491L40.238 7.35565L44.2302 11.35L44.2309 11.3508C44.5028 11.6229 44.5451 12.0632 44.331 12.379L41.302 16.3423C41.2961 16.3504 41.2909 16.3586 41.2857 16.3667C41.2701 16.3882 41.2553 16.4097 41.2412 16.432C41.2316 16.4475 41.2227 16.4631 41.2131 16.4787C41.202 16.4979 41.1916 16.5165 41.182 16.5365C41.1723 16.5558 41.1627 16.5751 41.1538 16.5951C41.1464 16.6114 41.139 16.6284 41.1323 16.6455C41.1234 16.6677 41.1153 16.69 41.1079 16.7122C41.1027 16.7278 41.0975 16.7433 41.093 16.7596C41.0864 16.7826 41.0805 16.8056 41.0753 16.8293C41.0716 16.8464 41.0679 16.8627 41.0649 16.8797C41.0605 16.902 41.0575 16.9235 41.0545 16.9457C41.0523 16.965 41.0501 16.9843 41.0486 17.0036C41.0471 17.0236 41.0456 17.0428 41.0449 17.0629C41.0442 17.0851 41.0441 17.1066 41.0441 17.1288C41.0441 17.1466 41.0449 17.1637 41.0464 17.1815C41.0479 17.2052 41.0493 17.2282 41.0523 17.2519C41.0545 17.2689 41.0567 17.2853 41.059 17.3023C41.0627 17.3253 41.0664 17.3483 41.0716 17.3713C41.0753 17.3891 41.0797 17.4068 41.0841 17.4246C41.0893 17.4454 41.0953 17.4654 41.1019 17.4862C41.1086 17.5069 41.116 17.5277 41.1234 17.5484C41.1294 17.5655 41.136 17.5818 41.1427 17.5989C41.1531 17.6233 41.1642 17.647 41.176 17.6708C41.1805 17.6797 41.1834 17.6885 41.1886 17.6974C41.6206 18.5181 41.9659 19.3121 42.2459 20.1261C42.4253 20.6487 42.9143 20.9772 43.4374 20.9772C43.573 20.9772 43.7115 20.9549 43.8471 20.9082C44.5051 20.6821 44.8548 19.9652 44.6288 19.3069C44.391 18.6137 44.1116 17.9347 43.7834 17.2497L46.3581 13.8802C46.3604 13.8765 46.3626 13.8736 46.3656 13.8699C46.3737 13.8595 46.3818 13.8484 46.3893 13.838C47.3169 12.5125 47.1591 10.7177 46.0136 9.57154C46.0107 9.56932 46.0106 9.56858 46.0106 9.56858Z" fill="white"/>
			<path d="M31.7601 20.5516C32.218 21.0758 33.0137 21.1292 33.5375 20.671C34.0614 20.2128 34.1148 19.4166 33.6569 18.8925C29.9892 14.695 23.6838 14.1063 19.3027 17.5521C14.9215 20.9979 14.0042 27.2668 17.214 31.8246C17.4592 32.173 17.849 32.3591 18.2446 32.3591C18.4951 32.3591 18.7485 32.2842 18.9693 32.1293C19.5376 31.7282 19.6739 30.9424 19.273 30.373C16.8354 26.9117 17.5319 22.1507 20.8587 19.5338C24.1862 16.9168 28.9741 17.3638 31.7601 20.5516Z" fill="white"/>
		</g>
	</symbol>

	<symbol  id="ic_student-3" viewBox="0 0 57 55">
		<g>
			<path d="M7.02243 50.6791H50.7279C50.7467 50.6791 50.7648 50.6768 50.7828 50.676C50.8016 50.6768 50.8197 50.6791 50.8377 50.6791C51.5741 50.6791 52.171 50.082 52.171 49.3451V7.05222C52.171 6.31537 51.5741 5.7182 50.8377 5.7182H38.8555C38.1191 5.7182 37.5222 6.31537 37.5222 7.05222C37.5222 7.78906 38.1191 8.38623 38.8555 8.38623H49.5044V48.0111H7.02243C4.62176 48.0111 2.66812 46.0509 2.66812 43.641C2.66812 41.2312 4.62724 39.271 7.03576 39.2702C9.42938 39.2702 11.376 41.2367 11.3767 43.6544C11.3767 43.674 11.3791 43.692 11.3799 43.7117C11.3807 43.7383 11.3814 43.765 11.3838 43.7909C11.3862 43.8129 11.3901 43.8333 11.3932 43.8553C11.3964 43.878 11.3987 43.9008 11.4034 43.9235C11.4081 43.9479 11.416 43.9714 11.4222 43.9957C11.4269 44.0146 11.4309 44.0334 11.4364 44.0514C11.4465 44.0828 11.4583 44.1134 11.4701 44.1448C11.474 44.1542 11.4771 44.1644 11.4811 44.1746C11.4936 44.2037 11.5077 44.2311 11.5218 44.2594C11.5273 44.2696 11.5312 44.2814 11.5375 44.2916C11.5759 44.3622 11.6214 44.4289 11.6709 44.4909C11.674 44.4948 11.6771 44.4995 11.681 44.5042C11.8936 44.7624 12.2018 44.9382 12.5508 44.979C12.5587 44.9798 12.5657 44.9813 12.5736 44.9821C12.6002 44.9845 12.6284 44.9853 12.6559 44.986C12.6739 44.9868 12.692 44.9884 12.71 44.9884C12.7296 44.9884 12.7477 44.986 12.7673 44.9852C12.7939 44.9845 12.8206 44.9837 12.8465 44.9813C12.8684 44.979 12.8896 44.9751 12.9108 44.9719C12.9335 44.9688 12.9563 44.9664 12.979 44.9617C13.0033 44.957 13.0269 44.9499 13.0512 44.9429C13.07 44.9382 13.0888 44.9342 13.1069 44.9288C13.1335 44.9201 13.1594 44.9099 13.1853 44.8997C13.2002 44.8942 13.2151 44.8895 13.2292 44.884C13.2567 44.8722 13.2825 44.8589 13.3084 44.8456C13.321 44.8393 13.3335 44.8346 13.3453 44.8275C13.4159 44.7891 13.4825 44.7436 13.5445 44.6941C13.5484 44.691 13.5531 44.6878 13.5578 44.6839C13.8158 44.4713 13.9915 44.1629 14.0323 43.8137C14.0331 43.8058 14.0347 43.7988 14.0354 43.7909C14.0386 43.7642 14.0386 43.736 14.0394 43.7085C14.0402 43.6905 14.0417 43.6724 14.0417 43.6544V8.38623H26.5682C27.3047 8.38623 27.9015 7.78906 27.9015 7.05222C27.9015 6.31537 27.3047 5.7182 26.5682 5.7182H13.9155C13.2935 2.46478 10.445 0 7.0342 0C3.15516 0 0 3.16396 0 7.05222V43.6544C0 43.6559 0 43.6575 0 43.6591C0.0117642 47.5317 3.15751 50.6791 7.02243 50.6791ZM7.03576 2.66802C9.42859 2.66802 11.376 4.63452 11.376 7.05222V38.1222C10.1815 37.1711 8.67334 36.6022 7.03498 36.6022C5.38643 36.6022 3.86806 37.1734 2.66733 38.1276V7.05222C2.66812 4.6353 4.62724 2.66802 7.03576 2.66802Z" fill="white"/>
			<path d="M55.1178 5.71875C54.3814 5.71875 53.7845 6.31592 53.7845 7.05276V52.293H7.02273C6.28629 52.293 5.68945 52.8902 5.68945 53.6271C5.68945 54.3639 6.28629 54.9611 7.02273 54.9611H55.1178C55.8543 54.9611 56.4511 54.3639 56.4511 53.6271V7.05276C56.4511 6.31592 55.8543 5.71875 55.1178 5.71875Z" fill="white"/>
			<path d="M26.5617 12.9513C26.5617 14.7326 27.3193 16.3389 28.5279 17.4681L25.2143 29.0802C24.9281 28.6918 24.6677 28.2791 24.4395 27.842C24.0983 27.1891 23.2928 26.9356 22.6403 27.277C21.9878 27.6183 21.7345 28.4242 22.0756 29.0771C22.6772 30.2291 23.4466 31.2539 24.3438 32.1304L22.0027 40.3338C21.8004 41.0424 22.2105 41.7808 22.9187 41.9825C23.0411 42.0178 23.1642 42.0343 23.2858 42.0343C23.8662 42.0343 24.4002 41.6521 24.5673 41.0659L26.6198 33.8733C28.0628 34.7255 29.6847 35.2756 31.3937 35.4662V36.7775C31.3937 37.5143 31.9905 38.1115 32.7269 38.1115C33.4634 38.1115 34.0602 37.5143 34.0602 36.7775V35.4702C35.7699 35.2834 37.3934 34.7365 38.838 33.8874L40.8866 41.0667C41.0536 41.6529 41.5877 42.0351 42.1681 42.0351C42.2889 42.0351 42.4128 42.0186 42.5351 41.9833C43.2433 41.7808 43.6535 41.0424 43.4512 40.3346L41.1156 32.1516C42.0222 31.2704 42.7994 30.2385 43.4057 29.0771C43.7468 28.4242 43.4935 27.6183 42.841 27.277C42.1885 26.9356 41.383 27.1891 41.0419 27.842C40.8081 28.2893 40.5415 28.7114 40.2474 29.1077L36.9315 17.4893C38.1526 16.3593 38.9196 14.7435 38.9196 12.9521C38.9196 9.99604 36.835 7.52027 34.0602 6.91368V3.02151C34.0602 2.28467 33.4634 1.6875 32.7269 1.6875C31.9905 1.6875 31.3937 2.28467 31.3937 3.02151V6.91997C28.633 7.53597 26.5617 10.0055 26.5617 12.9513ZM38.0741 31.2107C36.8891 32.0323 35.519 32.5761 34.0602 32.7817V31.6392C34.0602 30.9023 33.4634 30.3052 32.7269 30.3052C31.9905 30.3052 31.3937 30.9023 31.3937 31.6392V32.777C29.9357 32.5667 28.5663 32.0198 27.3836 31.195L30.9051 18.8547C31.4854 19.0359 32.1019 19.1332 32.7403 19.1332C33.37 19.1332 33.9771 19.0383 34.5496 18.8625L38.0741 31.2107ZM32.5097 9.44595C32.5803 9.45772 32.6524 9.46478 32.7269 9.46478C32.8046 9.46478 32.8791 9.45694 32.9528 9.44438C34.7912 9.55502 36.2523 11.0852 36.2523 12.9513C36.2523 14.1684 35.6303 15.2426 34.6884 15.8735C34.6806 15.879 34.6719 15.8837 34.6641 15.8892C34.1112 16.2533 33.45 16.4652 32.7403 16.4652C30.8039 16.4652 29.2283 14.8887 29.2283 12.9513C29.2283 11.0915 30.6807 9.56523 32.5097 9.44595Z" fill="white"/>
			<path d="M32.7418 14.4618C33.5747 14.4618 34.2531 13.7838 34.2531 12.9496C34.2531 12.1163 33.5755 11.4375 32.7418 11.4375C31.9081 11.4375 31.2305 12.1155 31.2305 12.9496C31.2305 13.7838 31.9081 14.4618 32.7418 14.4618Z" fill="white"/>

		</g>
	</symbol>

	<symbol  id="ic_student-4" viewBox="0 0 57 56">
		<g>
			<path d="M56.9023 5.5797C56.9023 4.0395 55.6498 2.78711 54.1112 2.78711H32.5098C30.9704 2.78711 29.7188 4.0395 29.7188 5.5797V46.1656C29.7188 47.7058 30.9704 48.9582 32.5098 48.9582H54.1112C55.6505 48.9582 56.9023 47.7058 56.9023 46.1656V5.5797ZM32.5098 46.27C32.46 46.27 32.4055 46.2154 32.4055 46.1656V44.627H54.2155V46.1656C54.2155 46.2154 54.161 46.27 54.1112 46.27H32.5098ZM54.1112 5.47534C54.161 5.47534 54.2155 5.52989 54.2155 5.5797V19.4154H32.4055V5.57891C32.4055 5.5291 32.46 5.47455 32.5098 5.47455H54.1112V5.47534ZM48.0605 43.0457V40.5654H50.5394V43.0457H48.0605ZM44.0012 43.0457V40.5654H46.4801V43.0457H44.0012ZM39.9702 43.0457V40.5654H42.4207V43.0457H39.9702ZM35.9117 43.0457V40.5654H38.3906V43.0457H35.9117ZM32.4055 43.0457V40.5654H34.3312V43.0457H32.4055ZM38.3898 20.9967V23.3347H35.9109V20.9967H38.3898ZM42.4207 20.9967V23.3347H39.9702V20.9967H42.4207ZM46.4801 20.9967V23.3347H44.0012V20.9967H46.4801ZM50.5394 20.9967V23.3347H48.0605V20.9967H50.5394ZM54.2155 20.9967V23.3347H52.1199V20.9967H54.2155ZM46.4801 31.1455H44.0012V28.836H46.4801V31.1455ZM48.0605 28.836H50.5394V31.1455H48.0605V28.836ZM42.4207 31.1455H39.9702V28.836H42.4207V31.1455ZM38.3898 31.1455H35.9109V28.836H38.3898V31.1455ZM34.3312 31.1455H32.4055V28.836H34.3312V31.1455ZM34.3312 32.7268V35.0648H32.4055V32.7268H34.3312ZM35.9117 32.7268H38.3906V35.0648H35.9117V32.7268ZM39.9702 32.7268H42.4207V35.0648H39.9702V32.7268ZM44.0012 32.7268H46.4801V35.0648H44.0012V32.7268ZM48.0605 32.7268H50.5394V35.0648H48.0605V32.7268ZM52.1199 32.7268H54.2155V35.0648H52.1199V32.7268ZM52.1199 31.1455V28.836H54.2155V31.1455H52.1199ZM52.1199 27.2547V24.9168H54.2155V27.2547H52.1199ZM50.5394 27.2547H48.0605V24.9168H50.5394V27.2547ZM46.4801 27.2547H44.0012V24.9168H46.4801V27.2547ZM42.4207 27.2547H39.9702V24.9168H42.4207V27.2547ZM38.3898 27.2547H35.9109V24.9168H38.3898V27.2547ZM34.3312 27.2547H32.4055V24.9168H34.3312V27.2547ZM32.4055 36.6461H34.3312V38.9841H32.4055V36.6461ZM35.9117 36.6461H38.3906V38.9841H35.9117V36.6461ZM39.9702 36.6461H42.4207V38.9841H39.9702V36.6461ZM44.0012 36.6461H46.4801V38.9841H44.0012V36.6461ZM48.0605 36.6461H50.5394V38.9841H48.0605V36.6461ZM52.1199 36.6461H54.2155V38.9841H52.1199V36.6461ZM34.3312 23.3354H32.4055V20.9975H34.3312V23.3354ZM52.1199 40.5654H54.2155V43.0457H52.1199V40.5654Z" fill="white"/>
			<path d="M28.0574 22.8665C28.0551 22.8444 28.0519 22.8223 28.0487 22.8001C28.0456 22.7796 28.0432 22.7582 28.0393 22.7377C28.0345 22.7139 28.029 22.691 28.0235 22.6673C28.0187 22.6483 28.014 22.6293 28.0092 22.6104C28.0029 22.5874 27.995 22.5653 27.9871 22.5424C27.9808 22.5234 27.9737 22.5044 27.9666 22.4854C27.9579 22.4649 27.9492 22.4443 27.9397 22.4246C27.9302 22.4048 27.9215 22.385 27.9112 22.3653C27.9018 22.3471 27.8915 22.3289 27.8812 22.3115C27.8694 22.2909 27.8575 22.2712 27.8449 22.2514C27.8338 22.2348 27.8219 22.219 27.8101 22.2024C27.7967 22.1834 27.7824 22.1644 27.7674 22.1455C27.754 22.1289 27.7398 22.113 27.7256 22.0964C27.7113 22.0798 27.6971 22.0632 27.6813 22.0474C27.6631 22.0292 27.6442 22.0118 27.6252 21.9944C27.6141 21.9842 27.6038 21.9731 27.592 21.9636L2.21498 0.321792C2.21261 0.31942 2.20944 0.317843 2.20628 0.315471C2.18494 0.297286 2.16283 0.280681 2.13991 0.264868C2.12648 0.254589 2.11384 0.24431 2.09961 0.234822C2.07749 0.2198 2.05377 0.205565 2.03006 0.192124C2.01505 0.183427 2.00084 0.173941 1.98662 0.165244C1.96449 0.153384 1.94156 0.143102 1.91865 0.132033C1.90205 0.124127 1.88547 0.115435 1.86808 0.107528C1.84754 0.0988308 1.82541 0.091711 1.80407 0.0838044C1.78432 0.0766885 1.76456 0.0679987 1.7448 0.0616734C1.72584 0.0561388 1.70688 0.0513899 1.68791 0.046646C1.6642 0.0403207 1.64128 0.0332064 1.61757 0.0284624C1.60019 0.0252998 1.58281 0.022929 1.56542 0.0197664C1.53935 0.0150225 1.51248 0.0102766 1.4864 0.00790462C1.46981 0.00632331 1.45241 0.00552957 1.43582 0.00473891C1.40816 0.0031576 1.38052 0.000791427 1.35286 0.000791427C1.3497 0.000791427 1.34574 0 1.34258 0C1.32677 0 1.31175 0.00158363 1.29595 0.00237428C1.27066 0.00316494 1.24617 0.0039498 1.22088 0.00632177C1.19875 0.00869373 1.17664 0.0118552 1.15452 0.0150178C1.13397 0.0181804 1.11263 0.020552 1.09208 0.0245053C1.06838 0.0292492 1.04466 0.0347896 1.02174 0.0403242C1.00278 0.0450681 0.983817 0.049016 0.964851 0.0545506C0.941935 0.0608758 0.91982 0.0687847 0.896904 0.0766912C0.877938 0.0830165 0.858976 0.0901332 0.84001 0.0972491C0.819465 0.105946 0.798918 0.114641 0.779162 0.124129C0.759407 0.133617 0.739651 0.142313 0.719896 0.152591C0.701721 0.162079 0.684322 0.172358 0.666147 0.182636C0.645602 0.194496 0.625845 0.206363 0.60609 0.219013C0.589495 0.230082 0.573702 0.241937 0.557898 0.253006C0.538932 0.267238 0.519179 0.280682 0.501004 0.295704C0.48441 0.309145 0.468597 0.32338 0.452793 0.337611C0.436198 0.352634 0.419614 0.366861 0.403809 0.382674C0.385634 0.400069 0.369028 0.41905 0.352434 0.437235C0.342161 0.448304 0.331105 0.459368 0.320833 0.471227C0.318462 0.473599 0.316875 0.476761 0.314505 0.479924C0.29633 0.501271 0.280534 0.523416 0.263939 0.545554C0.253667 0.558995 0.243384 0.572428 0.233901 0.585869C0.218887 0.608007 0.205451 0.630944 0.192017 0.653874C0.183325 0.668896 0.173064 0.683123 0.165162 0.698937C0.153309 0.720284 0.143814 0.742419 0.132751 0.764558C0.124059 0.781952 0.11538 0.799349 0.107478 0.816743C0.0987856 0.83651 0.0924608 0.857068 0.0845586 0.877625C0.0766564 0.898183 0.0687512 0.918743 0.0616392 0.94009C0.0561077 0.958275 0.052162 0.976457 0.0474207 0.995432C0.041099 1.01994 0.0339878 1.04367 0.0284563 1.06818C0.0252954 1.08478 0.0229171 1.10138 0.0205464 1.11878C0.0158051 1.14566 0.0110708 1.17254 0.00790988 1.19942C0.00632945 1.21602 0.00553615 1.23263 0.00474593 1.24844C0.0031655 1.27611 0.000790988 1.30458 0.000790988 1.33304C0.000790988 1.33621 0 1.34016 0 1.34332V22.9851C0 23.7276 0.601355 24.3293 1.34337 24.3293H26.7188H26.7196C26.7204 24.3293 26.722 24.3293 26.7228 24.3293C26.7694 24.3293 26.8152 24.3269 26.8602 24.3221C26.8658 24.3213 26.8721 24.3206 26.8777 24.3198C26.9187 24.315 26.959 24.3087 26.9985 24.3008C27.0088 24.2984 27.0183 24.2953 27.0286 24.2929C27.0633 24.285 27.0981 24.2755 27.1321 24.2652C27.1463 24.2605 27.1598 24.2549 27.174 24.2494C27.2024 24.2391 27.2317 24.2288 27.2593 24.2162C27.2767 24.2091 27.2933 24.2004 27.3099 24.1917C27.3336 24.1798 27.3581 24.168 27.381 24.1545C27.3992 24.1442 27.4166 24.1332 27.4339 24.1221C27.4553 24.1087 27.4766 24.0944 27.4972 24.0802C27.5146 24.0683 27.5312 24.0557 27.5478 24.0422C27.5691 24.0256 27.5888 24.0082 27.6086 23.9908C27.6228 23.9782 27.6378 23.9655 27.652 23.9513C27.675 23.9292 27.6971 23.9055 27.7184 23.8817C27.7263 23.873 27.735 23.8651 27.7429 23.8564C27.7453 23.8541 27.7469 23.8509 27.7492 23.8485C27.7674 23.8264 27.7848 23.8035 27.8014 23.7805C27.8109 23.7679 27.8212 23.7552 27.8298 23.7418C27.8456 23.7189 27.8599 23.6944 27.8741 23.6706C27.8828 23.6564 27.8915 23.643 27.8994 23.6287C27.912 23.6058 27.9223 23.5821 27.9334 23.5592C27.9413 23.5426 27.95 23.5267 27.9571 23.5109C27.9658 23.4896 27.9729 23.4674 27.9808 23.4461C27.9879 23.4263 27.9958 23.4073 28.0021 23.3876C28.0077 23.3686 28.0124 23.3488 28.0171 23.3299C28.0235 23.3069 28.0306 23.2832 28.0353 23.2603C28.0385 23.2429 28.0408 23.2255 28.044 23.2081C28.0488 23.182 28.0535 23.1551 28.0559 23.129C28.0574 23.1124 28.0582 23.0958 28.059 23.0784C28.0606 23.0508 28.063 23.0231 28.063 22.9954C28.063 22.9923 28.0638 22.9883 28.0638 22.9851C28.0638 22.9693 28.0622 22.9543 28.0614 22.9385C28.0606 22.9171 28.0598 22.8918 28.0574 22.8665ZM2.68674 19.1062H5.22334V21.6442H2.68674V19.1062ZM7.91008 17.7621C7.91008 17.0196 7.30872 16.418 6.56671 16.418H2.68674V4.25768L23.0735 21.6442H7.91008V17.7621Z" fill="white"/>
			<path d="M14.0489 27.9492C6.31979 27.9492 0.03125 34.2412 0.03125 41.9746C0.03125 49.708 6.31979 56.0001 14.0489 56.0001C21.778 56.0001 28.0666 49.708 28.0666 41.9746C28.0666 34.2412 21.778 27.9492 14.0489 27.9492ZM14.0489 53.3119C7.80066 53.3119 2.71799 48.2264 2.71799 41.9746C2.71799 35.7229 7.80066 30.6374 14.0489 30.6374C17.0778 30.6374 19.8333 31.8329 21.8681 33.7771L13.3124 41.1508C12.8493 41.5501 12.7972 42.249 13.1963 42.7115C13.4151 42.9661 13.7241 43.0958 14.0347 43.0958C14.2907 43.0958 14.5475 43.008 14.7561 42.8278L23.3118 35.4541C24.6133 37.2995 25.379 39.5497 25.379 41.9746C25.3798 48.2264 20.2964 53.3119 14.0489 53.3119Z" fill="white"/>
			<path d="M34.8393 16.082H51.7855C52.3307 16.082 52.7733 15.6393 52.7733 15.0937V7.90824C52.7733 7.36269 52.3307 6.91992 51.7855 6.91992H34.8393C34.2941 6.91992 33.8516 7.36269 33.8516 7.90824V15.0937C33.8516 15.6393 34.2941 16.082 34.8393 16.082ZM35.8271 8.89577H50.7977V14.1046H35.8271V8.89577Z" fill="white"/>
		</g>
	</symbol>

	<symbol  id="ic_student-5" viewBox="0 0 56 63">
		<g>
			<path d="M38.2662 12.985C35.146 10.7036 31.4539 9.49805 27.5892 9.49805C23.7245 9.49805 20.0324 10.7036 16.9123 12.985C13.7922 15.2664 11.5235 18.4187 10.3497 22.1019C9.17678 25.7851 9.20481 29.6698 10.4311 33.3354C11.6575 37.0011 13.9717 40.1201 17.1243 42.3559C17.1243 42.3559 17.1243 42.3559 17.1251 42.3559C17.9363 42.9315 18.4408 43.9128 18.4408 44.9186V53.8357C18.4408 55.7737 19.6435 57.4339 21.3376 58.1024L22.6042 60.8858C22.6191 60.9173 22.6349 60.9489 22.6506 60.9795C23.255 62.2096 24.5243 63.0007 25.9188 63.0007H29.2588C30.6752 63.0007 31.9637 62.186 32.5559 60.9217C32.562 60.9095 32.5681 60.8981 32.5734 60.8867V60.8858L33.84 58.1033C35.5341 57.4348 36.7368 55.7754 36.7368 53.8366V44.9186C36.7368 43.9163 37.2369 42.964 38.0743 42.3699C38.0743 42.3699 38.0743 42.3699 38.0752 42.3691C41.226 40.1341 43.5368 37.0116 44.7578 33.3389C45.9771 29.6724 46.0008 25.7859 44.827 22.101C43.655 18.4187 41.3863 15.2664 38.2662 12.985ZM29.8641 59.6522C29.8632 59.6522 29.8632 59.6522 29.8641 59.6522C29.7616 59.8774 29.5242 60.0219 29.2597 60.0219H25.9197C25.6543 60.0219 25.4178 59.8774 25.3153 59.6522C25.3153 59.6522 25.3153 59.6522 25.3153 59.6513L24.7538 58.4169H30.4264L29.8641 59.6522ZM36.354 39.9396C36.3531 39.9396 36.3531 39.9396 36.354 39.9396C34.73 41.0917 33.7603 42.9526 33.7603 44.9186V50.4565H25.5054C24.8282 50.4565 24.279 51.0058 24.279 51.6831C24.279 52.3603 24.8282 52.9096 25.5054 52.9096H33.7603V53.8366C33.7603 54.7206 33.0534 55.439 32.1853 55.439H22.9931C22.1251 55.439 21.4182 54.7197 21.4182 53.8366V48.8786H29.6451C30.3222 48.8786 30.8714 48.3293 30.8714 47.6521C30.8714 46.9748 30.3222 46.4255 29.6451 46.4255H21.4182V44.9186C21.4182 42.9342 20.4564 41.068 18.8464 39.9265C13.4558 36.1031 11.1818 29.3044 13.1878 23.0069C15.1937 16.7094 20.9811 12.4777 27.5892 12.4777C34.1974 12.4777 39.9848 16.7085 41.9907 23.0069C44.0001 29.3176 41.7349 36.1224 36.354 39.9396Z" fill="white"/>
			<path d="M12.5308 14.0511C12.9101 14.0511 13.2894 13.9075 13.5793 13.6192C14.1636 13.0401 14.1671 12.0965 13.5881 11.513L10.1929 8.08914C9.61388 7.50476 8.67048 7.50126 8.0871 8.08038C7.50284 8.65949 7.49934 9.60308 8.07834 10.1866L11.4735 13.6104C11.7643 13.904 12.148 14.0511 12.5308 14.0511Z" fill="white"/>
			<path d="M6.29195 26.1172H1.48912C0.666598 26.1172 0 26.7839 0 27.6066C0 28.4293 0.666598 29.096 1.48912 29.096H6.29195C7.11447 29.096 7.78107 28.4293 7.78107 27.6066C7.78107 26.7839 7.11447 26.1172 6.29195 26.1172Z" fill="white"/>
			<path d="M27.5731 7.81057C28.3956 7.81057 29.0622 7.14384 29.0622 6.32117V2.51095V1.4894C29.0622 0.666724 28.3956 0 27.5731 0C26.7506 0 26.084 0.666724 26.084 1.4894V2.51095V6.32117C26.084 7.14384 26.7506 7.81057 27.5731 7.81057Z" fill="white"/>
			<path d="M47.0922 8.08474C46.5105 7.503 45.568 7.503 44.9864 8.08474L41.5632 11.5086C40.9815 12.0903 40.9815 13.033 41.5632 13.6148C41.854 13.9057 42.235 14.0511 42.6161 14.0511C42.9971 14.0511 43.3781 13.9057 43.669 13.6148L47.0922 10.1909C47.6738 9.60918 47.6738 8.66648 47.0922 8.08474Z" fill="white"/>
			<path d="M53.6872 26.1172H48.8563C48.0338 26.1172 47.3672 26.7839 47.3672 27.6066C47.3672 28.4293 48.0338 29.096 48.8563 29.096H53.6872C54.5097 29.096 55.1763 28.4293 55.1763 27.6066C55.1763 26.7839 54.5097 26.1172 53.6872 26.1172Z" fill="white"/>
			<path d="M39.5237 23.9884C39.5071 23.984 39.4913 23.9805 39.4747 23.9779C39.4616 23.9752 39.4493 23.9717 39.4361 23.9691C39.4274 23.9674 39.4178 23.9674 39.409 23.9656C39.4002 23.9639 39.3915 23.9621 39.3818 23.9604L37.5931 23.7273C37.5458 23.6046 37.4968 23.4837 37.446 23.3655L38.5444 21.9137C38.5497 21.9067 38.5541 21.8989 38.5593 21.8918C38.5628 21.8866 38.5672 21.8822 38.5716 21.8769C38.5803 21.8638 38.5882 21.8507 38.597 21.8375C38.6057 21.8244 38.6145 21.8112 38.6224 21.7972C39.2014 20.8948 39.0831 19.7138 38.3237 18.9533C38.3237 18.9533 38.3237 18.9533 38.3228 18.9533L36.2801 16.9102C35.5189 16.1489 34.3355 16.0324 33.4315 16.615C33.4175 16.6229 33.4044 16.6325 33.3903 16.6413C33.379 16.6492 33.3676 16.6553 33.3562 16.6632C33.3483 16.6684 33.3413 16.6746 33.3334 16.6807C33.3264 16.686 33.3185 16.6903 33.3106 16.6965L31.8732 17.8039C31.755 17.7496 31.6402 17.6996 31.5263 17.6532L31.2706 15.8405C31.2697 15.8335 31.2679 15.8274 31.267 15.8203C31.2662 15.8133 31.2653 15.8063 31.2644 15.7993C31.2609 15.7818 31.2565 15.7652 31.253 15.7476C31.2504 15.7336 31.2478 15.7196 31.2443 15.7065C31.0157 14.656 30.1196 13.9297 29.0299 13.9297H26.1375C25.0522 13.9297 24.1272 14.6735 23.9003 15.7108C23.8959 15.7275 23.8924 15.7441 23.8889 15.7608C23.8863 15.7739 23.8828 15.7862 23.8802 15.7993C23.8784 15.809 23.8784 15.8177 23.8767 15.8274C23.8749 15.8361 23.8732 15.8449 23.8714 15.8545L23.6367 17.6576C23.5263 17.704 23.4142 17.7522 23.2985 17.8048L21.862 16.6973C21.8541 16.6912 21.8462 16.6868 21.8392 16.6816C21.8313 16.6763 21.8252 16.6702 21.8173 16.6649C21.8068 16.657 21.7954 16.6509 21.784 16.6439C21.77 16.6351 21.756 16.6255 21.742 16.6167C20.8389 16.0341 19.6555 16.1515 18.8943 16.912C18.8943 16.912 18.8943 16.912 18.8943 16.9129L16.8524 18.9551C16.8524 18.9551 16.8524 18.9551 16.8516 18.9551C16.0816 19.7243 15.9528 20.908 16.5275 21.8025C16.5362 21.8174 16.5458 21.8323 16.5555 21.8472C16.5625 21.8577 16.5686 21.8691 16.5756 21.8796C16.58 21.8857 16.5853 21.891 16.5896 21.898C16.5958 21.9067 16.6019 21.9164 16.608 21.9251L17.7249 23.3751C17.6758 23.4916 17.6276 23.6099 17.5812 23.7299L15.7925 23.963C15.7838 23.9639 15.775 23.9665 15.7654 23.9682C15.7566 23.97 15.747 23.97 15.7382 23.9717C15.7251 23.9744 15.7119 23.9779 15.6988 23.9805C15.683 23.984 15.6673 23.9866 15.6515 23.991C14.5977 24.2179 13.8418 25.1326 13.8418 26.2015V27.6646C13.8418 28.3418 14.391 28.8911 15.0681 28.8911C15.7452 28.8911 16.2945 28.3418 16.2945 27.6646V26.3723L18.6499 26.0648C18.6534 26.0639 18.656 26.0639 18.6595 26.063C18.6954 26.0578 18.7313 26.0516 18.7664 26.0438C18.769 26.0429 18.7716 26.0429 18.7743 26.042C18.8102 26.0332 18.8461 26.0227 18.8811 26.0113C18.8943 26.007 18.9065 26.0017 18.9188 25.9973C18.9398 25.9894 18.9608 25.9816 18.9819 25.9719C18.9968 25.9649 19.0125 25.9579 19.0274 25.9509C19.0458 25.9421 19.0633 25.9325 19.0808 25.9229C19.0949 25.915 19.1098 25.9071 19.1238 25.8992C19.1465 25.8852 19.1684 25.8703 19.1912 25.8554C19.2 25.8493 19.2087 25.844 19.2166 25.8379C19.2438 25.8177 19.2709 25.7958 19.2963 25.7739C19.3033 25.7678 19.3103 25.7608 19.3182 25.7538C19.3384 25.7354 19.3585 25.7161 19.3778 25.6959C19.3848 25.6889 19.3909 25.6819 19.3979 25.674C19.4172 25.653 19.4356 25.6311 19.454 25.6083C19.4593 25.6022 19.4645 25.5952 19.4698 25.5891C19.489 25.5636 19.5074 25.5374 19.525 25.5102C19.5276 25.5058 19.5311 25.5014 19.5337 25.4979C19.5539 25.4655 19.5723 25.4331 19.5898 25.3989C19.5915 25.3954 19.5924 25.3919 19.5942 25.3893C19.6082 25.3604 19.6213 25.3315 19.6327 25.3008C19.6388 25.285 19.6441 25.2693 19.6493 25.2526C19.6537 25.2395 19.659 25.2263 19.6634 25.2132C19.8272 24.6858 20.0207 24.2083 20.2397 23.7921C20.2441 23.7834 20.2476 23.7737 20.252 23.765C20.2634 23.7422 20.2748 23.7185 20.2844 23.6949C20.2914 23.6782 20.2975 23.6616 20.3037 23.645C20.3107 23.6248 20.3177 23.6055 20.3247 23.5854C20.3308 23.5652 20.337 23.5442 20.3422 23.524C20.3466 23.5074 20.351 23.4899 20.3545 23.4732C20.3597 23.4504 20.3632 23.4277 20.3667 23.4049C20.3694 23.3891 20.3711 23.3734 20.3729 23.3576C20.3755 23.3348 20.3773 23.3111 20.3781 23.2884C20.379 23.2717 20.3799 23.2551 20.3799 23.2384C20.3799 23.2165 20.3799 23.1955 20.379 23.1736C20.3781 23.1543 20.3772 23.1359 20.3755 23.1167C20.3737 23.0974 20.372 23.079 20.3694 23.0597C20.3667 23.0387 20.3632 23.0168 20.3589 22.9957C20.3554 22.9791 20.3527 22.9633 20.3483 22.9467C20.3431 22.9239 20.337 22.9011 20.3308 22.8792C20.3264 22.8643 20.3212 22.8486 20.3168 22.8337C20.3098 22.8118 20.3019 22.7899 20.2932 22.768C20.287 22.7522 20.28 22.7355 20.273 22.7198C20.2643 22.7005 20.2555 22.6812 20.2459 22.662C20.2362 22.6436 20.2257 22.6252 20.2152 22.6068C20.2064 22.591 20.1977 22.5761 20.188 22.5612C20.174 22.5402 20.1591 22.5191 20.1443 22.4981C20.1381 22.4902 20.1329 22.4815 20.1267 22.4736L18.6823 20.5978L20.5183 18.7615L22.3928 20.2053C22.3972 20.2088 22.4007 20.2114 22.4051 20.215L22.4095 20.2185C22.4112 20.2193 22.413 20.2202 22.4138 20.222C22.4375 20.2395 22.4611 20.2561 22.4857 20.2728C22.4927 20.2772 22.4997 20.2815 22.5067 20.2859C22.526 20.2982 22.5461 20.3096 22.5654 20.3201C22.575 20.3253 22.5838 20.3306 22.5934 20.3359C22.6118 20.3455 22.6302 20.3542 22.6495 20.363C22.6644 20.37 22.6801 20.377 22.6959 20.3832C22.7169 20.3919 22.7371 20.3998 22.7581 20.4068C22.773 20.4121 22.7879 20.4165 22.8036 20.4208C22.8176 20.4252 22.8317 20.4296 22.8457 20.4331C22.8606 20.4366 22.8755 20.4401 22.8903 20.4436C22.9061 20.4471 22.921 20.4506 22.9368 20.4533C22.9499 20.4559 22.9639 20.4585 22.9771 20.4603C22.9963 20.4629 23.0165 20.4655 23.0358 20.4673C23.0454 20.4682 23.055 20.4699 23.0647 20.4699C23.0953 20.4725 23.1269 20.4734 23.1575 20.4734C23.1873 20.4734 23.218 20.4699 23.2477 20.4682C23.2635 20.4673 23.2793 20.4673 23.2942 20.4655C23.3204 20.4629 23.3467 20.4568 23.3721 20.4524C23.3931 20.4489 23.4142 20.4462 23.4343 20.441C23.4553 20.4357 23.4764 20.4287 23.4983 20.4226C23.5237 20.4147 23.5499 20.4077 23.5745 20.3989C23.592 20.3928 23.6086 20.3849 23.6261 20.3779C23.6551 20.3656 23.6831 20.3534 23.7111 20.3394C23.7164 20.3367 23.7216 20.335 23.7269 20.3323C24.277 20.0432 24.7062 19.8566 25.1205 19.7278C25.1284 19.7252 25.1354 19.7217 25.1433 19.7199C25.1696 19.7112 25.195 19.7024 25.2204 19.6919C25.2344 19.6858 25.2484 19.6796 25.2624 19.6735C25.2826 19.6639 25.3027 19.6542 25.3229 19.6446C25.3395 19.6358 25.3553 19.6279 25.371 19.6183C25.3868 19.6087 25.4026 19.599 25.4183 19.5894C25.4359 19.578 25.4534 19.5675 25.47 19.5552C25.4832 19.5456 25.4963 19.5351 25.5094 19.5254C25.5261 19.5123 25.5436 19.4992 25.5602 19.4852C25.5734 19.4738 25.5856 19.4615 25.5979 19.4501C25.6128 19.4361 25.6277 19.4229 25.6417 19.4081C25.6943 19.3537 25.7416 19.2942 25.7836 19.2302C25.7862 19.2258 25.7889 19.2214 25.7915 19.2171C25.8099 19.189 25.8265 19.1601 25.8423 19.1303C25.8458 19.1233 25.8493 19.1154 25.8537 19.1075C25.8668 19.0813 25.88 19.055 25.8914 19.0269C25.8966 19.0147 25.9001 19.0033 25.9054 18.991C25.9141 18.9682 25.9229 18.9446 25.9299 18.9209C25.9351 18.9034 25.9395 18.8868 25.9439 18.8692C25.9492 18.85 25.9544 18.8316 25.9579 18.8123C25.9623 18.7904 25.9658 18.7685 25.9693 18.7466C25.9711 18.7352 25.9737 18.7247 25.9754 18.7133L26.2794 16.3854H28.8731L29.2042 18.7264C29.2059 18.7361 29.2077 18.7457 29.2094 18.7553C29.2129 18.7764 29.2164 18.7974 29.2217 18.8184C29.2261 18.8377 29.2305 18.857 29.2357 18.8754C29.2401 18.892 29.2445 18.9095 29.2506 18.9262C29.2576 18.949 29.2664 18.9709 29.2743 18.9936C29.2795 19.0059 29.2839 19.0191 29.2892 19.0313C29.2997 19.0567 29.3119 19.0813 29.3242 19.1058C29.3286 19.1154 29.333 19.1242 29.3382 19.1338C29.3522 19.1601 29.3671 19.1855 29.3829 19.21C29.3873 19.2171 29.3916 19.2249 29.3969 19.2328C29.4135 19.2582 29.4319 19.2828 29.4512 19.3073C29.4565 19.3134 29.4608 19.3204 29.4652 19.3266C29.488 19.3546 29.5116 19.3809 29.5362 19.4072C29.5484 19.4194 29.5616 19.4308 29.5738 19.4431C29.5896 19.458 29.6054 19.4738 29.622 19.4878C29.6369 19.5009 29.6536 19.5123 29.6693 19.5246C29.6833 19.536 29.6973 19.5465 29.7122 19.557C29.728 19.5684 29.7438 19.578 29.7604 19.5885C29.7771 19.599 29.7937 19.6096 29.8103 19.6192C29.8252 19.6279 29.8401 19.6358 29.8559 19.6437C29.876 19.6542 29.8971 19.6647 29.9181 19.6744C29.9312 19.6805 29.9444 19.6858 29.9575 19.691C29.9829 19.7015 30.0092 19.7112 30.0363 19.7199C30.0434 19.7226 30.0495 19.7252 30.0574 19.7278C30.4717 19.8566 30.9009 20.0424 31.451 20.3323C31.4563 20.335 31.4615 20.3367 31.4668 20.3394C31.4948 20.3534 31.5237 20.3665 31.5526 20.3779C31.5693 20.3849 31.5859 20.3928 31.6025 20.3989C31.6279 20.4086 31.6542 20.4156 31.6805 20.4235C31.7015 20.4296 31.7217 20.4366 31.7427 20.441C31.7637 20.4462 31.7847 20.4489 31.8058 20.4524C31.8312 20.4568 31.8574 20.4629 31.8828 20.4655C31.8986 20.4673 31.9144 20.4673 31.9301 20.4682C31.9599 20.4708 31.9897 20.4734 32.0195 20.4734C32.0501 20.4734 32.0817 20.4717 32.1123 20.4699C32.122 20.469 32.1316 20.4682 32.1412 20.4673C32.1614 20.4655 32.1807 20.4629 32.2008 20.4603C32.2139 20.4585 32.228 20.4559 32.2411 20.4533C32.2569 20.4506 32.2726 20.4471 32.2884 20.4436C32.3033 20.4401 32.3182 20.4366 32.3331 20.4331C32.3471 20.4296 32.3611 20.4252 32.3751 20.4208C32.39 20.4165 32.4049 20.4121 32.4198 20.4068C32.4408 20.3998 32.4618 20.3911 32.4829 20.3823C32.4978 20.3762 32.5135 20.3692 32.5284 20.3621C32.5468 20.3534 32.5661 20.3446 32.5845 20.335C32.5941 20.3297 32.6037 20.3245 32.6125 20.3192C32.6327 20.3087 32.6519 20.2973 32.6712 20.285C32.6782 20.2807 32.6852 20.2763 32.6931 20.271C32.7176 20.2553 32.7413 20.2386 32.764 20.2211C32.7658 20.2202 32.7675 20.2185 32.7693 20.2176L32.7746 20.2141C32.7781 20.2114 32.7824 20.2079 32.7859 20.2053L34.6605 18.7615L36.4824 20.5838L35.0459 22.4823C35.0406 22.4894 35.0363 22.4972 35.031 22.5051C35.0161 22.5253 35.0021 22.5463 34.989 22.5673C34.9793 22.5822 34.9706 22.5971 34.9618 22.6129C34.9513 22.6313 34.9408 22.6497 34.932 22.669C34.9224 22.6874 34.9136 22.7066 34.9049 22.725C34.8979 22.7408 34.8908 22.7574 34.8847 22.7741C34.876 22.7951 34.8681 22.817 34.8611 22.8389C34.8558 22.8547 34.8514 22.8696 34.8471 22.8854C34.8409 22.9073 34.8348 22.93 34.8295 22.9528C34.826 22.9695 34.8225 22.9861 34.8199 23.0028C34.8164 23.0238 34.8129 23.0448 34.8094 23.0667C34.8068 23.086 34.805 23.1053 34.8033 23.1245C34.8015 23.1438 34.8006 23.1622 34.7998 23.1815C34.7989 23.2034 34.7989 23.2253 34.7998 23.2472C34.7998 23.2638 34.8006 23.2805 34.8015 23.2971C34.8033 23.3208 34.805 23.3436 34.8076 23.3672C34.8094 23.383 34.8111 23.3988 34.8138 23.4145C34.8173 23.4373 34.8217 23.4601 34.8269 23.4829C34.8304 23.4995 34.8348 23.5162 34.8392 23.5337C34.8444 23.5538 34.8506 23.5749 34.8567 23.595C34.8628 23.6152 34.8698 23.6344 34.8768 23.6537C34.883 23.6704 34.89 23.687 34.897 23.7036C34.9066 23.7264 34.9171 23.7492 34.9285 23.7711C34.9329 23.779 34.9355 23.7878 34.9399 23.7965C35.1589 24.2127 35.3534 24.691 35.5163 25.2176C35.5207 25.2316 35.5259 25.2447 35.5303 25.2579C35.5355 25.2736 35.5408 25.2894 35.5469 25.3052C35.5592 25.3359 35.5723 25.3656 35.5864 25.3954C35.5881 25.3981 35.589 25.4007 35.5899 25.4033C35.6074 25.4375 35.6258 25.4708 35.6459 25.5023C35.6485 25.5067 35.6512 25.5102 35.6538 25.5146C35.6713 25.5417 35.6897 25.5689 35.709 25.5943C35.7142 25.6004 35.7195 25.6075 35.7239 25.6136C35.7423 25.6364 35.7607 25.6583 35.7799 25.6802C35.7861 25.6872 35.7931 25.6942 35.7992 25.7012C35.8185 25.7213 35.8386 25.7406 35.8596 25.7599C35.8667 25.766 35.8737 25.773 35.8807 25.7792C35.9069 25.802 35.9341 25.8239 35.9621 25.844C35.97 25.8493 35.9779 25.8545 35.9858 25.8598C36.0077 25.8756 36.0305 25.8904 36.0541 25.9045C36.0681 25.9123 36.0821 25.9202 36.0962 25.9281C36.1137 25.9377 36.1321 25.9474 36.1505 25.9562C36.1654 25.9632 36.1802 25.9702 36.1951 25.9772C36.2162 25.9859 36.2372 25.9947 36.2582 26.0026C36.2705 26.007 36.2827 26.0122 36.2959 26.0166C36.3309 26.0289 36.3668 26.0385 36.4027 26.0473C36.4054 26.0481 36.408 26.0481 36.4106 26.049C36.4457 26.0569 36.4816 26.0639 36.5184 26.0683C36.5219 26.0692 36.5245 26.0692 36.528 26.07L38.8834 26.3776V27.6698C38.8834 28.3471 39.4326 28.8964 40.1098 28.8964C40.7869 28.8964 41.3361 28.3471 41.3361 27.6698V26.2444C41.3361 26.2444 41.3361 26.2444 41.3361 26.2435C41.3317 25.1466 40.5766 24.2171 39.5237 23.9884Z" fill="white"/>
			<path d="M27.587 22.1543C24.5589 22.1543 22.0957 24.6179 22.0957 27.6467C22.0957 30.6754 24.5589 33.1391 27.587 33.1391C30.6152 33.1391 33.0784 30.6754 33.0784 27.6467C33.0784 24.6179 30.6152 22.1543 27.587 22.1543ZM27.587 30.6859C25.9113 30.6859 24.5484 29.3227 24.5484 27.6467C24.5484 25.9707 25.9113 24.6074 27.587 24.6074C29.2627 24.6074 30.6257 25.9707 30.6257 27.6467C30.6257 29.3227 29.2627 30.6859 27.587 30.6859Z" fill="white"/>
		</g>
	</symbol>

</svg>