<svg width="36" height="36" viewBox="0 0 36 36" fill="none" xmlns="http://www.w3.org/2000/svg">
<circle cx="18" cy="18" r="18" fill="#02906D"/>
<path fill-rule="evenodd" clip-rule="evenodd" d="M13.3839 13.1392C10.8555 15.0848 8.75666 16.6981 8.71988 16.7242C8.65822 16.768 8.70306 16.8367 9.2997 17.6119L9.94632 18.4521L10.1692 18.2813C10.2918 18.1874 12.1037 16.7947 14.1957 15.1864L17.9992 12.2624L21.8028 15.1864C23.8947 16.7947 25.7066 18.1874 25.8292 18.2813L26.0521 18.4521L26.6987 17.6119C27.2953 16.8368 27.3402 16.768 27.2786 16.7243C27.2418 16.6982 26.6535 16.2473 25.9712 15.7224L24.7307 14.768L24.7125 13.0667L24.6942 11.3655L23.3352 11.3559L21.9761 11.3464V11.9848C21.9761 12.3359 21.9677 12.6231 21.9574 12.6231C21.9471 12.6231 21.0533 11.9424 19.9712 11.1103C18.889 10.2783 17.9985 9.59844 17.9923 9.59961C17.9861 9.60078 15.9123 11.1936 13.3839 13.1392ZM14.7794 16.1125L11.5779 18.5771V21.8883V25.1996H14.1501H16.7222V22.7754V20.3513H18.1087H19.4951V22.7754V25.1996H21.9578H24.4206V21.8883V18.577L21.2121 16.1104C19.4473 14.7538 17.9984 13.6448 17.9923 13.6459C17.9861 13.647 16.5403 14.757 14.7794 16.1125Z" fill="white"/>
</svg>
