<svg width="19" height="19" viewBox="0 0 19 19" fill="none" xmlns="http://www.w3.org/2000/svg">
<path d="M4.5 2.5C4.5 3.03043 4.28929 3.53914 3.91421 3.91421C3.53914 4.28929 3.03043 4.5 2.5 4.5C1.96957 4.5 1.46086 4.28929 1.08579 3.91421C0.710714 3.53914 0.5 3.03043 0.5 2.5C0.5 1.96957 0.710714 1.46086 1.08579 1.08579C1.46086 0.710714 1.96957 0.5 2.5 0.5C3.03043 0.5 3.53914 0.710714 3.91421 1.08579C4.28929 1.46086 4.5 1.96957 4.5 2.5V2.5Z" fill="white"/>
<path d="M5.5 2.5C5.5 2.76522 5.60536 3.01957 5.79289 3.20711C5.98043 3.39464 6.23478 3.5 6.5 3.5H12.5C12.7652 3.5 13.0196 3.39464 13.2071 3.20711C13.3946 3.01957 13.5 2.76522 13.5 2.5C13.5 2.23478 13.3946 1.98043 13.2071 1.79289C13.0196 1.60536 12.7652 1.5 12.5 1.5H6.5C6.23478 1.5 5.98043 1.60536 5.79289 1.79289C5.60536 1.98043 5.5 2.23478 5.5 2.5Z" fill="white"/>
<path d="M2.5 5.5C2.23478 5.5 1.98043 5.60536 1.79289 5.79289C1.60536 5.98043 1.5 6.23478 1.5 6.5V12.5C1.5 12.7652 1.60536 13.0196 1.79289 13.2071C1.98043 13.3946 2.23478 13.5 2.5 13.5C2.76522 13.5 3.01957 13.3946 3.20711 13.2071C3.39464 13.0196 3.5 12.7652 3.5 12.5V6.5C3.5 6.23478 3.39464 5.98043 3.20711 5.79289C3.01957 5.60536 2.76522 5.5 2.5 5.5Z" fill="white"/>
<path d="M16.5 5.5C16.2348 5.5 15.9804 5.60536 15.7929 5.79289C15.6054 5.98043 15.5 6.23478 15.5 6.5V12.5C15.5 12.7652 15.6054 13.0196 15.7929 13.2071C15.9804 13.3946 16.2348 13.5 16.5 13.5C16.7652 13.5 17.0196 13.3946 17.2071 13.2071C17.3946 13.0196 17.5 12.7652 17.5 12.5V6.5C17.5 6.23478 17.3946 5.98043 17.2071 5.79289C17.0196 5.60536 16.7652 5.5 16.5 5.5Z" fill="white"/>
<path d="M6.5 17.5C6.23478 17.5 5.98043 17.3946 5.79289 17.2071C5.60536 17.0196 5.5 16.7652 5.5 16.5C5.5 16.2348 5.60536 15.9804 5.79289 15.7929C5.98043 15.6054 6.23478 15.5 6.5 15.5H12.5C12.7652 15.5 13.0196 15.6054 13.2071 15.7929C13.3946 15.9804 13.5 16.2348 13.5 16.5C13.5 16.7652 13.3946 17.0196 13.2071 17.2071C13.0196 17.3946 12.7652 17.5 12.5 17.5H6.5Z" fill="white"/>
<path d="M2.5 18.5C3.03043 18.5 3.53914 18.2893 3.91421 17.9142C4.28929 17.5391 4.5 17.0304 4.5 16.5C4.5 15.9696 4.28929 15.4609 3.91421 15.0858C3.53914 14.7107 3.03043 14.5 2.5 14.5C1.96957 14.5 1.46086 14.7107 1.08579 15.0858C0.710714 15.4609 0.5 15.9696 0.5 16.5C0.5 17.0304 0.710714 17.5391 1.08579 17.9142C1.46086 18.2893 1.96957 18.5 2.5 18.5V18.5Z" fill="white"/>
<path d="M18.5 2.5C18.5 3.03043 18.2893 3.53914 17.9142 3.91421C17.5391 4.28929 17.0304 4.5 16.5 4.5C15.9696 4.5 15.4609 4.28929 15.0858 3.91421C14.7107 3.53914 14.5 3.03043 14.5 2.5C14.5 1.96957 14.7107 1.46086 15.0858 1.08579C15.4609 0.710714 15.9696 0.5 16.5 0.5C17.0304 0.5 17.5391 0.710714 17.9142 1.08579C18.2893 1.46086 18.5 1.96957 18.5 2.5V2.5Z" fill="white"/>
<path d="M16.5 18.5C17.0304 18.5 17.5391 18.2893 17.9142 17.9142C18.2893 17.5391 18.5 17.0304 18.5 16.5C18.5 15.9696 18.2893 15.4609 17.9142 15.0858C17.5391 14.7107 17.0304 14.5 16.5 14.5C15.9696 14.5 15.4609 14.7107 15.0858 15.0858C14.7107 15.4609 14.5 15.9696 14.5 16.5C14.5 17.0304 14.7107 17.5391 15.0858 17.9142C15.4609 18.2893 15.9696 18.5 16.5 18.5V18.5Z" fill="white"/>
</svg>
